<ttFont>
          <CharString index="0">
            rmoveto
            -80 callsubr
            -122 -49 callsubr
            53 hlineto
            31 12 8 14 5 -1 6 -1 7 hvcurveto
            -154 636 rlineto
            19 -5 -20 9 -37 hhcurveto
            -65 hlineto
            -35 -21 -9 -19 -5 hvcurveto
            -154 -636 -6 callsubr
            -14 15 -8 33 vhcurveto
            143 265 rmoveto
            44 212 5 25 4 26 3 25 rlinecurve
            5 hlineto
            3 -25 4 -26 5 -25 45 -212 rcurveline
            return
          </CharString>
          <CharString index="1">
            -1 4 5 -1 4 hhcurveto
            12 7 6 11 9 hvcurveto
            15 10 9 1 6 hhcurveto
            -1 27 56 -28 33 hhcurveto
            44 33 33 37 14 hvcurveto
            1 4 2 4 7 vvcurveto
            11 -6 10 -17 5 vhcurveto
            -10 3 rlineto
            1 -5 -4 1 -5 hhcurveto
            -13 -7 -7 -10 -7 hvcurveto
            -15 -12 -8 -1 -6 hhcurveto
            1 -27 -55 28 -34 hhcurveto
            -45 -31 -31 -38 -14 hvcurveto
            -3 -58 callsubr
            18 -5 vhcurveto
            return
          </CharString>
          <CharString index="2">
            rmoveto
            46 21 -66 callgsubr
            60 vlineto
            21 -21 11 -49 -46 -21 -11 -21 vhcurveto
            -60 vlineto
            -21 21 -11 49 vhcurveto
            return
          </CharString>
          <CharString index="3">
            rmoveto
            6 hlineto
            26 18 2 17 11 hvcurveto
            60 100 rlineto
            4 -10 callsubr
            vvcurveto
            7 -7 3 -13 vhcurveto
            -28 hlineto
            -26 -18 -5 -13 -7 hvcurveto
            -26 -46 -26 45 rlineto
            14 -9 -16 5 -25 hhcurveto
            -27 hlineto
            -14 -7 -3 -7 -3 3 -7 4 -7 hvcurveto
            59 -100 rlineto
            -17 11 17 -2 27 hhcurveto
            return
          </CharString>
          <CharString index="4">
            rmoveto
            48 107 21 49 20 -30 56 -22 hvcurveto
            -11 -36 -29 -49 hhcurveto
            -45 -32 22 72 -3 hvcurveto
            190 hlineto
            13 38 42 17 168 -51 101 -135 -122 -86 -65 -208 -172 69 -94 157 hvcurveto
            -79 300 rmoveto
            104 5 21 28 34 hhcurveto
            38 14 -38 -94 hvcurveto
            return
          </CharString>
          <CharString index="5">
            rmoveto
            39 17 -66 callgsubr
            60 -56 callsubr
            -39 -17 -11 -21 vhcurveto
            -60 -71 callsubr
            162 hmoveto
            38 -41 callgsubr
            60 -14 callgsubr
            -39 -17 -11 -21 vhcurveto
            -60 -71 callsubr
            return
          </CharString>
          <CharString index="6">
            rmoveto
            59 42 38 38 25 hvcurveto
            -33 callsubr
            21 94 6 -11 callgsubr
            -10 26 99 vvcurveto
            319 -54 callgsubr
            -40 vhcurveto
            -35 hlineto
            -39 -18 -10 -22 hvcurveto
            -348 vlineto
            -15 -11 -16 -17 -23 hhcurveto
            -29 -8 18 32 hvcurveto
            330 -67 callgsubr
            -34 -88 callsubr
            -363 vlineto
            -91 40 -48 77 vhcurveto
            return
          </CharString>
          <CharString index="7">
            -135 -69 -95 -174 -174 70 -96 134 hvcurveto
            1 117 rmoveto
            -40 -15 40 113 113 15 39 40 39 15 -39 -113 -113 -15 -40 -39 hvcurveto
            return
          </CharString>
          <CharString index="8">
            hlineto
            -40 -18 -11 -21 hvcurveto
            -455 vlineto
            -53 -33 -39 -52 -53 -32 39 53 vhcurveto
            455 vlineto
            21 -17 11 -41 -63 callsubr
            -465 vlineto
            -135 91 -78 150 return
          </CharString>
          <CharString index="9">
            -12 callgsubr
            -28 hlineto
            -42 -18 -11 -21 hvcurveto
            return
          </CharString>
          <CharString index="10">
            rmoveto
            400 -98 callsubr
            -344 vlineto
            -14 -7 -18 -21 -26 hhcurveto
            -29 -10 18 31 hvcurveto
            330 -98 callsubr
            -349 vlineto
            -104 38 -49 83 vhcurveto
            60 1 43 40 22 43 rrcurveto
            -42 vlineto
            -82 -41 -46 -67 vhcurveto
            -65 -42 35 -10 hhcurveto
            -7 -6 -10 -30 -12 1 -16 2 -19 hvcurveto
            -38 4 72 -26 89 hhcurveto
            147 65 101 203 -2 hvcurveto
            return
          </CharString>
          <CharString index="11">
            -29 hlineto
            -28 -22 -5 -16 -3 hvcurveto
            -40 -205 -6 -29 -5 -45 -6 -38 rlinecurve
            -4 hlineto
            -5 38 -6 44 -5 30 -37 203 rcurveline
            20 -4 -21 3 -26 hhcurveto
            -43 hlineto
            -34 -16 -9 -14 -5 2 -8 2 -9 hvcurveto
            116 -416 rlineto
            -18 5 14 -3 16 hhcurveto
            -57 -210 -6 callsubr
            -13 18 -8 38 vhcurveto
            20 hlineto
            29 22 5 16 4 hvcurveto
            170 670 rlineto
            1 7 1 6 5 vvcurveto
            return
          </CharString>
          <CharString index="12">
            301 -4 callsubr
            17 -30 callsubr
            -149 hlineto
            170 314 rlineto
            2 4 1 4 7 vvcurveto
            28 -18 49 -9 vhcurveto
            -285 -37 callsubr
            -17 -48 callsubr
            132 hlineto
            -170 -316 rlineto
            -1 -3 -1 -5 -6 vvcurveto
            -26 14 -50 13 vhcurveto
            return
          </CharString>
          <CharString index="13">
            rmoveto
            33 hlineto
            29 9 7 14 3 hvcurveto
            62 263 3 16 2 45 3 16 rlinecurve
            4 hlineto
            3 -16 2 -45 3 -16 63 -263 rcurveline
            -14 3 8 -7 31 hhcurveto
            32 hlineto
            26 13 7 14 2 hvcurveto
            104 465 rlineto
            1 6 0 5 4 vvcurveto
            16 -18 10 -43 -44 -21 -7 -14 -2 vhcurveto
            -27 -247 -3 -23 -4 -65 -3 -23 rlinecurve
            -4 hlineto
            -3 28 -7 58 -5 28 -42 244 rcurveline
            14 -2 -23 7 -27 hhcurveto
            -26 hlineto
            -28 -22 -7 -14 -2 hvcurveto
            -42 -242 -5 -29 -8 -58 -3 -29 rlinecurve
            -4 hlineto
            -10 111 -26 247 rlineto
            14 -1 -22 7 -49 hhcurveto
            -43 -18 -10 -16 -4 0 -5 1 -6 hvcurveto
            106 -465 rlineto
            -14 3 10 -7 28 hhcurveto
            endchar
          </CharString>
          <CharString index="14">
            rmoveto
            66 hlineto
            26 16 7 14 3 hvcurveto
            69 353 12 107 11 -107 68 -353 rlineto
            -14 3 16 -7 26 hhcurveto
            66 hlineto
            30 14 7 14 3 hvcurveto
            133 642 rlineto
            1 6 0 5 4 vvcurveto
            16 -18 10 -41 vhcurveto
            -23 hlineto
            -40 -21 -10 -21 -3 hvcurveto
            -48 -369 -6 -46 -6 -54 -8 -53 rlinecurve
            -8 53 -7 54 -7 46 -60 379 rcurveline
            16 -3 -12 5 -32 hhcurveto
            -50 hlineto
            -32 -12 -5 -16 -3 hvcurveto
            -61 -379 -7 -44 -9 -53 -7 -53 rlinecurve
            -7 53 -5 53 -6 44 -47 369 rcurveline
            21 -3 -21 10 -40 hhcurveto
            -29 hlineto
            -41 -18 -10 -16 -4 -1 -5 1 -6 hvcurveto
            131 -642 rlineto
            -14 3 13 -7 31 hhcurveto
            endchar
          </CharString>
          <CharString index="15">
            -100 callgsubr
            -59 -83 callgsubr
            return
          </CharString>
          <CharString index="16">
            386 hlineto
            20 9 15 35 hvcurveto
            31 -30 callsubr
            -225 hlineto
            253 469 rlineto
            1 2 -2 2 4 vvcurveto
            26 -19 66 -18 vhcurveto
            -365 hlineto
            -20 -8 -15 -35 hvcurveto
            -31 vlineto
            -35 8 -15 20 vhcurveto
            205 hlineto
            -254 -470 rlineto
            -1 -2 0 -4 -4 vvcurveto
            -27 21 -62 18 vhcurveto
            return
          </CharString>
          <CharString index="17">
            -89 callgsubr
            endchar
          </CharString>
          <CharString index="18">
            rmoveto
            -85 callsubr
            -13 27 -17 -25 vvcurveto
            -20 -16 -13 -27 vhcurveto
            -51 -99 callsubr
            150 90 78 135 vhcurveto
            459 vlineto
            52 11 24 33 45 vvcurveto
            return
          </CharString>
          <CharString index="19">
            hlineto
            -41 -17 -11 -21 hvcurveto
            return
          </CharString>
          <CharString index="20">
            -1 callsubr
            226 24 vlineto
            35 11 -12 -28 11 hvcurveto
            53 -190 rlineto
            -20 5 23 -7 32 hhcurveto
            35 hlineto
            43 19 10 17 3 -2 5 -1 4 hvcurveto
            -59 192 -12 41 -25 42 -30 17 rlinecurve
            4 vlineto
            55 30 40 50 89 vvcurveto
            151 -93 46 -111 vhcurveto
            -167 hlineto
            -28 -12 -23 callsubr
            -630 -58 callgsubr
            94 404 rmoveto
            167 53 vlineto
            31 25 -21 -60 -60 -27 -26 -26 hvcurveto
            return
          </CharString>
          <CharString index="21">
            -61 callsubr
            -78 callgsubr
            return
          </CharString>
          <CharString index="22">
            30 -21 53 -26 -6 -5 -1 -4 -5 vhcurveto
            -32 -22 rlineto
            -8 -5 -3 -7 -7 return
          </CharString>
          <CharString index="23">
            rmoveto
            76 58 53 109 hvcurveto
            543 -98 callsubr
            -545 vlineto
            -30 -6 -13 -18 vhcurveto
            -11 -13 4 -6 hhcurveto
            -21 -10 -47 -23 -39 36 -12 63 hvcurveto
            endchar
          </CharString>
          <CharString index="24">
            rmoveto
            50 13 13 12 10 hvcurveto
            82 107 5 1 12 vvcurveto
            11 -18 3 -36 -36 -34 -6 -21 -10 vhcurveto
            -37 3 callsubr
            5 -4 24 vhcurveto
            165 hmoveto
            51 12 13 12 9 hvcurveto
            83 107 5 1 12 vvcurveto
            11 -18 3 -36 -36 -33 -6 -21 -10 vhcurveto
            -38 3 callsubr
            6 -4 23 vhcurveto
            return
          </CharString>
          <CharString index="25">
            rmoveto
            29 60 78 67 25 -12 19 -33 hvcurveto
            -20 hlineto
            -41 -17 -17 -27 hvcurveto
            -80 -10 -25 -18 vvcurveto
            -16 26 -6 18 vhcurveto
            return
          </CharString>
          <CharString index="26">
            rmoveto
            55 95 28 41 22 -22 54 -22 -4 -6 -3 -4 -8 hvcurveto
            -7 -15 -24 -14 -32 hhcurveto
            -51 -27 40 113 112 28 40 53 29 21 -12 -8 15 hvcurveto
            -5 8 6 -3 5 hhcurveto
            20 25 55 21 37 -72 32 -73 -148 -68 -94 -177 -182 73 -86 139 hvcurveto
            endchar
          </CharString>
          <CharString index="27">
            52 hlineto
            25 19 5 16 3 hvcurveto
            27 122 rlineto
            152 hlineto
            26 return
          </CharString>
          <CharString index="28">
            575 -100 callgsubr
            return
          </CharString>
          <CharString index="29">
            15 35 hvcurveto
            -40 callsubr
            return
          </CharString>
          <CharString index="30">
            rmoveto
            72 50 47 78 48 -21 39 -47 18 hvcurveto
            2 vlineto
            34 14 21 31 41 vvcurveto
            63 -43 40 -67 -54 -51 -14 -29 -16 18 -29 11 vhcurveto
            9 11 18 34 hhcurveto
            29 15 -18 -29 -30 -21 -19 -35 hvcurveto
            -16 hlineto
            -12 -5 -9 -20 hvcurveto
            -11 vlineto
            -20 5 -9 12 vhcurveto
            21 hlineto
            46 18 -21 -39 -36 -21 -21 -33 hvcurveto
            -38 -23 24 -8 hhcurveto
            -14 -15 -33 -12 -36 77 -12 41 hvcurveto
            return
          </CharString>
          <CharString index="31">
            -19 callsubr
            262 37 vlineto
            -59 callsubr
            -37 95 hlineto
            21 -15 11 -35 vhcurveto
            -31 hlineto
            -33 -18 -11 -21 -3 hvcurveto
            -13 -95 rlineto
            -11 hlineto
            -21 -49 callgsubr
            -17 -50 callsubr
            21 vhcurveto
            11 -258 hlineto
            return
          </CharString>
          <CharString index="32">
            185 -8 rmoveto
            49 38 30 40 19 hvcurveto
            -26 5 6 -37 30 -17 callgsubr
            546 -98 callsubr
            -220 vlineto
            16 -18 -27 13 -37 hhcurveto
            -105 -62 -95 -172 -177 64 -95 86 hvcurveto
            return
          </CharString>
          <CharString index="33">
            -61 callsubr
            315 vlineto
            28 7 18 22 26 20 13 -8 14 hhcurveto
            17 9 70 20 20 -7 34 -45 -43 -22 -38 -38 -15 hvcurveto
            25 -6 -2 42 -32 hhcurveto
            -25 -87 -8 -24 hvcurveto
            -20 12 -21 -100 vvcurveto
            -319 -58 callgsubr
            return
          </CharString>
          <CharString index="34">
            rmoveto
            63 36 42 57 58 -36 42 -63 -62 -36 -42 -58 -57 36 -42 62 hvcurveto
            1 62 rmoveto
            -24 -13 13 23 23 13 14 24 23 14 -14 -23 -23 -14 -13 -23 hvcurveto
            return
          </CharString>
          <CharString index="35">
            853 rmoveto
            35 12 7 8 8 hvcurveto
            61 74 13 16 10 vvcurveto
            19 -14 5 -26 -35 -29 -6 -21 -11 vhcurveto
            -25 -67 -10 -21 -9 vvcurveto
            -11 5 -4 16 vhcurveto
            -202 -104 -97 callgsubr
            return
          </CharString>
          <CharString index="36">
            vlineto
            -64 callsubr
            return
          </CharString>
          <CharString index="37">
            268 hlineto
            21 9 15 35 hvcurveto
            31 -29 callgsubr
            -149 539 hlineto
            21 -17 11 -41 -63 callsubr
            -630 vlineto
            -9 callgsubr
            26 vhcurveto
            return
          </CharString>
          <CharString index="38">
            rmoveto
            126 55 75 135 hvcurveto
            468 vlineto
            21 -18 12 2 callsubr
            -40 -17 -12 -21 hvcurveto
            -443 vlineto
            -71 -12 -31 -37 vhcurveto
            -26 -10 6 -11 hhcurveto
            -23 -1 -19 -57 -35 vvcurveto
            -28 59 -18 55 vhcurveto
            return
          </CharString>
          <CharString index="39">
            -65 callsubr
            hvcurveto
            return
          </CharString>
          <CharString index="40">
            17 12 15 19 19 -12 15 -17 -17 -12 -15 -19 -19 12 -15 17 hvcurveto
            return
          </CharString>
          <CharString index="41">
            44 94 123 112 25 -18 19 -42 hvcurveto
            4 callgsubr
            -102 -24 -50 -13 -32 hvcurveto
            -5 -12 -2 -9 -8 vvcurveto
            -16 27 -6 18 vhcurveto
            return
          </CharString>
          <CharString index="42">
            hlineto
            41 -21 callsubr
            return
          </CharString>
          <CharString index="43">
            -21 17 -45 callgsubr
            return
          </CharString>
          <CharString index="44">
            vhcurveto
            -40 -88 callsubr
            return
          </CharString>
          <CharString index="45">
            -166 -96 -107 -251 -251 96 -107 166 hvcurveto
            1 131 rmoveto
            -69 -35 49 178 178 35 48 69 68 34 -48 -178 -178 -34 -49 -68 hvcurveto
            endchar
          </CharString>
          <CharString index="46">
            rmoveto
            28 -65 callgsubr
            return
          </CharString>
          <CharString index="47">
            rmoveto
            64 54 27 32 23 hvcurveto
            -37 37 54 -22 69 hhcurveto
            62 98 25 44 24 -32 53 -19 hvcurveto
            -13 -35 -29 -49 hhcurveto
            -42 -37 23 75 hvcurveto
            189 hlineto
            13 38 42 17 169 -51 96 -137 -44 -41 -9 -22 -32 hvcurveto
            19 -29 -48 12 -55 hhcurveto
            -85 -80 -31 -35 -21 30 -59 22 hvcurveto
            16 34 29 50 hhcurveto
            33 26 -11 -25 10 hvcurveto
            -4 -13 -3 -14 -2 -16 rrcurveto
            -207 1 -27 -111 -76 vvcurveto
            -95 52 -62 98 vhcurveto
            231 314 rmoveto
            88 5 22 20 29 hhcurveto
            31 14 -28 -80 hvcurveto
            -300 -197 rmoveto
            -27 -14 21 30 46 23 32 66 hvcurveto
            1 -36 4 -32 8 -28 rrcurveto
            -22 -14 -24 -11 -23 hhcurveto
            endchar
          </CharString>
          <CharString index="48">
            21 -32 callgsubr
            17 -29 callgsubr
            return
          </CharString>
          <CharString index="49">
            -44 callsubr
            5 -12 return
          </CharString>
          <CharString index="50">
            hmoveto
            -91 callsubr
            return
          </CharString>
          <CharString index="51">
            -54 callgsubr
            -41 return
          </CharString>
          <CharString index="52">
            rmoveto
            46 hlineto
            22 12 7 14 5 hvcurveto
            47 122 rlineto
            160 hlineto
            12 -111 rlineto
            -21 2 7 -9 18 hhcurveto
            287 hlineto
            20 9 15 35 hvcurveto
            31 -30 callsubr
            -180 hlineto
            -17 162 rlineto
            176 hlineto
            20 9 15 35 hvcurveto
            31 -30 callsubr
            -193 hlineto
            -15 145 rlineto
            228 hlineto
            20 9 15 35 hvcurveto
            31 -30 callsubr
            -392 hlineto
            -17 -11 -8 -19 -7 hvcurveto
            -246 -635 rlineto
            -2 -6 -1 -7 -5 vvcurveto
            -14 20 -8 39 vhcurveto
            173 275 rmoveto
            64 182 23 71 rlineto
            4 -72 hlineto
            16 -181 rlineto
            endchar
          </CharString>
          <CharString index="53">
            rmoveto
            86 45 52 42 26 -18 8 -22 -14 -9 -7 -9 -4 hvcurveto
            -12 -7 -3 -24 -53 hhcurveto
            -50 -4 22 12 -7 hvcurveto
            10 -5 -9 8 -15 hhcurveto
            -22 -19 -8 -27 -42 46 -51 84 hvcurveto
            -195 return
          </CharString>
          <CharString index="54">
            167 372 rmoveto
            64 73 29 139 139 -73 29 -64 -63 -73 -29 -139 -139 73 -29 63 hvcurveto
            14 -374 rmoveto
            33 hlineto
            20 13 9 19 9 hvcurveto
            278 641 rlineto
            3 6 1 5 4 vvcurveto
            12 -10 8 -17 vhcurveto
            -33 hlineto
            -20 -13 -9 -19 -8 hvcurveto
            -279 -641 rlineto
            -3 -6 -22 callsubr
            -12 10 -8 17 vhcurveto
            -14 456 rmoveto
            -26 callgsubr
            356 -462 rmoveto
            64 73 29 139 139 -73 29 -64 -63 -73 -29 -139 -139 73 -29 63 hvcurveto
            return
          </CharString>
          <CharString index="55">
            5 callgsubr
            12 hvcurveto
            1 4 2 4 7 vvcurveto
            11 -6 10 -15 5 vhcurveto
            -9 3 rlineto
            1 -4 -4 1 -5 hhcurveto
            -11 -7 -7 -10 -7 hvcurveto
            -15 -10 -7 -1 -6 hhcurveto
            1 -25 return
          </CharString>
          <CharString index="56">
            167 94 108 250 return
          </CharString>
          <CharString index="57">
            vlineto
            -35 9 -15 return
          </CharString>
          <CharString index="58">
            rlineto
            -16 4 21 -5 28 hhcurveto
            return
          </CharString>
          <CharString index="59">
            -50 callsubr
            20 vhcurveto
            return
          </CharString>
          <CharString index="60">
            110 -2 -101 callgsubr
            return
          </CharString>
          <CharString index="61">
            -87 callsubr
            endchar
          </CharString>
          <CharString index="62">
            -1 516 34 rmoveto
            -166 323 155 309 rlineto
            4 9 2 7 5 vvcurveto
            9 -16 6 -39 vhcurveto
            -55 hlineto
            -27 -17 -3 -16 -7 hvcurveto
            -135 -312 -4 1 rlineto
            298 vlineto
            21 -18 11 -41 vhcurveto
            -40 -64 callgsubr
            40 hlineto
            41 -41 callgsubr
            300 vlineto
            3 1 136 -314 rlineto
            -15 7 19 -4 28 hhcurveto
            66 hlineto
            36 16 6 9 5 -1 7 -5 9 hvcurveto
            return
          </CharString>
          <CharString index="63">
            -7 -35 callsubr
            return
          </CharString>
          <CharString index="64">
            -580 -86 callsubr
            return
          </CharString>
          <CharString index="65">
            -59 441 34 rmoveto
            -107 240 94 213 rlineto
            5 11 2 6 4 vvcurveto
            11 -15 6 -39 vhcurveto
            -52 hlineto
            -26 -5 -1 -18 -8 hvcurveto
            -85 -200 rlineto
            -5 416 18 callgsubr
            -32 -15 callgsubr
            32 -68 callsubr
            216 11 vlineto
            89 -229 rlineto
            -15 6 7 -4 26 hhcurveto
            56 hlineto
            37 15 6 10 4 -2 7 -4 9 hvcurveto
            return
          </CharString>
          <CharString index="66">
            -83 callgsubr
            endchar
          </CharString>
          <CharString index="67">
            31 vlineto
            35 return
          </CharString>
          <CharString index="68">
            -10 callgsubr
            10 7 20 callsubr
            31 -52 callsubr
            -50 28 -31 hhcurveto
            -40 -29 -31 -38 -13 hvcurveto
            -2 -7 -1 -5 0 callgsubr
            return
          </CharString>
          <CharString index="69">
            -20 -49 callgsubr
            return
          </CharString>
          <CharString index="70">
            hlineto
            -38 callsubr
            return
          </CharString>
          <CharString index="71">
            hlineto
            1 callsubr
            return
          </CharString>
          <CharString index="72">
            -22 callsubr
            -9 return
          </CharString>
          <CharString index="73">
            18 hlineto
            21 10 9 21 3 hvcurveto
            9 59 13 109 8 vvcurveto
            21 -18 11 -42 vhcurveto
            -10 hlineto
            -42 -18 -11 -21 hvcurveto
            -5 vlineto
            22 -171 rlineto
            -21 3 10 -9 21 hhcurveto
            return
          </CharString>
          <CharString index="74">
            -37 7 -3 -30 34 hhcurveto
            return
          </CharString>
          <CharString index="75">
            58 hmoveto
            461 hlineto
            20 11 12 23 hvcurveto
            51 vlineto
            17 -2 12 -5 15 vhcurveto
            -186 553 rlineto
            20 -6 -12 7 -17 hhcurveto
            -66 hlineto
            -18 -12 -8 -19 -6 hvcurveto
            -185 -553 rlineto
            -5 -15 -2 -12 -17 vvcurveto
            -51 vlineto
            -23 10 -12 20 vhcurveto
            126 130 rmoveto
            99 363 rlineto
            11 hlineto
            100 -363 rlineto
            endchar
          </CharString>
          <CharString index="76">
            -6 -5 -4 -13 hhcurveto
            -22 -27 6 38 return
          </CharString>
          <CharString index="77">
            -30 callgsubr
            -20 vhcurveto
            return
          </CharString>
          <CharString index="78">
            -68 callsubr
            92 -67 callgsubr
            return
          </CharString>
          <CharString index="79">
            296 -8 rmoveto
            158 127 120 238 238 -127 120 -158 -158 -128 -120 -238 -238 128 -120 158 hvcurveto
            64 vmoveto
            -121 -99 92 202 202 99 92 121 120 99 -92 -202 -202 -99 -92 -120 hvcurveto
            return
          </CharString>
          <CharString index="80">
            -28 callgsubr
            362 vlineto
            91 return
          </CharString>
          <CharString index="81">
            -18 -6 -3 callgsubr
            6 -15 18 vhcurveto
            return
          </CharString>
          <CharString index="82">
            -11 -23 callsubr
            return
          </CharString>
          <CharString index="83">
            66 -22 callgsubr
            return
          </CharString>
          <CharString index="84">
            -12 -28 hvcurveto
            return
          </CharString>
          <CharString index="85">
            -1 -5 -4 vvcurveto
            return
          </CharString>
          <CharString index="86">
            17 11 21 return
          </CharString>
          <CharString index="87">
            -42 callgsubr
            endchar
          </CharString>
          <CharString index="88">
            -6 -12 -4 -9 hhcurveto
            -17 -7 11 24 hvcurveto
            return
          </CharString>
          <CharString index="89">
            17 11 15 19 19 -11 15 -17 -17 -12 -15 -19 -19 12 -15 17 hvcurveto
            return
          </CharString>
          <CharString index="90">
            hlineto
            20 9 15 35 hvcurveto
            7 -30 callsubr
            return
          </CharString>
          <CharString index="91">
            -76 callgsubr
            endchar
          </CharString>
          <CharString index="92">
            6 -3 callsubr
            -6 15 return
          </CharString>
          <CharString index="93">
            -21 18 -11 return
          </CharString>
          <CharString index="94">
            41 vhcurveto
            34 hlineto
            41 17 return
          </CharString>
          <CharString index="95">
            640 -36 callgsubr
            return
          </CharString>
          <CharString index="96">
            -58 callgsubr
            129 315 rmoveto
            -18 -13 7 7 -10 hvcurveto
            247 vlineto
            22 11 16 18 22 hhcurveto
            34 16 -42 -106 -112 -19 -41 -39 hvcurveto
            endchar
          </CharString>
          <CharString index="97">
            7 -21 callgsubr
            return
          </CharString>
          <CharString index="98">
            rmoveto
            41 87 123 112 25 -16 19 -42 hvcurveto
            -20 hlineto
            -41 -17 -17 -27 -98 -22 -50 -8 -32 hvcurveto
            -2 -13 -4 -11 -9 vvcurveto
            -16 27 -6 17 vhcurveto
            endchar
          </CharString>
          <CharString index="99">
            rmoveto
            -66 callsubr
            return
          </CharString>
          <CharString index="100">
            rmoveto
            27 hlineto
            20 21 2 17 9 hvcurveto
            20 45 20 -46 rlineto
            -12 6 18 -6 27 hhcurveto
            28 hlineto
            12 8 3 7 4 -2 5 -4 6 hvcurveto
            return
          </CharString>
          <CharString index="101">
            rlineto
            -2 -7 -1 -6 -5 vvcurveto
            return
          </CharString>
          <CharString index="102">
            -206 -61 callsubr
            195 vlineto
            -16 18 27 -13 37 hhcurveto
            105 62 95 172 177 -64 95 -86 return
          </CharString>
          <CharString index="103">
            hlineto
            -24 callgsubr
            return
          </CharString>
          <CharString index="104">
            15 35 hvcurveto
            7 vlineto
            35 return
          </CharString>
          <CharString index="105">
            -15 -68 callgsubr
            return
          </CharString>
          <CharString index="106">
            rmoveto
            34 -65 callgsubr
            return
          </CharString>
          <CharString index="107">
            rmoveto
            -46 callgsubr
            return
          </CharString>
          <CharString index="108">
            -20 -9 -15 -35 hvcurveto
            -7 -48 callsubr
            return
          </CharString>
          <CharString index="109">
            -40 vhcurveto
            -42 hlineto
            return
          </CharString>
          <CharString index="110">
            -80 -18 -26 -11 vvcurveto
            -11 return
          </CharString>
          <CharString index="111">
            hlineto
            40 17 -66 callgsubr
            return
          </CharString>
          <CharString index="112">
            -21 18 -45 callgsubr
            return
          </CharString>
          <CharString index="113">
            20 hlineto
            41 17 17 27 hvcurveto
            80 10 25 18 vvcurveto
            16 -26 6 -18 return
          </CharString>
          <CharString index="114">
            -118 -238 -247 return
          </CharString>
          <CharString index="115">
            146 rlineto
            5 8 3 7 7 vvcurveto
            23 -39 20 -19 -9 return
          </CharString>
          <CharString index="116">
            -8 3 -9 hhcurveto
            -19 -39 -20 -23 -7 3 -7 5 -8 hvcurveto
            return
          </CharString>
          <CharString index="117">
            rlineto
            8 8 4 9 8 vvcurveto
            9 -4 8 -8 8 vhcurveto
            return
          </CharString>
          <CharString index="118">
            -83 203 -140 rmoveto
            19 hlineto
            31 15 -66 callgsubr
            return
          </CharString>
          <CharString index="119">
            rlineto
            8 -8 -8 4 -9 hhcurveto
            -8 -9 -4 -8 -8 hvcurveto
            return
          </CharString>
          <CharString index="120">
            rlineto
            -8 -8 -4 -8 -9 vvcurveto
            -8 4 -9 8 -8 vhcurveto
            return
          </CharString>
          <CharString index="121">
            hlineto
            -21 -9 -10 -24 hvcurveto
            -7 vlineto
            -24 9 -10 21 vhcurveto
            return
          </CharString>
          <CharString index="122">
            -108 48 -48 77 return
          </CharString>
          <CharString index="123">
            21 9 10 24 hvcurveto
            7 vlineto
            24 -9 10 -21 vhcurveto
            return
          </CharString>
          <CharString index="124">
            -38 callsubr
            -30 -48 callsubr
            return
          </CharString>
          <CharString index="125">
            -13 -15 22 -27 8 vhcurveto
            return
          </CharString>
          <CharString index="126">
            28 -31 hhcurveto
            -41 -29 -31 return
          </CharString>
          <CharString index="127">
            1 6 hhcurveto
            -1 25 50 -28 return
          </CharString>
          <CharString index="128">
            -4 vvcurveto
            -9 5 -12 return
          </CharString>
        <CharString name=".notdef">
          3 7 hmoveto
          500 700 -500 hlineto
          250 -305 rmoveto
          -171 255 rlineto
          340 hlineto
          -370 -555 rmoveto
          510 vlineto
          171 -255 rlineto
          229 -255 rmoveto
          -169 255 169 255 rlineto
          -369 -555 rmoveto
          169 255 171 -255 rlineto
          endchar
        </CharString>
        <CharString name="A">
          -6 50 -2 -107 callsubr
          endchar
        </CharString>
        <CharString name="AE">
          235 62 -2 -55 callsubr
        </CharString>
        <CharString name="AEacute">
          235 377 752 rmoveto
          -105 callgsubr
          -315 -754 -55 callsubr
        </CharString>
        <CharString name="Aacute">
          -6 232 752 rmoveto
          -105 callgsubr
          -182 -754 -107 callsubr
          endchar
        </CharString>
        <CharString name="Abreve">
          -6 252 752 -100 callgsubr
          -202 -754 -107 callsubr
          endchar
        </CharString>
        <CharString name="Acircumflex">
          -6 149 749 -107 callgsubr
          -99 -751 -107 callsubr
          endchar
        </CharString>
        <CharString name="Adieresis">
          -6 174 755 -102 callsubr
          -286 -757 -107 callsubr
          endchar
        </CharString>
        <CharString name="Agrave">
          -6 268 752 -99 callgsubr
          -218 -754 -107 callsubr
          endchar
        </CharString>
        <CharString name="Amacron">
          -6 157 774 -84 callgsubr
          -107 -776 -107 callsubr
          endchar
        </CharString>
        <CharString name="Aogonek">
          -6 469 -95 rmoveto
          -31 callsubr
          15 3 19 6 19 hvcurveto
          2 hlineto
          53 hlineto
          31 12 8 14 5 -1 6 -1 7 hvcurveto
          -154 636 rlineto
          19 -5 -20 9 -37 hhcurveto
          -65 hlineto
          -35 -21 -9 -19 -5 hvcurveto
          -154 -636 -6 callsubr
          -14 15 -8 33 vhcurveto
          -80 callsubr
          -121 rlineto
          -20 -37 -5 -36 -21 -68 callgsubr
          -276 358 -2 callgsubr
        </CharString>
        <CharString name="Aring">
          -6 251 727 -73 callsubr
          -202 -791 -107 callsubr
          endchar
        </CharString>
        <CharString name="Aringacute">
          -6 233 872 rmoveto
          35 12 7 8 8 hvcurveto
          61 74 13 16 10 vvcurveto
          19 -14 5 -26 -35 -29 -6 -21 -11 vhcurveto
          -25 -67 -10 -21 -9 vvcurveto
          -11 5 -4 16 vhcurveto
          268 -834 rmoveto
          -154 636 -2 8 -5 7 -9 5 rlinecurve
          13 16 6 22 24 vvcurveto
          58 -36 42 -63 -62 -36 -42 -58 -25 7 -22 13 -17 vhcurveto
          -7 -4 -5 -6 -2 -8 -154 -636 rcurveline
          -2 -7 -1 -6 -5 vvcurveto
          -14 15 -8 33 vhcurveto
          -80 callsubr
          -122 -49 callsubr
          53 hlineto
          31 12 8 14 5 -1 6 -1 7 hvcurveto
          -249 754 rmoveto
          23 14 -14 -23 -23 -14 -13 -23 -24 -13 13 23 23 13 14 24 hvcurveto
          -59 -529 -2 callgsubr
        </CharString>
        <CharString name="Atilde">
          -6 123 757 rmoveto
          -106 callsubr
          -62 -762 -107 callsubr
          endchar
        </CharString>
        <CharString name="B">
          28 94 hmoveto
          182 hlineto
          155 72 84 113 86 -41 59 -68 20 hvcurveto
          -1 4 rlineto
          53 31 37 51 83 vvcurveto
          108 -64 61 -146 vhcurveto
          -179 hlineto
          -26 -11 -12 -27 hvcurveto
          -621 vlineto
          -9 callgsubr
          26 vhcurveto
          111 415 rmoveto
          165 71 vlineto
          42 19 -22 -58 -59 -20 -26 -43 hvcurveto
          -69 -294 rmoveto
          175 76 vlineto
          49 23 -22 -63 -65 -24 -25 -48 hvcurveto
          endchar
        </CharString>
        <CharString name="C">
          -52 304 -8 -85 callgsubr
        </CharString>
        <CharString name="CR">
          -271 endchar
        </CharString>
        <CharString name="Cacute">
          -52 276 752 rmoveto
          -105 callgsubr
          28 -760 -85 callgsubr
        </CharString>
        <CharString name="Cacute.loclPLK">
          -52 278 752 -81 callgsubr
          26 -760 -85 callgsubr
        </CharString>
        <CharString name="Ccaron">
          -52 293 749 -104 callsubr
          11 -757 -85 callgsubr
        </CharString>
        <CharString name="Ccedilla">
          -52 387 139 rmoveto
          -6 -21 -16 -5 -29 hhcurveto
          -88 -36 76 147 148 38 74 81 27 21 -5 -5 16 hvcurveto
          27 -10 19 51 1 46 1 21 -6 19 -26 7 rrcurveto
          5 -18 -33 6 -36 hhcurveto
          -187 -85 -118 -238 -232 70 -114 164 -13 hvcurveto
          -17 -46 -6 -18 -8 -73 callgsubr
          12 41 30 3 26 6 15 5 rlinecurve
          25 9 4 16 17 vvcurveto
          58 -16 42 -33 -10 vhcurveto
          endchar
        </CharString>
        <CharString name="Ccircumflex">
          -52 193 749 -107 callgsubr
          111 -757 -85 callgsubr
        </CharString>
        <CharString name="Cdotaccent">
          -52 299 755 -105 callsubr
          5 -763 -85 callgsubr
        </CharString>
        <CharString name="D">
          -24 callsubr
          endchar
        </CharString>
        <CharString name="Dcaron">
          66 278 749 -104 callsubr
          -184 -749 rmoveto
          -72 callgsubr
          endchar
        </CharString>
        <CharString name="Dcroat">
          -43 callgsubr
        </CharString>
        <CharString name="E">
          -54 94 hmoveto
          -103 callgsubr
          endchar
        </CharString>
        <CharString name="Eacute">
          -54 227 752 rmoveto
          -105 callgsubr
          -133 -752 rmoveto
          -103 callgsubr
          endchar
        </CharString>
        <CharString name="Ebreve">
          -54 247 752 -100 callgsubr
          -153 -752 rmoveto
          -103 callgsubr
          endchar
        </CharString>
        <CharString name="Ecaron">
          -54 244 749 -104 callsubr
          -150 -749 rmoveto
          -103 callgsubr
          endchar
        </CharString>
        <CharString name="Ecircumflex">
          -54 144 749 -107 callgsubr
          -50 -749 rmoveto
          -103 callgsubr
          endchar
        </CharString>
        <CharString name="Edieresis">
          -54 169 755 -102 callsubr
          -237 -755 rmoveto
          -103 callgsubr
          endchar
        </CharString>
        <CharString name="Edotaccent">
          -54 250 755 -105 callsubr
          -156 -755 rmoveto
          -103 callgsubr
          endchar
        </CharString>
        <CharString name="Egrave">
          -54 263 752 -99 callgsubr
          -169 -752 rmoveto
          -103 callgsubr
          endchar
        </CharString>
        <CharString name="Emacron">
          -54 152 774 -84 callgsubr
          -58 -774 rmoveto
          -103 callgsubr
          endchar
        </CharString>
        <CharString name="Eng">
          79 480 702 rmoveto
          -24 -88 callsubr
          -319 vlineto
          -26 4 -27 4 -26 vhcurveto
          -4 -2 -10 26 -10 26 -14 26 rlinecurve
          -180 326 rlineto
          25 -11 -19 3 -22 hhcurveto
          -26 -64 callgsubr
          24 -68 callsubr
          329 vlineto
          23 -4 22 20 callgsubr
          3 8 -21 8 -23 11 -20 rlinecurve
          182 -324 rlineto
          -94 vlineto
          -30 -8 -13 -24 vhcurveto
          -11 -13 4 -6 hhcurveto
          -21 -10 -47 -23 -39 36 -12 63 76 58 53 109 hvcurveto
          720 -14 callgsubr
          vhcurveto
          endchar
        </CharString>
        <CharString name="Eogonek">
          -54 466 -104 rmoveto
          -31 callsubr
          21 5 26 11 26 hvcurveto
          6 7 3 14 20 vvcurveto
          -40 callsubr
          -8 15 -20 vhcurveto
          -177 162 156 hlineto
          20 9 15 35 hvcurveto
          31 -30 callsubr
          -156 145 176 hlineto
          20 9 15 35 hvcurveto
          31 -30 callsubr
          -295 hlineto
          -26 -25 callsubr
          -620 vlineto
          -9 callgsubr
          26 vhcurveto
          252 hlineto
          -16 -33 -4 -31 -19 -68 callgsubr
          endchar
        </CharString>
        <CharString name="Eth">
          -43 callgsubr
        </CharString>
        <CharString name="Euro">
          -8 310 -8 rmoveto
          97 81 42 42 16 -24 67 -35 hvcurveto
          -17 -30 -31 -61 hhcurveto
          -50 -33 35 70 -15 hvcurveto
          168 hlineto
          16 callsubr
          -178 hlineto
          -1 14 0 14 15 vvcurveto
          33 179 vlineto
          16 callsubr
          -171 hlineto
          76 15 33 38 54 60 26 -26 12 hhcurveto
          24 39 64 27 29 -72 41 -96 -151 -82 -83 -166 -23 hvcurveto
          -29 14 callsubr
          23 -32 hlineto
          -15 0 -15 1 -14 vhcurveto
          -24 14 callsubr
          30 hlineto
          -165 23 78 -76 149 hhcurveto
          endchar
        </CharString>
        <CharString name="F">
          -88 115 -2 rmoveto
          40 -68 callsubr
          262 147 vlineto
          20 9 15 35 hvcurveto
          31 -30 callsubr
          -147 146 156 hlineto
          20 9 15 35 hvcurveto
          31 -30 callsubr
          -275 hlineto
          -26 -25 callsubr
          -630 -71 callsubr
          endchar
        </CharString>
        <CharString name="G">
          41 465 410 -79 callgsubr
          endchar
        </CharString>
        <CharString name="Gbreve">
          41 297 752 -100 callgsubr
          168 -342 -79 callgsubr
          endchar
        </CharString>
        <CharString name="Gcircumflex">
          41 194 749 -107 callgsubr
          271 -339 -79 callgsubr
          endchar
        </CharString>
        <CharString name="Gcommaaccent">
          41 465 410 -79 callgsubr
          -146 -461 rmoveto
          -20 hlineto
          -41 -17 -17 -27 hvcurveto
          -80 -10 -25 -18 vvcurveto
          -16 26 -6 18 29 60 78 67 25 -12 19 -33 vhcurveto
          endchar
        </CharString>
        <CharString name="Gdotaccent">
          41 300 755 -105 callsubr
          165 -345 -79 callgsubr
          endchar
        </CharString>
        <CharString name="H">
          89 115 -2 -56 callgsubr
          endchar
        </CharString>
        <CharString name="Hbar">
          75 549 571 rmoveto
          -7 99 18 callgsubr
          -41 -88 callsubr
          -99 -171 99 -54 callgsubr
          -40 vhcurveto
          -42 -88 callsubr
          -99 -16 vlineto
          -20 -9 -23 callsubr
          -15 vlineto
          -28 9 -12 20 vhcurveto
          16 -446 hlineto
          -64 callsubr
          42 4 callsubr
          261 171 -261 -71 callsubr
          1 callgsubr
          446 7 vlineto
          21 8 12 -11 callgsubr
          vlineto
          28 -8 12 -21 vhcurveto
          -164 -148 rmoveto
          -171 53 171 hlineto
          endchar
        </CharString>
        <CharString name="Hcircumflex">
          89 196 749 -107 callgsubr
          -81 -751 -56 callgsubr
          endchar
        </CharString>
        <CharString name="I">
          -249 110 -3 rmoveto
          -82 callgsubr
          endchar
        </CharString>
        <CharString name="IJ">
          106 110 -3 rmoveto
          -82 callgsubr
          274 -5 -69 callsubr
          endchar
        </CharString>
        <CharString name="Iacute">
          -249 110 752 rmoveto
          -105 callgsubr
          -755 vmoveto
          -82 callgsubr
          endchar
        </CharString>
        <CharString name="Iacute_J.loclNLD">
          106 110 752 rmoveto
          -105 callgsubr
          354 hmoveto
          -105 callgsubr
          -354 -755 rmoveto
          -82 callgsubr
          274 -5 -69 callsubr
          endchar
        </CharString>
        <CharString name="Ibreve">
          -249 130 752 -100 callgsubr
          -20 -755 rmoveto
          -82 callgsubr
          endchar
        </CharString>
        <CharString name="Icircumflex">
          -249 27 749 -107 callgsubr
          83 -752 rmoveto
          -82 callgsubr
          endchar
        </CharString>
        <CharString name="Idieresis">
          -249 52 755 -102 callsubr
          -104 -758 rmoveto
          -82 callgsubr
          endchar
        </CharString>
        <CharString name="Idotaccent">
          -249 133 755 -105 callsubr
          -23 -758 rmoveto
          -82 callgsubr
          endchar
        </CharString>
        <CharString name="Igrave">
          -249 146 752 -99 callgsubr
          -36 -755 rmoveto
          -82 callgsubr
          endchar
        </CharString>
        <CharString name="Imacron">
          -249 35 774 -84 callgsubr
          75 -777 rmoveto
          -82 callgsubr
          endchar
        </CharString>
        <CharString name="Iogonek">
          -249 261 -99 rmoveto
          -31 callsubr
          21 5 26 12 26 hvcurveto
          3 5 1 5 6 vvcurveto
          -12 callsubr
          12 2 callsubr
          -41 -17 -12 -23 callgsubr
          -12 41 vhcurveto
          27 hlineto
          -12 -30 -4 -28 -17 -68 callgsubr
          endchar
        </CharString>
        <CharString name="Itilde">
          -249 1 757 rmoveto
          -106 callsubr
          120 -763 rmoveto
          -82 callgsubr
          endchar
        </CharString>
        <CharString name="J">
          -156 122 -8 -69 callsubr
          endchar
        </CharString>
        <CharString name="Jcircumflex">
          -156 119 749 -107 callgsubr
          3 -757 -69 callsubr
          endchar
        </CharString>
        <CharString name="K">
          -45 callsubr
          endchar
        </CharString>
        <CharString name="Kcommaaccent">
          -45 callsubr
          -282 -274 -82 callsubr
          endchar
        </CharString>
        <CharString name="L">
          -103 94 hmoveto
          -70 callsubr
          endchar
        </CharString>
        <CharString name="Lacute">
          -103 116 752 rmoveto
          -105 callgsubr
          -22 -752 rmoveto
          -70 callsubr
          endchar
        </CharString>
        <CharString name="Lcaron">
          -103 94 hmoveto
          -70 callsubr
          212 511 -48 callgsubr
          endchar
        </CharString>
        <CharString name="Lcommaaccent">
          -103 94 hmoveto
          -70 callsubr
          93 -240 -82 callsubr
          endchar
        </CharString>
        <CharString name="Ldot">
          -103 94 hmoveto
          -70 callsubr
          221 289 -8 callgsubr
        </CharString>
        <CharString name="Lslash">
          -103 362 131 rmoveto
          -149 269 hlineto
          58 35 rlineto
          18 11 8 14 21 vvcurveto
          20 vlineto
          13 -4 7 -7 -4 -5 -2 -4 -6 vhcurveto
          -58 -35 rlineto
          190 vlineto
          21 -17 11 -41 -63 callsubr
          -286 vlineto
          -25 -15 rlineto
          -18 -11 -8 -12 -22 vvcurveto
          -20 vlineto
          -14 3 -6 8 4 5 1 4 6 vhcurveto
          25 15 rlineto
          -264 vlineto
          -9 callgsubr
          26 vhcurveto
          268 hlineto
          21 9 15 35 hvcurveto
          31 -29 callgsubr
          endchar
        </CharString>
        <CharString name="M">
          178 335 223 rmoveto
          17 hlineto
          21 10 7 17 9 hvcurveto
          74 138 8 15 8 16 6 16 rlinecurve
          4 -1 rlineto
          -4 -18 -3 -19 -18 vvcurveto
          -346 vlineto
          -22 17 -10 -13 callsubr
          10 22 hvcurveto
          640 vlineto
          22 -17 10 -41 vhcurveto
          -31 hlineto
          -32 -17 -8 -20 -11 hvcurveto
          -124 -235 -8 -15 -6 -17 -4 -16 rlinecurve
          -5 16 -6 17 -8 15 -124 235 rcurveline
          20 -11 -17 8 -32 hhcurveto
          -31 hlineto
          -41 -17 -10 -22 8 callgsubr
          -22 17 -10 -13 callsubr
          10 22 hvcurveto
          346 vlineto
          18 -3 19 -3 18 vhcurveto
          4 1 7 -16 6 -16 8 -15 rlinecurve
          74 -138 rlineto
          -17 9 10 -7 21 hhcurveto
          endchar
        </CharString>
        <CharString name="N">
          79 -47 callsubr
          endchar
        </CharString>
        <CharString name="Nacute">
          79 274 752 rmoveto
          -105 callgsubr
          -164 -754 -101 callgsubr
          endchar
        </CharString>
        <CharString name="Nacute.loclPLK">
          79 276 752 -81 callgsubr
          -166 -754 -101 callgsubr
          endchar
        </CharString>
        <CharString name="Ncaron">
          79 291 749 -104 callsubr
          -181 -751 -101 callgsubr
          endchar
        </CharString>
        <CharString name="Ncommaaccent">
          79 -47 callsubr
          157 -238 -82 callsubr
          endchar
        </CharString>
        <CharString name="Ntilde">
          79 165 757 rmoveto
          -106 callsubr
          -44 -762 -101 callgsubr
          endchar
        </CharString>
        <CharString name="O">
          88 300 -8 -102 callgsubr
          endchar
        </CharString>
        <CharString name="OE">
          312 754 131 rmoveto
          -194 162 172 hlineto
          21 2 callgsubr
          -21 vhcurveto
          -172 145 193 hlineto
          20 2 callgsubr
          -20 vhcurveto
          -312 hlineto
          -24 -11 -10 -21 -2 hvcurveto
          28 -37 -37 11 -47 hhcurveto
          -153 -93 -109 -249 -248 93 -110 153 45 38 10 28 39 hvcurveto
          -21 2 11 -9 23 hhcurveto
          313 hlineto
          19 9 -78 callsubr
          -9 15 -19 vhcurveto
          -453 -8 rmoveto
          -69 -35 51 176 176 35 50 69 68 34 -50 -176 -176 -34 -51 -68 hvcurveto
          endchar
        </CharString>
        <CharString name="Oacute">
          88 279 752 rmoveto
          -105 callgsubr
          21 -760 -102 callgsubr
          endchar
        </CharString>
        <CharString name="Oacute.loclPLK">
          88 281 752 -81 callgsubr
          19 -760 -102 callgsubr
          endchar
        </CharString>
        <CharString name="Obreve">
          88 299 752 -100 callgsubr
          1 -760 -102 callgsubr
          endchar
        </CharString>
        <CharString name="Ocircumflex">
          88 196 749 -107 callgsubr
          104 -757 -102 callgsubr
          endchar
        </CharString>
        <CharString name="Odieresis">
          88 221 755 -102 callsubr
          -83 -763 -102 callgsubr
          endchar
        </CharString>
        <CharString name="Ograve">
          88 315 752 -99 callgsubr
          -15 -760 -102 callgsubr
          endchar
        </CharString>
        <CharString name="Ohorn">
          88 300 -8 -87 callgsubr
        </CharString>
        <CharString name="Ohungarumlaut">
          88 191 752 -83 callsubr
          -56 -760 -102 callgsubr
          endchar
        </CharString>
        <CharString name="Omacron">
          88 204 774 -84 callgsubr
          96 -782 -102 callgsubr
          endchar
        </CharString>
        <CharString name="Oslash">
          88 505 605 -57 callgsubr
        </CharString>
        <CharString name="Oslashacute">
          88 279 752 rmoveto
          -105 callgsubr
          226 -147 -57 callgsubr
        </CharString>
        <CharString name="Otilde">
          88 170 757 rmoveto
          -106 callsubr
          141 -768 -102 callgsubr
          endchar
        </CharString>
        <CharString name="P">
          115 -2 -1 callsubr
          232 69 10 callgsubr
          -173 hlineto
          -28 -12 -23 callsubr
          -630 -58 callgsubr
          93 393 rmoveto
          178 53 vlineto
          25 32 -16 -72 -74 -32 -16 -25 hvcurveto
          endchar
        </CharString>
        <CharString name="Q">
          88 517 -159 rmoveto
          32 33 79 15 2 hvcurveto
          7 -3 7 -9 4 vhcurveto
          -139 69 rlineto
          4 vlineto
          83 48 45 104 172 vvcurveto
          250 -94 108 -167 -166 -96 -107 -251 -183 50 -104 95 -47 vhcurveto
          -139 288 32 -36 14 hhcurveto
          -216 280 rmoveto
          -69 -35 49 180 178 35 48 69 68 34 -48 -178 -180 -34 -49 -68 hvcurveto
          endchar
        </CharString>
        <CharString name="R">
          2 114 -2 -46 callsubr
        </CharString>
        <CharString name="Racute">
          2 230 752 rmoveto
          -105 callgsubr
          -116 -754 -46 callsubr
        </CharString>
        <CharString name="Rcaron">
          2 247 749 -104 callsubr
          -133 -751 -46 callsubr
        </CharString>
        <CharString name="Rcommaaccent">
          2 114 -2 -87 callsubr
          -30 -642 -82 callsubr
          endchar
        </CharString>
        <CharString name="S">
          -47 callgsubr
          endchar
        </CharString>
        <CharString name="Sacute">
          -74 197 752 rmoveto
          -105 callgsubr
          9 -760 -95 callgsubr
          endchar
        </CharString>
        <CharString name="Sacute.loclPLK">
          -74 199 752 -81 callgsubr
          7 -760 -95 callgsubr
          endchar
        </CharString>
        <CharString name="Scaron">
          -74 214 749 -104 callsubr
          -8 -757 -95 callgsubr
          endchar
        </CharString>
        <CharString name="Scedilla">
          -74 424 201 rmoveto
          105 -43 51 -87 51 vhcurveto
          -53 31 -51 17 64 vvcurveto
          22 10 34 60 14 17 -2 -13 34 vhcurveto
          -5 13 10 -3 6 hhcurveto
          24 16 54 30 15 -6 11 -12 9 hvcurveto
          21 -28 -58 15 -45 hhcurveto
          -124 -86 -70 -122 -114 50 -53 94 -53 hvcurveto
          49 -27 43 -22 -58 vvcurveto
          -54 -44 -12 -33 -19 -23 6 14 -27 vhcurveto
          13 -24 -16 11 -11 hhcurveto
          -27 -22 -54 -34 1 hvcurveto
          -12 5 -11 8 -10 vhcurveto
          28 -31 62 -19 58 -3 rrcurveto
          -17 -46 -6 -18 -8 -73 callgsubr
          13 44 rlineto
          118 18 53 91 96 vvcurveto
          endchar
        </CharString>
        <CharString name="Scircumflex">
          -74 114 749 -107 callgsubr
          92 -757 -95 callgsubr
          endchar
        </CharString>
        <CharString name="Scommaaccent">
          -47 callgsubr
          -16 -232 -82 callsubr
          endchar
        </CharString>
        <CharString name="T">
          -57 206 -2 -61 callgsubr
          endchar
        </CharString>
        <CharString name="Tbar">
          -72 417 700 rmoveto
          -380 hlineto
          16 callgsubr
          111 -171 -67 hlineto
          -20 -9 -23 callsubr
          -15 vlineto
          -28 9 -12 20 vhcurveto
          67 -273 hlineto
          -64 callsubr
          1 callgsubr
          273 56 vlineto
          21 8 12 -11 callgsubr
          vlineto
          28 -8 12 -21 vhcurveto
          -56 171 112 hlineto
          21 9 15 35 hvcurveto
          31 -29 callgsubr
          endchar
        </CharString>
        <CharString name="Tcaron">
          -57 223 749 -104 callsubr
          -17 -751 -61 callgsubr
          endchar
        </CharString>
        <CharString name="Thorn">
          113 -2 rmoveto
          40 hlineto
          40 -41 callgsubr
          123 67 10 callgsubr
          -57 79 hlineto
          6 callgsubr
          vhcurveto
          -40 -64 callgsubr
          98 284 rmoveto
          178 50 vlineto
          26 31 -16 -72 -74 -31 -16 -26 hvcurveto
          endchar
        </CharString>
        <CharString name="U">
          72 292 -8 rmoveto
          150 90 78 135 hvcurveto
          465 -67 callgsubr
          -39 -99 callsubr
          vhcurveto
          endchar
        </CharString>
        <CharString name="Uacute">
          72 271 752 rmoveto
          -105 callgsubr
          21 -760 rmoveto
          150 90 78 135 hvcurveto
          465 -67 callgsubr
          -39 -99 callsubr
          vhcurveto
          endchar
        </CharString>
        <CharString name="Ubreve">
          72 291 752 -100 callgsubr
          1 -760 rmoveto
          150 90 78 135 hvcurveto
          465 -67 callgsubr
          -39 -99 callsubr
          vhcurveto
          endchar
        </CharString>
        <CharString name="Ucircumflex">
          72 188 749 -107 callgsubr
          104 -757 rmoveto
          150 90 78 135 hvcurveto
          465 -67 callgsubr
          -39 -99 callsubr
          vhcurveto
          endchar
        </CharString>
        <CharString name="Udieresis">
          72 213 755 -102 callsubr
          -83 -763 rmoveto
          150 90 78 135 hvcurveto
          465 -67 callgsubr
          -39 -99 callsubr
          vhcurveto
          endchar
        </CharString>
        <CharString name="Ugrave">
          72 307 752 -99 callgsubr
          -15 -760 rmoveto
          150 90 78 135 hvcurveto
          465 -67 callgsubr
          -39 -99 callsubr
          vhcurveto
          endchar
        </CharString>
        <CharString name="Uhorn">
          59 601 753 -89 callsubr
          endchar
        </CharString>
        <CharString name="Uhungarumlaut">
          72 183 752 -83 callsubr
          -56 -760 rmoveto
          150 90 78 135 hvcurveto
          465 -67 callgsubr
          -39 -99 callsubr
          vhcurveto
          endchar
        </CharString>
        <CharString name="Umacron">
          72 196 774 -84 callgsubr
          96 -782 rmoveto
          150 90 78 135 hvcurveto
          465 -67 callgsubr
          -39 -99 callsubr
          vhcurveto
          endchar
        </CharString>
        <CharString name="Uogonek">
          72 532 205 rmoveto
          465 -67 callgsubr
          -39 -99 callsubr
          27 25 2 5 22 vhcurveto
          -9 -26 -3 -24 -2 callsubr
          -31 callsubr
          21 5 26 11 26 hvcurveto
          61 35 34 61 83 vvcurveto
          endchar
        </CharString>
        <CharString name="Uring">
          72 290 727 -73 callsubr
          1 -797 rmoveto
          150 90 78 135 hvcurveto
          465 -67 callgsubr
          -39 -99 callsubr
          vhcurveto
          endchar
        </CharString>
        <CharString name="Utilde">
          72 162 757 rmoveto
          -106 callsubr
          141 -768 rmoveto
          150 90 78 135 hvcurveto
          465 -67 callgsubr
          -39 -99 callsubr
          vhcurveto
          endchar
        </CharString>
        <CharString name="V">
          -3 213 -2 rmoveto
          80 hlineto
          28 21 5 16 4 hvcurveto
          152 643 rlineto
          2 7 1 6 5 vvcurveto
          14 -18 8 -39 vhcurveto
          -37 hlineto
          -28 -23 -7 -22 -4 hvcurveto
          -90 -452 -9 -69 rlineto
          -4 hlineto
          -9 69 -85 452 rlineto
          22 -4 -23 7 -28 hhcurveto
          -38 hlineto
          -39 -19 -8 -14 -5 2 -6 2 -7 hvcurveto
          152 -643 -49 callsubr
          endchar
        </CharString>
        <CharString name="W">
          241 184 -2 -93 callsubr
        </CharString>
        <CharString name="Wacute">
          241 355 752 rmoveto
          -105 callgsubr
          -171 -754 -93 callsubr
        </CharString>
        <CharString name="Wcircumflex">
          241 272 749 -107 callgsubr
          -88 -751 -93 callsubr
        </CharString>
        <CharString name="Wdieresis">
          241 297 755 -102 callsubr
          -275 -757 -93 callsubr
        </CharString>
        <CharString name="Wgrave">
          241 391 752 -99 callgsubr
          -207 -754 -93 callsubr
        </CharString>
        <CharString name="X">
          -5 67 -2 rmoveto
          45 hlineto
          29 19 0 20 7 hvcurveto
          90 254 82 -255 rlineto
          -15 5 23 -4 27 hhcurveto
          43 hlineto
          40 19 7 12 7 -4 7 -4 11 hvcurveto
          -137 321 136 295 rlineto
          5 11 3 8 6 vvcurveto
          12 -20 7 -39 vhcurveto
          -47 hlineto
          -29 -21 -2 -18 -6 hvcurveto
          -76 -235 -70 236 rlineto
          16 -5 -23 3 -26 hhcurveto
          -47 hlineto
          -40 -20 -8 -11 -7 4 -8 5 -10 hvcurveto
          126 -293 -145 -323 rlineto
          -5 -12 -3 -7 -6 vvcurveto
          -12 18 -7 41 vhcurveto
          endchar
        </CharString>
        <CharString name="Y">
          -27 223 -2 -90 callsubr
        </CharString>
        <CharString name="Y.loclGUA">
          -13 392 701 -96 callgsubr
          endchar
        </CharString>
        <CharString name="Yacute">
          -27 221 752 rmoveto
          -105 callgsubr
          2 -754 -90 callsubr
        </CharString>
        <CharString name="Yacute.loclGUA">
          -13 223 752 rmoveto
          -105 callgsubr
          169 -51 -96 callgsubr
          endchar
        </CharString>
        <CharString name="Ycircumflex">
          -27 138 749 -107 callgsubr
          85 -751 -90 callsubr
        </CharString>
        <CharString name="Ycircumflex.loclGUA">
          -13 140 749 -107 callgsubr
          252 -48 -96 callgsubr
          endchar
        </CharString>
        <CharString name="Ydieresis">
          -27 163 755 -102 callsubr
          -102 -757 -90 callsubr
        </CharString>
        <CharString name="Ydieresis.loclGUA">
          -13 165 755 -102 callsubr
          65 -54 -96 callgsubr
          endchar
        </CharString>
        <CharString name="Ygrave">
          -27 257 752 -99 callgsubr
          -34 -754 -90 callsubr
        </CharString>
        <CharString name="Ygrave.loclGUA">
          -13 259 752 -99 callgsubr
          133 -51 -96 callgsubr
          endchar
        </CharString>
        <CharString name="Z">
          -4 62 -57 callsubr
          endchar
        </CharString>
        <CharString name="Zacute">
          -4 235 752 rmoveto
          -105 callgsubr
          -173 -752 rmoveto
          -91 callsubr
          endchar
        </CharString>
        <CharString name="Zacute.loclPLK">
          -4 237 752 -81 callgsubr
          -175 -752 rmoveto
          -91 callsubr
          endchar
        </CharString>
        <CharString name="Zcaron">
          -4 252 749 -104 callsubr
          -190 -749 rmoveto
          -91 callsubr
          endchar
        </CharString>
        <CharString name="Zdotaccent">
          -4 258 755 -105 callsubr
          -196 -755 rmoveto
          -91 callsubr
          endchar
        </CharString>
        <CharString name="a">
          -30 175 -8 -104 callgsubr
        </CharString>
        <CharString name="aacute">
          -30 214 575 rmoveto
          -105 callgsubr
          -39 -41 callsubr
        </CharString>
        <CharString name="abreve">
          -30 234 575 -92 callgsubr
        </CharString>
        <CharString name="acircumflex">
          -30 131 572 -107 callgsubr
          44 -580 -104 callgsubr
        </CharString>
        <CharString name="acute">
          -255 62 575 rmoveto
          -105 callgsubr
          endchar
        </CharString>
        <CharString name="acute.loclPLK">
          -255 67 575 -81 callgsubr
          endchar
        </CharString>
        <CharString name="acutecomb">
          -511 -21 575 rmoveto
          -105 callgsubr
          endchar
        </CharString>
        <CharString name="adieresis">
          -30 156 578 -102 callsubr
          -143 -586 -104 callgsubr
        </CharString>
        <CharString name="ae">
          153 171 -8 -60 callsubr
        </CharString>
        <CharString name="aeacute">
          153 317 575 rmoveto
          -105 callgsubr
          -146 -583 -60 callsubr
        </CharString>
        <CharString name="agrave">
          -30 250 575 -99 callgsubr
          -75 -41 callsubr
        </CharString>
        <CharString name="amacron">
          -30 139 597 -84 callgsubr
          36 -605 -104 callgsubr
        </CharString>
        <CharString name="ampersand">
          9 491 113 rmoveto
          -4 -5 -4 -9 hhcurveto
          -15 -1 13 30 hvcurveto
          157 22 vlineto
          -24 callgsubr
          17 -30 callsubr
          -22 95 hlineto
          21 -15 11 -35 vhcurveto
          -35 hlineto
          -33 -19 -11 -21 -2 hvcurveto
          -12 -95 rlineto
          -63 hlineto
          -36 -31 33 50 49 14 33 29 hvcurveto
          17 12 -7 7 hhcurveto
          14 20 34 48 27 -57 15 -43 -104 -62 -68 -107 -69 24 -53 46 -24 hvcurveto
          -4 vlineto
          -73 -30 -15 -67 -82 vvcurveto
          -133 59 -79 124 65 32 12 28 56 vhcurveto
          -27 19 25 -13 47 hhcurveto
          27 61 3 46 8 -11 64 -18 hvcurveto
          -335 93 rmoveto
          66 13 37 64 vhcurveto
          73 -176 hlineto
          -19 -42 -23 -5 -28 hhcurveto
          -47 -10 35 62 hvcurveto
          endchar
        </CharString>
        <CharString name="aogonek">
          -30 487 -83 rmoveto
          -31 callsubr
          19 4 24 10 23 hvcurveto
          2 3 1 2 3 21 -12 21 103 vvcurveto
          182 vlineto
          101 -52 72 -146 -79 -82 -31 -35 -21 31 -59 21 vhcurveto
          14 32 29 52 hhcurveto
          43 18 -21 -42 hvcurveto
          -16 vlineto
          -206 1 -27 -111 -76 vvcurveto
          -95 47 -62 90 58 36 35 23 14 vhcurveto
          -29 7 5 -22 24 hhcurveto
          8 15 1 2 17 hvcurveto
          -9 -26 -3 -23 -2 callsubr
          -216 215 rmoveto
          -20 -10 -20 -13 -21 hhcurveto
          -32 -17 25 36 52 26 37 74 hvcurveto
          endchar
        </CharString>
        <CharString name="approxequal">
          -73 76 277 -38 callgsubr
          8 -193 -38 callgsubr
          endchar
        </CharString>
        <CharString name="aring">
          -30 233 -35 callgsubr
          -59 -620 -104 callgsubr
        </CharString>
        <CharString name="aringacute">
          -30 214 770 rmoveto
          -105 callgsubr
          19 -220 -73 callsubr
          -59 -620 -104 callgsubr
        </CharString>
        <CharString name="arrowdown">
          -6 253 17 rmoveto
          8 5 2 5 5 hvcurveto
          208 210 rlineto
          15 15 6 15 21 vvcurveto
          86 vlineto
          12 -2 7 -5 -3 -5 -4 -6 -6 vhcurveto
          -173 -176 rlineto
          470 vlineto
          21 -13 11 -31 vhcurveto
          -19 hlineto
          -31 -13 -11 -21 hvcurveto
          -470 vlineto
          -172 175 rlineto
          6 -6 -5 4 -3 hhcurveto
          -5 -2 -7 -12 hvcurveto
          -86 vlineto
          -21 6 -15 15 -15 vhcurveto
          208 -209 rlineto
          -5 5 5 -2 8 hhcurveto
          endchar
        </CharString>
        <CharString name="arrowleft">
          89 248 -1 rmoveto
          57 hlineto
          21 10 2 8 5 -5 8 -11 14 hvcurveto
          -150 174 rlineto
          384 hlineto
          21 11 13 31 hvcurveto
          19 vlineto
          31 -11 13 -21 vhcurveto
          -383 hlineto
          147 172 rlineto
          12 15 5 8 5 vvcurveto
          7 -9 3 -22 vhcurveto
          -57 hlineto
          -24 -14 -7 -15 -13 hvcurveto
          -188 -223 rlineto
          -4 -6 -3 -4 -8 vvcurveto
          -8 3 -5 4 -5 vhcurveto
          189 -225 rlineto
          -15 12 14 -7 25 hhcurveto
          endchar
        </CharString>
        <CharString name="arrowright">
          89 296 -1 rmoveto
          57 hlineto
          24 14 7 15 13 hvcurveto
          188 225 rlineto
          5 5 2 5 8 vvcurveto
          8 -2 4 -5 6 vhcurveto
          -188 223 rlineto
          15 -13 -14 7 -24 hhcurveto
          -57 hlineto
          -22 -9 -3 -7 -5 5 -8 12 -15 hvcurveto
          147 -172 rlineto
          -383 hlineto
          -21 -11 -13 -31 hvcurveto
          -19 vlineto
          -31 11 -13 21 vhcurveto
          384 hlineto
          -150 -174 rlineto
          -11 -14 -4 -8 -5 vvcurveto
          -8 9 -2 22 vhcurveto
          endchar
        </CharString>
        <CharString name="arrowup">
          -6 243 -2 rmoveto
          19 hlineto
          31 13 -66 callgsubr
          492 vlineto
          172 -176 rlineto
          -6 6 5 -4 3 hhcurveto
          5 2 7 12 hvcurveto
          87 vlineto
          21 -6 15 -15 15 vhcurveto
          -208 209 rlineto
          5 -5 -5 2 -8 hhcurveto
          -8 -5 -2 -5 -5 hvcurveto
          -208 -210 rlineto
          -15 -15 -6 -15 -21 vvcurveto
          -86 vlineto
          -12 2 -7 5 3 5 4 6 6 vhcurveto
          173 177 rlineto
          -493 vlineto
          -21 13 -11 31 vhcurveto
          endchar
        </CharString>
        <CharString name="asciicircum">
          -151 47 318 rmoveto
          26 hlineto
          25 16 9 21 6 hvcurveto
          60 207 60 -207 rlineto
          -21 7 17 -9 25 hhcurveto
          25 hlineto
          21 7 6 9 4 -1 5 -2 6 hvcurveto
          -106 308 rlineto
          21 -7 -12 9 -18 hhcurveto
          -31 hlineto
          -18 -12 -9 -21 -7 hvcurveto
          -106 -308 rlineto
          -2 -6 -35 callsubr
          8 -6 20 vhcurveto
          endchar
        </CharString>
        <CharString name="asciitilde">
          -74 75 215 rmoveto
          -1 5 6 -1 5 hhcurveto
          13 9 6 11 10 hvcurveto
          15 13 10 1 7 hhcurveto
          -1 33 65 -28 40 hhcurveto
          52 39 33 37 16 hvcurveto
          1 4 2 4 7 vvcurveto
          11 -7 10 -19 5 vhcurveto
          -13 3 rlineto
          1 -5 -5 1 -6 hhcurveto
          -15 -9 -7 -10 -9 hvcurveto
          -15 -13 -9 -1 -8 hhcurveto
          1 -32 -65 28 -40 hhcurveto
          -53 -37 -31 -38 -16 hvcurveto
          -4 -44 callsubr
          6 -12 21 -5 vhcurveto
          endchar
        </CharString>
        <CharString name="asterisk">
          -212 79 412 rmoveto
          7 1 9 4 7 12 45 72 rcurveline
          45 -72 7 -11 8 -5 8 -1 rlinecurve
          13 20 14 12 1 hvcurveto
          7 -2 7 -7 10 vhcurveto
          -48 78 64 24 rlineto
          14 6 8 6 11 vvcurveto
          18 -11 19 -18 -4 -4 0 -3 -8 vhcurveto
          -56 -21 rlineto
          78 vlineto
          21 -9 9 -21 -21 -9 -9 -21 vhcurveto
          -78 vlineto
          -57 21 rlineto
          3 -7 -5 0 -4 hhcurveto
          -21 -7 -23 -14 -11 8 -6 14 -6 hvcurveto
          63 -24 -47 -78 -7 -10 -3 -7 1 -7 rlinecurve
          -12 20 -14 14 vhcurveto
          endchar
        </CharString>
        <CharString name="at">
          281 441 708 rmoveto
          -217 -169 -204 -265 -214 111 -148 162 43 98 11 39 23 -5 10 -9 hvcurveto
          -18 -32 -29 -71 hhcurveto
          -130 -85 124 182 236 141 181 179 134 90 -106 -168 -127 -49 -112 -54 -19 -9 13 20 hvcurveto
          26 26 269 10 vvcurveto
          13 -12 11 -35 vhcurveto
          -12 hlineto
          -35 -7 -10 -27 -8 hvcurveto
          17 -15 -30 25 -39 hhcurveto
          -92 -64 -108 -161 -118 45 -63 66 43 34 26 34 18 hvcurveto
          -35 13 34 -25 51 hhcurveto
          122 92 145 180 196 -114 129 -172 hvcurveto
          -30 -518 rmoveto
          -16 -11 -13 -15 -17 hhcurveto
          -24 -12 19 69 107 23 56 38 14 11 -8 -10 9 hvcurveto
          -10 -59 -6 -91 -2 -52 rrcurveto
          endchar
        </CharString>
        <CharString name="atilde">
          -30 105 580 rmoveto
          -106 callsubr
          81 -591 -104 callgsubr
        </CharString>
        <CharString name="b">
          295 -8 rmoveto
          90 62 96 172 176 -61 95 -105 -39 -27 -15 -15 -17 hvcurveto
          221 -98 callsubr
          -692 -58 callgsubr
          12 hlineto
          30 19 4 22 6 hvcurveto
          8 38 rlineto
          -40 21 42 -30 47 hhcurveto
          -49 121 rmoveto
          -21 -15 15 19 -12 hvcurveto
          252 vlineto
          8 10 14 7 18 hhcurveto
          38 19 -33 -120 -110 -16 -38 -35 hvcurveto
          endchar
        </CharString>
        <CharString name="backslash">
          -222 208 -22 rmoveto
          39 hlineto
          24 13 9 14 4 -1 4 -4 26 hvcurveto
          -159 636 rlineto
          21 -5 -16 10 -26 hhcurveto
          -36 hlineto
          -25 -12 -9 -14 -1 hvcurveto
          -4 1 -3 3 -20 vhcurveto
          158 -643 rlineto
          -21 5 17 -10 25 hhcurveto
          endchar
        </CharString>
        <CharString name="bar">
          -311 94 -138 rmoveto
          14 hlineto
          38 15 9 21 hvcurveto
          846 vlineto
          21 -15 9 -38 vhcurveto
          -14 hlineto
          -37 -16 -9 -21 hvcurveto
          -846 vlineto
          -21 16 -9 37 vhcurveto
          endchar
        </CharString>
        <CharString name="braceleft">
          -262 176 -138 rmoveto
          39 hlineto
          21 9 12 28 hvcurveto
          14 vlineto
          27 -9 12 -19 1 vhcurveto
          -1 hlineto
          -17 -7 12 24 hvcurveto
          187 vlineto
          66 -20 48 -37 22 vhcurveto
          37 22 20 48 66 vvcurveto
          187 vlineto
          26 8 10 21 vhcurveto
          -2 hlineto
          18 1 8 13 26 vvcurveto
          14 vlineto
          28 -9 12 -21 vhcurveto
          -39 hlineto
          -58 -41 -48 -68 hvcurveto
          -185 vlineto
          -55 -10 -28 -26 -13 vhcurveto
          -19 -11 -10 -13 -26 vvcurveto
          -12 vlineto
          -26 10 -13 19 -11 vhcurveto
          26 -13 10 -28 -55 vvcurveto
          -185 vlineto
          -68 41 -48 58 vhcurveto
          endchar
        </CharString>
        <CharString name="braceright">
          -262 43 -138 rmoveto
          39 hlineto
          58 41 48 68 hvcurveto
          185 vlineto
          55 9 28 27 13 vhcurveto
          19 11 10 13 26 vvcurveto
          12 vlineto
          26 -10 13 -19 11 vhcurveto
          -27 13 -9 28 55 vvcurveto
          185 vlineto
          68 -41 48 -58 vhcurveto
          -39 hlineto
          -21 -9 -23 callsubr
          -14 vlineto
          -26 8 -13 18 -1 vhcurveto
          -1 hlineto
          21 7 -10 -26 hvcurveto
          -187 vlineto
          -66 20 -48 37 -22 vhcurveto
          -37 -22 -20 -48 -66 vvcurveto
          -187 vlineto
          -24 -7 -12 -17 vhcurveto
          -1 hlineto
          -19 -1 -9 -12 -27 vvcurveto
          -14 vlineto
          -28 9 -12 21 vhcurveto
          endchar
        </CharString>
        <CharString name="bracketleft">
          -272 85 -138 rmoveto
          106 hlineto
          21 8 12 -11 callgsubr
          vlineto
          28 -8 12 -21 vhcurveto
          -30 716 30 hlineto
          21 8 12 -11 callgsubr
          vlineto
          28 -8 12 -21 vhcurveto
          -106 hlineto
          -26 -25 callsubr
          -826 vlineto
          -9 callgsubr
          26 vhcurveto
          endchar
        </CharString>
        <CharString name="bracketright">
          -272 49 -138 rmoveto
          106 hlineto
          26 11 12 28 hvcurveto
          826 vlineto
          28 -11 12 -26 vhcurveto
          -106 hlineto
          -20 -9 -23 callsubr
          -15 vlineto
          -28 9 -12 20 vhcurveto
          31 -716 -31 hlineto
          -20 -9 -23 callsubr
          -15 vlineto
          -28 9 -12 20 vhcurveto
          endchar
        </CharString>
        <CharString name="breve">
          -255 126 -79 callsubr
          endchar
        </CharString>
        <CharString name="brokenbar">
          -311 94 380 rmoveto
          -5 callgsubr
          -520 vmoveto
          -5 callgsubr
          endchar
        </CharString>
        <CharString name="bullet">
          -213 149 194 rmoveto
          66 55 42 90 90 -55 43 -66 -67 -54 -43 -90 -90 54 -42 67 hvcurveto
          endchar
        </CharString>
        <CharString name="c">
          -103 246 -8 -81 callsubr
        </CharString>
        <CharString name="cacute">
          -103 207 575 rmoveto
          -105 callgsubr
          39 -583 -81 callsubr
        </CharString>
        <CharString name="cacute.loclPLK">
          -103 209 575 -81 callgsubr
          37 -583 -81 callsubr
        </CharString>
        <CharString name="caron">
          -255 122 572 -104 callsubr
          endchar
        </CharString>
        <CharString name="caron.alt">
          -255 75 511 -48 callgsubr
          endchar
        </CharString>
        <CharString name="ccaron">
          -103 224 572 -104 callsubr
          22 -580 -81 callsubr
        </CharString>
        <CharString name="ccedilla">
          -103 396 61 rmoveto
          22 -22 54 -22 -4 -6 -3 -4 -8 vhcurveto
          -7 -15 -24 -14 -32 hhcurveto
          -51 -27 40 113 112 28 40 53 29 21 -12 -8 15 hvcurveto
          -5 8 6 -3 5 hhcurveto
          20 25 55 21 37 -72 32 -73 -148 -68 -94 -177 -168 62 -86 118 -12 hvcurveto
          -16 -47 -7 -18 -8 -73 callgsubr
          13 43 rlineto
          53 8 63 25 33 vvcurveto
          endchar
        </CharString>
        <CharString name="ccircumflex">
          -103 124 572 -107 callgsubr
          122 -580 -81 callsubr
        </CharString>
        <CharString name="cdotaccent">
          -103 230 -80 callgsubr
          16 -586 -81 callsubr
        </CharString>
        <CharString name="cedilla">
          -255 161 -48 rmoveto
          17 58 rlineto
          -64 hlineto
          -21 -59 -8 -21 -9 -73 callgsubr
          endchar
        </CharString>
        <CharString name="cent">
          -71 396 61 rmoveto
          22 -22 54 -22 -4 -6 -3 -4 -8 vhcurveto
          -7 -15 -24 -14 -32 hhcurveto
          -1 305 4 hlineto
          29 21 -12 -8 15 hvcurveto
          -5 8 6 -3 5 hhcurveto
          20 25 55 21 35 -64 30 -69 4 hvcurveto
          26 vlineto
          21 -9 9 -20 -17 -9 -9 -21 vhcurveto
          -29 vlineto
          -118 -17 -55 -92 -159 vvcurveto
          -164 59 -86 114 -16 vhcurveto
          -42 vlineto
          -21 9 -9 20 17 9 9 21 vhcurveto
          41 vlineto
          56 4 78 27 37 vvcurveto
          -211 201 rmoveto
          58 7 38 15 24 vhcurveto
          -243 vlineto
          -15 24 -7 40 59 vvcurveto
          endchar
        </CharString>
        <CharString name="circumflex">
          -255 22 572 -107 callgsubr
          endchar
        </CharString>
        <CharString name="colon">
          -323 77 369 rmoveto
          -55 callgsubr
          -371 vmoveto
          -55 callgsubr
          endchar
        </CharString>
        <CharString name="comma">
          -323 40 -125 -9 callsubr
        </CharString>
        <CharString name="copyright">
          81 -28 callsubr
          8 96 rmoveto
          23 77 13 34 9 -13 40 -20 hvcurveto
          -6 -22 -23 -39 hhcurveto
          -38 -18 44 84 83 18 42 38 hvcurveto
          41 14 -18 6 hhcurveto
          14 22 37 16 23 -59 16 -36 -97 -48 -66 -133 -138 46 -63 97 hvcurveto
          endchar
        </CharString>
        <CharString name="currency">
          -49 99 72 rmoveto
          9 8 4 8 8 hvcurveto
          19 19 rlineto
          -16 25 29 -9 30 hhcurveto
          31 29 9 18 26 hvcurveto
          20 -21 rlineto
          -8 8 9 -4 8 hhcurveto
          9 8 4 8 8 hvcurveto
          30 30 10 callsubr
          -29 30 rlineto
          12 29 8 32 34 vvcurveto
          36 -8 33 -14 30 vhcurveto
          34 34 10 callsubr
          -30 30 12 callsubr
          -26 -27 rlineto
          16 -25 -28 9 -30 hhcurveto
          -29 -27 -9 -15 -24 hvcurveto
          -26 26 12 callsubr
          -30 -30 13 callsubr
          32 -32 rlineto
          -15 -30 -8 -35 -36 vvcurveto
          -35 8 -33 13 -30 vhcurveto
          -27 -27 13 callsubr
          30 -30 rlineto
          -8 8 9 -4 8 hhcurveto
          128 120 rmoveto
          -35 -28 32 65 65 28 32 35 35 27 -32 -65 -65 -27 -32 -35 hvcurveto
          endchar
        </CharString>
        <CharString name="d">
          -30 -75 callsubr
          50 121 -20 callsubr
        </CharString>
        <CharString name="dagger">
          11 callsubr
          518 95 vlineto
          -16 callgsubr
          -518 hlineto
          -21 12 -11 31 vhcurveto
          endchar
        </CharString>
        <CharString name="daggerdbl">
          11 callsubr
          150 95 vlineto
          21 8 -3 callsubr
          -8 15 -21 vhcurveto
          -95 261 95 hlineto
          -16 callgsubr
          -261 -96 -36 callsubr
          96 -150 hlineto
          -21 12 -11 31 vhcurveto
          endchar
        </CharString>
        <CharString name="dcaron">
          -30 -75 callsubr
          307 519 -48 callgsubr
          -257 -398 -20 callsubr
        </CharString>
        <CharString name="dcroat">
          -44 462 678 rmoveto
          -30 44 hlineto
          21 -18 11 -42 vhcurveto
          -28 hlineto
          -42 -18 -11 -21 hvcurveto
          -44 -57 vlineto
          -24 -12 -23 callsubr
          -15 vlineto
          -28 12 -12 24 vhcurveto
          57 -81 hlineto
          16 -18 -27 13 -37 hhcurveto
          -105 -62 -95 -172 -177 64 -95 86 49 38 30 40 19 hvcurveto
          -26 5 6 -37 30 -17 callgsubr
          407 30 vlineto
          26 9 12 -11 callgsubr
          vlineto
          28 -9 12 -26 vhcurveto
          -178 -525 rmoveto
          -22 -11 -16 -18 -22 hhcurveto
          -34 -16 42 106 112 19 41 39 18 13 -7 -7 10 hvcurveto
          endchar
        </CharString>
        <CharString name="degree">
          -235 137 443 rmoveto
          58 48 39 93 93 -48 40 -58 -58 -48 -40 -93 -93 48 -39 58 hvcurveto
          -1 62 rmoveto
          -22 -19 21 49 49 19 22 22 22 19 -22 -49 -49 -19 -21 -22 hvcurveto
          endchar
        </CharString>
        <CharString name="dieresis">
          -255 49 578 -102 callsubr
          endchar
        </CharString>
        <CharString name="divide">
          -63 217 318 rmoveto
          12 -68 callsubr
          71 -67 callgsubr
          -12 -88 callsubr
          -71 -71 callsubr
          -180 -146 rmoveto
          375 hlineto
          18 -15 callsubr
          -18 vhcurveto
          -375 hlineto
          -26 callsubr
          180 -174 rmoveto
          12 -68 callsubr
          71 -67 callgsubr
          -12 -88 callsubr
          -71 -71 callsubr
          endchar
        </CharString>
        <CharString name="dollar">
          -71 211 -75 rmoveto
          17 hlineto
          12 8 6 14 hvcurveto
          50 vlineto
          110 24 62 77 107 vvcurveto
          135 -92 40 -69 34 vhcurveto
          -11 5 1 159 17 -1 16 -4 27 -9 rlinecurve
          -3 10 12 -4 9 hhcurveto
          28 11 60 30 -4 hvcurveto
          -1 14 -10 12 -16 9 -26 15 -39 9 -35 3 rrcurveto
          38 vlineto
          14 -2 -4 6 -14 hhcurveto
          -17 hlineto
          -14 -7 -6 -14 1 hvcurveto
          -39 vlineto
          -106 -12 -66 -75 -107 vvcurveto
          -138 84 -46 89 -37 vhcurveto
          -1 -168 -39 1 -25 12 -39 20 rlinecurve
          4 -8 -6 3 -6 hhcurveto
          -28 -17 -62 -35 4 hvcurveto
          3 -27 37 -20 32 -11 27 -9 31 -6 34 -1 rrcurveto
          -47 vlineto
          -14 2 3 -6 15 hhcurveto
          -20 520 rmoveto
          -19 12 -17 23 -1 28 -1 16 2 28 36 16 rrcurveto
          57 -435 rmoveto
          128 vlineto
          19 -11 20 -14 -38 vvcurveto
          -30 -15 -24 -24 -11 vhcurveto
          endchar
        </CharString>
        <CharString name="dotaccent">
          -255 131 -80 callgsubr
          endchar
        </CharString>
        <CharString name="dotbelowcomb">
          -511 7 -204 -105 callsubr
          endchar
        </CharString>
        <CharString name="dotlessi">
          -257 113 -2 -75 callgsubr
        </CharString>
        <CharString name="e">
          -57 260 -8 -103 callsubr
          endchar
        </CharString>
        <CharString name="eacute">
          -57 210 575 rmoveto
          -105 callgsubr
          50 -583 -103 callsubr
          endchar
        </CharString>
        <CharString name="ebreve">
          -57 230 -79 callsubr
          30 -583 -103 callsubr
          endchar
        </CharString>
        <CharString name="ecaron">
          -57 227 572 -104 callsubr
          33 -580 -103 callsubr
          endchar
        </CharString>
        <CharString name="ecircumflex">
          -57 127 572 -107 callgsubr
          133 -580 -103 callsubr
          endchar
        </CharString>
        <CharString name="edieresis">
          -57 152 578 -102 callsubr
          -54 -586 -103 callsubr
          endchar
        </CharString>
        <CharString name="edotaccent">
          -57 233 -80 callgsubr
          27 -586 -103 callsubr
          endchar
        </CharString>
        <CharString name="egrave">
          -57 246 575 -99 callgsubr
          14 -583 -103 callsubr
          endchar
        </CharString>
        <CharString name="eight">
          -52 234 -8 rmoveto
          147 56 104 99 100 -43 51 -51 33 hvcurveto
          40 24 42 40 89 vvcurveto
          101 -68 75 -120 -127 -70 -78 -106 -77 34 -42 41 -33 vhcurveto
          -47 -27 -41 -53 -93 vvcurveto
          -111 61 -96 146 vhcurveto
          10 448 rmoveto
          -38 21 -29 25 43 vvcurveto
          42 29 20 30 30 26 -22 -42 -36 -16 -29 -32 -22 vhcurveto
          -11 -331 rmoveto
          -40 -27 28 66 50 17 29 29 23 hvcurveto
          46 -26 39 -29 -61 vvcurveto
          -40 -21 -40 -43 vhcurveto
          endchar
        </CharString>
        <CharString name="ellipsis">
          41 77 -2 rmoveto
          27 -29 callsubr
          -27 -7 callgsubr
          185 hmoveto
          27 -29 callsubr
          -27 -7 callgsubr
          185 hmoveto
          28 4 callsubr
          92 -54 callgsubr
          -40 vhcurveto
          -28 -7 callgsubr
          endchar
        </CharString>
        <CharString name="emacron">
          -57 135 597 -84 callgsubr
          125 -605 -103 callsubr
          endchar
        </CharString>
        <CharString name="emdash">
          375 29 212 rmoveto
          828 -17 callsubr
          -828 -36 callsubr
          endchar
        </CharString>
        <CharString name="endash">
          -68 29 212 rmoveto
          385 -17 callsubr
          -385 -36 callsubr
          endchar
        </CharString>
        <CharString name="eng">
          299 -212 rmoveto
          78 59 53 109 hvcurveto
          442 vlineto
          91 -38 48 -74 -61 -44 -38 -38 -26 vhcurveto
          36 -7 3 31 -34 hhcurveto
          -21 -94 -7 -28 hvcurveto
          -14 10 -26 -98 vvcurveto
          -319 vlineto
          -21 17 -11 40 vhcurveto
          -51 callgsubr
          23 hhcurveto
          29 8 -18 -33 hvcurveto
          -410 vlineto
          -30 -7 -13 -18 vhcurveto
          -11 -13 4 -6 hhcurveto
          -20 -10 -47 -23 -39 35 -12 63 hvcurveto
          endchar
        </CharString>
        <CharString name="eogonek">
          -57 424 -100 rmoveto
          -31 callsubr
          21 5 26 12 26 hvcurveto
          27 12 20 16 21 vvcurveto
          20 -30 56 -22 vhcurveto
          -11 -36 -29 -49 hhcurveto
          -45 -32 22 72 -3 hvcurveto
          190 hlineto
          13 38 42 17 168 -51 101 -135 -122 -86 -65 -208 -172 69 -94 157 11 14 1 2 15 hvcurveto
          -12 -29 -4 -28 -17 -68 callgsubr
          -183 524 rmoveto
          38 14 -38 -94 hvcurveto
          -112 hlineto
          104 5 21 28 34 hhcurveto
          endchar
        </CharString>
        <CharString name="equal">
          -62 54 267 rmoveto
          342 hlineto
          17 -15 callsubr
          -17 vhcurveto
          -342 hlineto
          -26 callsubr
          -181 vmoveto
          342 hlineto
          17 -15 callsubr
          -17 vhcurveto
          -342 hlineto
          -26 callsubr
          endchar
        </CharString>
        <CharString name="estimated">
          104 312 707 rmoveto
          -159 -131 -125 -227 -232 135 -130 163 81 77 39 65 55 hvcurveto
          6 8 4 6 8 vvcurveto
          11 -15 16 -13 -8 -6 -6 -9 -8 vhcurveto
          -52 -38 -74 -31 -61 hhcurveto
          -48 -44 12 25 -37 hvcurveto
          270 402 vlineto
          227 -127 125 -154 vhcurveto
          -121 -85 rmoveto
          23 35 41 12 45 hhcurveto
          42 39 -12 -24 35 hvcurveto
          -216 -237 vlineto
          endchar
        </CharString>
        <CharString name="eth">
          -34 346 606 rmoveto
          46 6 rlineto
          14 2 7 5 9 vvcurveto
          20 -20 22 -17 -3 -28 -4 -5 -37 vhcurveto
          -14 18 -12 15 -14 10 rrcurveto
          7 -11 -12 4 -15 hhcurveto
          -21 -2 -20 -3 -21 -2 rrcurveto
          -13 -2 -6 -4 -6 vvcurveto
          -8 25 -26 13 -17 vhcurveto
          -43 -6 rlineto
          -15 -2 -6 -5 -9 vvcurveto
          -21 19 -21 20 3 3 0 8 55 vhcurveto
          12 -22 11 -20 9 -22 rrcurveto
          1 -6 -6 0 -5 hhcurveto
          -135 -69 -93 -171 -174 70 -96 134 -46 callgsubr
          135 -48 132 -49 77 hvcurveto
          -107 -497 rmoveto
          -40 -15 40 113 109 15 38 40 39 15 -38 -109 -113 -15 -40 -39 hvcurveto
          endchar
        </CharString>
        <CharString name="exclam">
          -265 119 222 rmoveto
          8 hlineto
          43 5 11 21 3 hvcurveto
          51 420 rlineto
          18 -22 10 -36 vhcurveto
          -46 -88 callsubr
          -416 vlineto
          -21 9 -11 43 vhcurveto
          -14 -224 rmoveto
          -55 callgsubr
          endchar
        </CharString>
        <CharString name="exclamdown">
          -265 113 369 rmoveto
          -55 callgsubr
          -34 -549 rmoveto
          46 -68 callsubr
          416 vlineto
          21 -8 11 -43 vhcurveto
          -9 hlineto
          -43 -4 -11 -21 -3 hvcurveto
          -18 -140 -34 -259 -21 vvcurveto
          -18 22 -10 36 vhcurveto
          endchar
        </CharString>
        <CharString name="f">
          -225 125 7 callgsubr
          376 33 vlineto
          -59 callsubr
          -33 77 hlineto
          -74 callgsubr
          endchar
        </CharString>
        <CharString name="f_f">
          61 530 643 rmoveto
          8 13 -5 7 hhcurveto
          20 11 64 8 40 -67 10 -30 -91 -50 -51 -111 hvcurveto
          -75 -138 77 vlineto
          -74 callgsubr
          28 -65 callgsubr
          376 138 -376 -58 callgsubr
          28 -65 callgsubr
          376 33 vlineto
          -59 callsubr
          -33 77 hlineto
          30 9 13 22 vhcurveto
          endchar
        </CharString>
        <CharString name="f_t">
          73 543 113 rmoveto
          -19 callsubr
          262 37 vlineto
          -59 callsubr
          -37 95 hlineto
          21 -15 11 -35 vhcurveto
          -31 hlineto
          -33 -18 -11 -21 -3 hvcurveto
          -13 -95 rlineto
          -131 77 hlineto
          -74 callgsubr
          28 -65 callgsubr
          376 131 -258 vlineto
          15 callsubr
          -4 callgsubr
          vhcurveto
          endchar
        </CharString>
        <CharString name="fi">
          29 427 523 rmoveto
          -214 77 hlineto
          -74 callgsubr
          28 -65 callgsubr
          376 126 -376 -58 callgsubr
          28 -65 callgsubr
          463 vlineto
          21 -18 9 -42 vhcurveto
          -11 55 -105 callsubr
          endchar
        </CharString>
        <CharString name="five">
          -52 198 -8 rmoveto
          108 121 55 169 172 -88 52 -134 hvcurveto
          -15 hlineto
          10 143 rlineto
          174 hlineto
          21 9 12 28 hvcurveto
          27 -29 callgsubr
          -267 hlineto
          -29 -11 -12 -28 -2 hvcurveto
          -19 -297 rlineto
          -28 8 -12 29 vhcurveto
          94 hlineto
          74 26 -41 -70 -65 -33 -38 -51 hvcurveto
          -67 -42 34 -9 hhcurveto
          -23 -31 -61 -18 -40 74 -32 103 hvcurveto
          endchar
        </CharString>
        <CharString name="fl">
          45 125 7 callgsubr
          376 33 vlineto
          -59 callsubr
          -33 77 hlineto
          -74 callgsubr
          340 -6 -16 callsubr
        </CharString>
        <CharString name="florin">
          -182 53 -207 rmoveto
          31 hlineto
          44 16 11 22 2 hvcurveto
          60 580 rlineto
          43 hlineto
          41 0 83 3 21 -7 10 -17 hvcurveto
          -48 hlineto
          9 77 rlineto
          30 4 12 13 26 10 13 -4 7 hhcurveto
          20 21 56 16 46 -57 3 -36 -93 -63 -51 -111 -13 hvcurveto
          -8 -75 rlineto
          -20 hlineto
          -41 -1 -80 -6 -22 8 -9 17 hvcurveto
          25 hlineto
          -29 -302 -31 -272 -7 vvcurveto
          -21 12 -11 43 vhcurveto
          endchar
        </CharString>
        <CharString name="four">
          -52 307 7 callgsubr
          112 27 vlineto
          -59 callsubr
          -27 411 hlineto
          21 -18 11 -42 vhcurveto
          -51 hlineto
          -29 -23 -1 -23 -11 hvcurveto
          -215 -432 rlineto
          -1 -2 -1 -4 -5 vvcurveto
          -27 20 -66 17 vhcurveto
          206 -112 hlineto
          -14 callsubr
          42 vhcurveto
          -165 261 rmoveto
          110 235 4 -1 rlineto
          -7 -53 -3 -42 -42 vvcurveto
          -97 vlineto
          endchar
        </CharString>
        <CharString name="fraction">
          -300 -63 hmoveto
          20 hlineto
          18 14 7 19 10 hvcurveto
          287 648 rlineto
          -21 callgsubr
          4 4 vvcurveto
          7 -6 4 -9 vhcurveto
          -21 hlineto
          -17 -15 -7 -19 -8 hvcurveto
          -288 -648 rlineto
          -3 -6 -2 -5 -4 vvcurveto
          -8 5 -3 9 vhcurveto
          endchar
        </CharString>
        <CharString name="g">
          -40 226 -212 -94 callgsubr
        </CharString>
        <CharString name="g.ss01">
          -40 362 525 -90 callgsubr
        </CharString>
        <CharString name="gbreve">
          -40 228 -79 callsubr
          -2 -787 -94 callgsubr
        </CharString>
        <CharString name="gbreve.ss01">
          -40 233 -79 callsubr
          129 -50 -90 callgsubr
        </CharString>
        <CharString name="gcircumflex">
          -40 125 572 -107 callgsubr
          101 -784 -94 callgsubr
        </CharString>
        <CharString name="gcircumflex.ss01">
          -40 130 572 -107 callgsubr
          232 -47 -90 callgsubr
        </CharString>
        <CharString name="gcommaaccent">
          -74 243 764 rmoveto
          -29 -60 -78 -67 -25 12 -19 33 hvcurveto
          6 callsubr
          vhcurveto
          -17 -976 -94 callgsubr
        </CharString>
        <CharString name="gcommaaccent.ss01">
          -54 222 575 rmoveto
          6 callsubr
          -29 -60 -78 -67 -25 12 -19 33 vhcurveto
          140 -50 -90 callgsubr
        </CharString>
        <CharString name="gdotaccent">
          -40 231 -80 callgsubr
          -5 -790 -94 callgsubr
        </CharString>
        <CharString name="gdotaccent.ss01">
          -40 236 -80 callgsubr
          126 -53 -90 callgsubr
        </CharString>
        <CharString name="germandbls">
          -31 107 7 callgsubr
          489 vlineto
          39 20 25 34 35 12 -28 -54 -55 -16 -29 -26 vhcurveto
          -3 hlineto
          -18 -9 -17 -33 hvcurveto
          -17 -50 callsubr
          21 vhcurveto
          2 hlineto
          36 22 -25 -70 -66 -20 -22 -32 hvcurveto
          -8 hlineto
          -21 -49 callgsubr
          -17 -50 callsubr
          21 vhcurveto
          17 hlineto
          117 72 70 135 92 -30 45 -60 30 hvcurveto
          4 vlineto
          49 25 27 52 71 vvcurveto
          127 -86 57 -111 -127 -75 -80 -127 vhcurveto
          -471 -58 callgsubr
          endchar
        </CharString>
        <CharString name="grave">
          -255 193 575 -99 callgsubr
          endchar
        </CharString>
        <CharString name="gravecomb">
          -511 17 575 -99 callgsubr
          endchar
        </CharString>
        <CharString name="greater">
          -63 54 16 rmoveto
          334 177 rlineto
          18 10 6 11 22 vvcurveto
          19 vlineto
          21 -6 11 -18 10 vhcurveto
          -321 170 rlineto
          -33 18 -5 -15 -32 vvcurveto
          -16 vlineto
          -38 5 -12 20 -13 vhcurveto
          203 -114 -205 -114 rlineto
          -23 -15 -2 -7 -41 vvcurveto
          -16 vlineto
          -34 2 -15 25 13 vhcurveto
          endchar
        </CharString>
        <CharString name="greaterequal">
          -58 31 171 rmoveto
          -35 -3 -13 29 14 vhcurveto
          333 157 rlineto
          18 9 8 11 21 vvcurveto
          19 vlineto
          21 -8 11 -18 9 vhcurveto
          -330 155 rlineto
          -28 13 1 -9 -37 vvcurveto
          -6 vlineto
          -43 6 -8 17 -10 vhcurveto
          203 -106 -204 -106 rlineto
          -16 -9 -8 -11 -21 vvcurveto
          23 -197 rmoveto
          337 hlineto
          17 7 -3 callsubr
          -7 15 -17 vhcurveto
          -337 hlineto
          -26 callsubr
          endchar
        </CharString>
        <CharString name="guillemotleft">
          -106 157 47 rmoveto
          21 37 21 21 8 -3 7 -5 8 hvcurveto
          -91 146 91 8 callsubr
          -7 -3 -11 -7 vhcurveto
          -102 -153 rlineto
          -10 -14 -5 -12 -18 vvcurveto
          -18 5 -12 10 -14 vhcurveto
          102 -153 rlineto
          -11 7 8 -3 8 hhcurveto
          172 hmoveto
          20 38 21 21 8 -3 7 -5 8 hvcurveto
          -90 146 90 8 callsubr
          -8 -3 -11 -7 vhcurveto
          -101 -153 rlineto
          -10 -15 -5 -11 -18 vvcurveto
          -18 5 -11 10 -15 vhcurveto
          101 -153 rlineto
          -11 7 9 -3 8 hhcurveto
          endchar
        </CharString>
        <CharString name="guillemotright">
          -106 82 47 rmoveto
          8 9 3 11 7 hvcurveto
          101 153 rlineto
          10 15 5 11 18 vvcurveto
          18 -5 11 -10 15 vhcurveto
          -101 153 rlineto
          11 -7 9 callsubr
          90 -146 -90 9 callgsubr
          172 hmoveto
          8 9 3 11 6 hvcurveto
          102 153 rlineto
          10 14 5 12 18 vvcurveto
          18 -5 12 -10 14 vhcurveto
          -102 153 rlineto
          11 -6 9 callsubr
          92 -146 -92 9 callgsubr
          endchar
        </CharString>
        <CharString name="guilsinglleft">
          -264 157 47 rmoveto
          20 41 22 21 8 -2 6 -5 9 hvcurveto
          -91 145 91 145 rlineto
          5 9 2 6 7 vvcurveto
          23 -42 21 -19 -9 -8 -3 -11 -7 vhcurveto
          -102 -153 rlineto
          -9 -15 -5 -11 -18 vvcurveto
          -18 5 -11 9 -15 vhcurveto
          102 -153 rlineto
          -11 7 8 -3 9 hhcurveto
          endchar
        </CharString>
        <CharString name="guilsinglright">
          -264 84 47 rmoveto
          9 8 3 11 7 hvcurveto
          102 153 rlineto
          9 15 5 11 18 vvcurveto
          18 -5 11 -9 15 vhcurveto
          -102 153 rlineto
          11 -7 -8 3 -9 hhcurveto
          -19 -42 -21 -23 -7 2 -6 5 -9 hvcurveto
          91 -145 -91 -145 rlineto
          -5 -9 -2 -6 -8 vvcurveto
          -21 41 -22 20 vhcurveto
          endchar
        </CharString>
        <CharString name="h">
          -26 109 -2 -60 callgsubr
          endchar
        </CharString>
        <CharString name="hbar">
          -40 326 531 rmoveto
          -57 -42 -32 -36 -26 hvcurveto
          120 53 vlineto
          26 9 12 -11 callgsubr
          vlineto
          28 -9 12 -26 vhcurveto
          -53 44 hlineto
          6 callgsubr
          vhcurveto
          -34 -88 callsubr
          -44 -32 vlineto
          -24 -12 -23 callsubr
          -15 vlineto
          -28 12 -12 24 vhcurveto
          32 -553 hlineto
          -13 callgsubr
          39 19 10 22 hvcurveto
          347 vlineto
          15 10 17 17 22 hhcurveto
          29 10 -27 callsubr
          -40 48 -73 vhcurveto
          endchar
        </CharString>
        <CharString name="hcircumflex">
          -26 23 781 -107 callgsubr
          86 -783 -60 callgsubr
          endchar
        </CharString>
        <CharString name="hookabovecomb">
          -511 -216 570 -98 callgsubr
          endchar
        </CharString>
        <CharString name="hungarumlaut">
          -204 -11 575 -83 callsubr
          endchar
        </CharString>
        <CharString name="hyphen">
          -255 43 212 rmoveto
          171 -17 callsubr
          -171 -36 callsubr
          endchar
        </CharString>
        <CharString name="i">
          -53 callgsubr
          endchar
        </CharString>
        <CharString name="i.loclTRK">
          -53 callgsubr
          endchar
        </CharString>
        <CharString name="iacute">
          -257 107 575 rmoveto
          -105 callgsubr
          6 -577 -75 callgsubr
        </CharString>
        <CharString name="iacute_j.loclNLD">
          -8 107 575 rmoveto
          -105 callgsubr
          254 hmoveto
          -105 callgsubr
          -248 -577 -86 callsubr
          208 -210 -84 callsubr
        </CharString>
        <CharString name="ibreve">
          -257 127 -79 callsubr
          -14 -577 -75 callgsubr
        </CharString>
        <CharString name="icircumflex">
          -257 24 572 -107 callgsubr
          89 -574 -75 callgsubr
        </CharString>
        <CharString name="idieresis">
          -257 49 578 -102 callsubr
          -98 -43 callsubr
          endchar
        </CharString>
        <CharString name="igrave">
          -257 143 575 -99 callgsubr
          -30 -577 -75 callgsubr
        </CharString>
        <CharString name="ij">
          -8 130 -80 callgsubr
          254 hmoveto
          46 21 -66 callgsubr
          60 vlineto
          21 -21 11 -49 -46 -21 -11 -21 vhcurveto
          -60 vlineto
          -21 21 -11 49 vhcurveto
          -271 -43 callsubr
          208 -210 -84 callsubr
        </CharString>
        <CharString name="imacron">
          -257 32 597 -84 callgsubr
          81 -599 -75 callgsubr
        </CharString>
        <CharString name="infinity">
          119 459 448 rmoveto
          -42 -62 -15 -90 -38 hvcurveto
          55 -23 -51 50 -63 hhcurveto
          -83 -60 -68 -98 -98 59 -73 78 42 62 15 90 38 hvcurveto
          -55 23 51 -50 63 hhcurveto
          83 60 68 98 98 -59 73 -78 hvcurveto
          -272 -223 rmoveto
          -26 -14 24 33 33 19 22 23 16 19 -12 -49 19 hvcurveto
          -43 -19 -24 -8 -13 hhcurveto
          257 -3 rmoveto
          -16 -19 12 49 -19 hvcurveto
          43 19 24 8 13 hhcurveto
          26 14 -24 -33 -33 -19 -22 -23 hvcurveto
          endchar
        </CharString>
        <CharString name="integral">
          -213 68 -171 rmoveto
          100 53 89 168 hvcurveto
          184 -11 167 168 vvcurveto
          118 10 45 29 vhcurveto
          22 7 -8 9 hhcurveto
          18 17 34 36 47 -73 7 -21 -101 -53 -89 -168 hvcurveto
          -191 12 -164 -164 vvcurveto
          -118 -10 -45 -30 vhcurveto
          -21 -7 8 -10 hhcurveto
          -18 -17 -34 -36 -47 73 -7 22 hvcurveto
          endchar
        </CharString>
        <CharString name="iogonek">
          -37 callgsubr
          119 -681 rmoveto
          -31 callsubr
          21 5 26 12 26 hvcurveto
          5 5 3 7 8 vvcurveto
          -78 callgsubr
          14 hlineto
          -14 -32 -4 -30 -18 -68 callgsubr
          endchar
        </CharString>
        <CharString name="itilde">
          -283 8 580 -39 callsubr
          115 -585 -75 callgsubr
        </CharString>
        <CharString name="j">
          -262 130 -80 callgsubr
          -63 -790 -84 callsubr
        </CharString>
        <CharString name="jcircumflex">
          -262 24 572 -107 callgsubr
          43 -784 -84 callsubr
        </CharString>
        <CharString name="k">
          -42 callsubr
          endchar
        </CharString>
        <CharString name="kcommaaccent">
          -42 callsubr
          -193 -85 rmoveto
          -20 hlineto
          -41 -17 -17 -27 hvcurveto
          -80 -10 -25 -18 vvcurveto
          -16 26 -6 18 29 60 78 67 25 -12 19 -33 vhcurveto
          endchar
        </CharString>
        <CharString name="kgreenlandic">
          -59 110 -2 rmoveto
          32 -68 callsubr
          216 5 vlineto
          88 -229 rlineto
          -15 5 18 -4 26 hhcurveto
          53 hlineto
          37 15 6 10 4 -1 7 -5 9 hvcurveto
          -116 258 98 195 rlineto
          6 11 1 6 4 vvcurveto
          11 -15 6 -39 vhcurveto
          -47 hlineto
          -26 -16 -1 -18 -7 hvcurveto
          -75 -180 rlineto
          -5 167 18 callgsubr
          -32 -88 callsubr
          -463 -71 callsubr
          endchar
        </CharString>
        <CharString name="l">
          -241 179 -8 -16 callsubr
        </CharString>
        <CharString name="lacute">
          -241 103 772 rmoveto
          -105 callgsubr
          76 -780 -16 callsubr
        </CharString>
        <CharString name="lcaron">
          -241 179 -8 -76 callgsubr
          90 519 -48 callgsubr
          endchar
        </CharString>
        <CharString name="lcommaaccent">
          -241 179 -8 -76 callgsubr
          -52 -232 -82 callsubr
          endchar
        </CharString>
        <CharString name="ldot">
          -202 179 -8 -76 callgsubr
          92 297 -8 callgsubr
        </CharString>
        <CharString name="less">
          -63 385 16 rmoveto
          25 -13 2 15 34 vvcurveto
          16 vlineto
          41 -2 7 -23 15 vhcurveto
          -205 114 203 114 rlineto
          20 13 5 12 38 vvcurveto
          16 vlineto
          32 -5 15 -33 -18 vhcurveto
          -321 -170 rlineto
          -18 -10 -6 -11 -21 vvcurveto
          -19 vlineto
          -22 6 -11 18 -10 vhcurveto
          endchar
        </CharString>
        <CharString name="lessequal">
          -58 384 137 rmoveto
          26 34 rlineto
          26 vlineto
          21 -8 11 -16 9 vhcurveto
          -204 106 203 106 rlineto
          17 10 6 8 43 vvcurveto
          6 vlineto
          37 1 9 -28 -13 vhcurveto
          -330 -155 rlineto
          -18 -9 -8 -11 -21 vvcurveto
          -19 vlineto
          -21 8 -11 18 -9 vhcurveto
          336 -294 rmoveto
          18 -15 callsubr
          -18 vhcurveto
          -337 hlineto
          -17 -7 -3 callgsubr
          7 -15 17 vhcurveto
          endchar
        </CharString>
        <CharString name="logicalnot">
          -62 351 72 rmoveto
          40 hlineto
          26 11 -66 callgsubr
          205 vlineto
          28 -11 12 -26 vhcurveto
          -342 -36 callsubr
          266 -138 hlineto
          -21 11 -11 25 vhcurveto
          endchar
        </CharString>
        <CharString name="longs">
          -238 121 7 callgsubr
          570 vlineto
          -74 callgsubr
          endchar
        </CharString>
        <CharString name="lozenge">
          -65 212 -8 rmoveto
          22 hlineto
          30 23 5 20 8 hvcurveto
          121 307 rlineto
          4 9 1 7 8 vvcurveto
          8 -2 8 -3 8 vhcurveto
          -126 313 rlineto
          20 -8 -23 5 -30 hhcurveto
          -11 hlineto
          -29 -24 -5 -20 -8 hvcurveto
          -126 -313 rlineto
          -4 -8 -1 -8 -8 vvcurveto
          -8 1 -7 4 -9 vhcurveto
          121 -307 rlineto
          -20 8 23 -5 29 hhcurveto
          11 170 rmoveto
          -57 186 57 183 57 -183 rlineto
          endchar
        </CharString>
        <CharString name="lslash">
          -235 250 113 rmoveto
          -5 -10 -4 -7 hhcurveto
          -17 -7 10 23 hvcurveto
          268 vlineto
          29 17 rlineto
          18 11 8 12 22 vvcurveto
          20 vlineto
          14 -4 6 -7 -4 -5 -1 -4 -6 vhcurveto
          -29 -17 rlineto
          232 -98 callsubr
          -322 vlineto
          -17 -10 rlineto
          -18 -11 -8 -14 -21 vvcurveto
          -20 vlineto
          -14 3 -6 7 4 5 2 4 7 vhcurveto
          17 10 rlineto
          -176 vlineto
          -104 46 -48 83 38 56 11 36 21 -10 53 -19 vhcurveto
          endchar
        </CharString>
        <CharString name="m">
          209 560 531 rmoveto
          -64 -45 -35 -35 -26 hvcurveto
          47 -15 -34 23 -52 hhcurveto
          -62 -43 -38 -38 -26 hvcurveto
          36 -7 3 31 -34 hhcurveto
          -21 -94 -7 -28 hvcurveto
          -14 10 -26 -98 vvcurveto
          -319 vlineto
          -21 17 -11 40 vhcurveto
          -51 callgsubr
          22 hhcurveto
          29 8 -28 callgsubr
          352 vlineto
          15 13 16 12 20 hhcurveto
          29 8 -18 -33 hvcurveto
          -328 vlineto
          -13 callgsubr
          40 -41 callgsubr
          362 vlineto
          91 -38 48 -73 vhcurveto
          endchar
        </CharString>
        <CharString name="macron">
          -256 31 597 -84 callgsubr
          endchar
        </CharString>
        <CharString name="minus">
          -62 47 172 rmoveto
          355 hlineto
          21 8 -3 callsubr
          -8 15 -21 vhcurveto
          -355 -36 callsubr
          endchar
        </CharString>
        <CharString name="multiply">
          -63 288 242 rmoveto
          107 147 16 24 -6 10 -19 16 rlinecurve
          -22 18 -15 12 -16 15 -19 -26 rlinecurve
          -100 -141 -106 147 -14 16 -9 -4 -29 -25 rlinecurve
          -8 -7 -27 -24 -3 -12 16 -19 rlinecurve
          106 -147 -106 -147 -16 -19 3 -12 27 -24 rlinecurve
          8 -7 29 -25 9 -4 14 16 rlinecurve
          106 147 100 -141 19 -26 16 15 15 12 rlinecurve
          22 18 19 16 6 10 -16 24 rlinecurve
          endchar
        </CharString>
        <CharString name="n">
          107 -2 -93 callgsubr
          endchar
        </CharString>
        <CharString name="nacute">
          221 575 rmoveto
          -105 callgsubr
          -114 -577 -93 callgsubr
          endchar
        </CharString>
        <CharString name="nacute.loclPLK">
          223 575 -81 callgsubr
          -116 -577 -93 callgsubr
          endchar
        </CharString>
        <CharString name="napostrophe">
          50 532 -82 callsubr
          57 -534 -93 callgsubr
          endchar
        </CharString>
        <CharString name="ncaron">
          238 572 -104 callsubr
          -131 -574 -93 callgsubr
          endchar
        </CharString>
        <CharString name="ncommaaccent">
          107 -2 -93 callgsubr
          107 -238 -82 callsubr
          endchar
        </CharString>
        <CharString name="nine">
          -52 120 -7 rmoveto
          12 302 67 384 193 -108 68 -100 -99 -107 -62 -162 -162 102 -50 62 24 26 4 20 32 hvcurveto
          -26 -99 -64 -67 -93 -30 rrcurveto
          -11 -3 -2 -4 -14 vvcurveto
          -20 16 -63 34 vhcurveto
          113 393 rmoveto
          -45 -28 38 60 63 30 41 35 32 26 -33 -99 -19 0 -18 -1 -18 hvcurveto
          -9 -16 -15 -6 -18 hhcurveto
          endchar
        </CharString>
        <CharString name="notequal">
          -63 396 267 rmoveto
          17 -15 callsubr
          -17 vhcurveto
          -24 hlineto
          16 25 rlineto
          37 23 -9 20 -43 hhcurveto
          -27 hlineto
          -28 -14 -11 -19 -12 hvcurveto
          -32 -52 rlineto
          -192 hlineto
          -26 callsubr
          126 hlineto
          -46 -74 rlineto
          -80 hlineto
          -26 callsubr
          14 hlineto
          -26 -43 rlineto
          -22 -13 12 -19 38 hhcurveto
          27 hlineto
          28 13 9 21 13 hvcurveto
          34 54 rlineto
          202 hlineto
          17 -15 callsubr
          -17 vhcurveto
          -136 hlineto
          46 74 rlineto
          endchar
        </CharString>
        <CharString name="ntilde">
          112 580 rmoveto
          -106 callsubr
          6 -585 -93 callgsubr
          endchar
        </CharString>
        <CharString name="numbersign">
          3 103 -2 rmoveto
          19 hlineto
          30 16 11 21 4 hvcurveto
          23 153 rlineto
          75 hlineto
          -13 -78 -9 -72 -7 vvcurveto
          -19 15 -9 29 vhcurveto
          18 hlineto
          30 -21 callsubr
          4 hvcurveto
          22 153 rlineto
          69 hlineto
          21 -32 callgsubr
          10 -29 callgsubr
          -53 hlineto
          16 110 rlineto
          61 hlineto
          21 -32 callgsubr
          10 -29 callgsubr
          -45 hlineto
          21 142 rlineto
          20 2 -16 11 -30 13 callgsubr
          -77 hlineto
          21 142 rlineto
          20 2 -15 11 -31 13 callgsubr
          -64 14 callgsubr
          48 hlineto
          -16 -110 rlineto
          -60 14 callgsubr
          44 hlineto
          -14 -78 -9 -73 -4 vvcurveto
          -21 -1 15 -9 30 hhcurveto
          108 295 rmoveto
          16 110 rlineto
          76 hlineto
          -16 -110 rlineto
          endchar
        </CharString>
        <CharString name="o">
          -34 238 -8 0 callsubr
          174 -69 95 -136 -62 callgsubr
        </CharString>
        <CharString name="oacute">
          -34 218 575 rmoveto
          -105 callgsubr
          20 -583 0 callsubr
          174 -69 95 -136 -62 callgsubr
        </CharString>
        <CharString name="oacute.loclPLK">
          -34 220 575 -81 callgsubr
          18 -583 0 callsubr
          174 -69 95 -136 -62 callgsubr
        </CharString>
        <CharString name="obreve">
          -34 238 -79 callsubr
          -583 vmoveto
          -46 callgsubr
          174 -69 95 -136 -62 callgsubr
        </CharString>
        <CharString name="ocircumflex">
          -34 135 572 -107 callgsubr
          103 -580 0 callsubr
          174 -69 95 -136 -62 callgsubr
        </CharString>
        <CharString name="odieresis">
          -34 160 578 -102 callsubr
          -84 -586 0 callsubr
          174 -69 95 -136 -62 callgsubr
        </CharString>
        <CharString name="oe">
          211 630 138 rmoveto
          -11 -36 -29 -49 hhcurveto
          -45 -32 22 72 -3 hvcurveto
          190 hlineto
          13 38 42 17 168 -51 101 -135 -57 -49 -14 -36 -36 hvcurveto
          32 -33 -43 18 -53 hhcurveto
          -141 -63 -95 -174 -174 64 -96 140 55 44 19 34 32 hvcurveto
          -35 37 52 -18 69 hhcurveto
          48 107 21 49 20 -30 56 -22 hvcurveto
          -122 286 rmoveto
          38 14 -38 -94 hvcurveto
          -112 hlineto
          104 5 21 28 34 hhcurveto
          -269 -315 rmoveto
          -40 -15 40 113 113 15 39 40 39 15 -39 -113 -113 -15 -40 -39 hvcurveto
          endchar
        </CharString>
        <CharString name="ogonek">
          -255 140 -183 rmoveto
          19 20 4 8 17 hvcurveto
          12 7 5 10 14 vvcurveto
          24 -10 6 -20 vhcurveto
          -31 callsubr
          21 5 27 12 26 hvcurveto
          -50 16 rlineto
          -27 -41 -7 -44 -24 vvcurveto
          -27 9 -67 88 vhcurveto
          endchar
        </CharString>
        <CharString name="ograve">
          -34 254 575 -99 callgsubr
          -16 -583 0 callsubr
          174 -69 95 -136 -62 callgsubr
        </CharString>
        <CharString name="ohorn">
          -34 238 -8 -86 callgsubr
        </CharString>
        <CharString name="ohungarumlaut">
          -34 130 575 -83 callsubr
          -57 -583 0 callsubr
          174 -69 95 -136 -62 callgsubr
        </CharString>
        <CharString name="omacron">
          -34 143 597 -84 callgsubr
          95 -605 0 callsubr
          174 -69 95 -136 -62 callgsubr
        </CharString>
        <CharString name="one">
          -52 60 hmoveto
          339 -1 callgsubr
          -84 563 hlineto
          12 -25 12 -16 vhcurveto
          -221 -41 rlineto
          -17 -3 -9 -10 -15 vvcurveto
          -28 6 -56 26 vhcurveto
          108 15 rlineto
          -449 -107 vlineto
          -21 -49 callgsubr
          -17 -50 callsubr
          21 vhcurveto
          endchar
        </CharString>
        <CharString name="oneeighth">
          117 139 293 rmoveto
          19 hlineto
          26 8 7 12 hvcurveto
          378 vlineto
          7 -15 7 -6 vhcurveto
          -137 -25 rlineto
          -10 -2 -4 -6 -9 vvcurveto
          -16 3 -34 16 vhcurveto
          65 12 rlineto
          -312 vlineto
          -12 10 -7 25 vhcurveto
          -3 -293 rmoveto
          16 hlineto
          19 15 7 20 8 hvcurveto
          267 647 rlineto
          2 7 2 4 4 vvcurveto
          7 -6 4 -14 vhcurveto
          -16 hlineto
          -18 -17 -7 -19 -7 hvcurveto
          -265 -648 rlineto
          -3 -6 -3 -5 -4 vvcurveto
          -8 7 -3 13 vhcurveto
          346 -5 rmoveto
          87 33 62 58 59 -26 30 -30 20 hvcurveto
          24 14 25 23 53 vvcurveto
          59 -40 45 -71 -75 -41 -46 -63 -45 20 -25 24 -20 vhcurveto
          -28 -15 -24 -32 -55 vvcurveto
          -65 36 -57 86 vhcurveto
          6 265 rmoveto
          -22 12 -18 15 25 vvcurveto
          25 18 12 17 18 15 -13 -25 -21 -9 -17 -19 -13 vhcurveto
          -7 -196 rmoveto
          -23 -16 17 39 29 10 17 17 14 hvcurveto
          27 -15 23 -18 -35 vvcurveto
          -24 -12 -24 -26 vhcurveto
          endchar
        </CharString>
        <CharString name="onehalf">
          130 -70 callgsubr
          250 hmoveto
          -59 callgsubr
          endchar
        </CharString>
        <CharString name="onequarter">
          75 -70 callgsubr
          340 -2 rmoveto
          16 hlineto
          25 10 6 13 hvcurveto
          65 16 vlineto
          12 5 9 20 hvcurveto
          10 vlineto
          21 -5 9 -12 vhcurveto
          -16 240 hlineto
          12 -10 7 -25 vhcurveto
          -30 hlineto
          -17 -13 -1 -13 -7 hvcurveto
          -125 -253 rlineto
          -1 -1 -1 -3 -3 vvcurveto
          -15 12 -39 10 vhcurveto
          120 -65 hlineto
          -13 11 -6 25 vhcurveto
          -97 153 rmoveto
          64 137 3 -1 rlineto
          -4 -31 -2 -24 -25 vvcurveto
          -56 vlineto
          endchar
        </CharString>
        <CharString name="ordfeminine">
          -230 92 439 rmoveto
          38 22 16 11 8 hvcurveto
          -14 4 2 -9 14 hhcurveto
          15 59 3 14 hvcurveto
          7 -6 14 50 vvcurveto
          83 vlineto
          55 -36 40 -84 -56 -44 -16 -18 -14 14 -45 13 vhcurveto
          8 26 14 34 hhcurveto
          22 9 -8 -15 hvcurveto
          -2 vlineto
          -121 -16 -51 -37 -46 27 -32 48 hvcurveto
          36 64 rmoveto
          -13 -7 8 13 16 11 12 35 hvcurveto
          -33 vlineto
          -9 -5 -8 -7 -13 hhcurveto
          endchar
        </CharString>
        <CharString name="ordmasculine">
          -219 146 439 rmoveto
          79 44 49 86 86 -43 49 -80 -80 -43 -49 -86 -86 44 -49 79 hvcurveto
          1 79 rmoveto
          -20 -9 14 42 42 9 14 20 19 8 -14 -42 -42 -8 -14 -19 hvcurveto
          endchar
        </CharString>
        <CharString name="oslash">
          -34 435 488 -50 callgsubr
        </CharString>
        <CharString name="oslashacute">
          -34 217 575 rmoveto
          -105 callgsubr
          218 -87 -50 callgsubr
        </CharString>
        <CharString name="otilde">
          -34 109 580 rmoveto
          -106 callsubr
          140 -591 0 callsubr
          174 -69 95 -136 -62 callgsubr
        </CharString>
        <CharString name="p">
          -27 112 -5 callsubr
          -49 -38 -30 -40 -19 hvcurveto
          25 -5 -6 36 -30 hhcurveto
          -25 -87 -8 -24 hvcurveto
          -20 12 -21 -102 vvcurveto
          -521 -11 callsubr
        </CharString>
        <CharString name="paragraph">
          -45 232 -171 rmoveto
          2 hlineto
          22 8 10 20 hvcurveto
          779 78 -779 vlineto
          -21 9 -9 21 vhcurveto
          2 hlineto
          22 8 10 20 hvcurveto
          779 21 vlineto
          21 9 9 20 hvcurveto
          1 vlineto
          23 -9 9 -21 vhcurveto
          -198 hlineto
          -109 -89 -75 -169 -149 76 -80 97 -14 hvcurveto
          -354 vlineto
          -21 9 -9 21 vhcurveto
          endchar
        </CharString>
        <CharString name="parenleft">
          -262 199 -208 rmoveto
          20 37 23 23 6 -1 7 -4 7 hvcurveto
          -83 147 -18 133 149 vvcurveto
          150 19 133 82 147 vhcurveto
          4 7 1 7 6 vvcurveto
          23 -37 23 -20 -10 -9 -5 -11 -8 vhcurveto
          -97 -134 -42 -172 -174 vvcurveto
          -174 43 -171 96 -134 vhcurveto
          -11 8 9 -5 10 hhcurveto
          endchar
        </CharString>
        <CharString name="parenright">
          -262 50 -208 rmoveto
          10 9 5 11 8 hvcurveto
          97 134 41 171 174 vvcurveto
          174 -42 172 -96 134 vhcurveto
          11 -8 -9 5 -10 hhcurveto
          -20 -37 -23 -23 -6 1 -7 4 -7 hvcurveto
          83 -147 17 -133 -150 vvcurveto
          -149 -19 -133 -81 -147 vhcurveto
          -4 -7 -1 -7 -6 vvcurveto
          -23 37 -23 20 vhcurveto
          endchar
        </CharString>
        <CharString name="partialdiff">
          -100 185 -10 rmoveto
          157 60 160 183 244 -86 157 -147 -98 -32 -42 -29 -23 32 -55 22 hvcurveto
          15 16 26 35 hhcurveto
          48 38 -54 -154 14 hvcurveto
          17 -26 -27 7 -26 hhcurveto
          -96 -77 -91 -142 -119 54 -85 124 hvcurveto
          9 124 rmoveto
          -26 -23 12 72 64 25 42 37 16 17 -10 -21 17 hvcurveto
          -68 -14 -91 -49 vhcurveto
          endchar
        </CharString>
        <CharString name="percent">
          175 -53 callsubr
          82 vmoveto
          -26 callgsubr
          endchar
        </CharString>
        <CharString name="period">
          -323 77 -2 rmoveto
          -55 callgsubr
          endchar
        </CharString>
        <CharString name="periodcentered">
          -297 113 289 -8 callgsubr
        </CharString>
        <CharString name="perthousand">
          475 -53 callsubr
          300 hmoveto
          64 73 29 139 139 -73 29 -64 -63 -73 -29 -139 -139 73 -29 63 hvcurveto
          -300 82 rmoveto
          -26 callgsubr
          300 hmoveto
          -26 callgsubr
          endchar
        </CharString>
        <CharString name="pi">
          -4 117 -2 rmoveto
          5 hlineto
          37 30 9 20 7 hvcurveto
          22 85 16 170 4 124 rrcurveto
          48 hlineto
          -5 -287 rlineto
          -45 -1 1 -76 59 hhcurveto
          23 hlineto
          45 21 12 18 hvcurveto
          5 -7 37 84 vvcurveto
          252 34 vlineto
          20 10 11 22 2 hvcurveto
          1 9 3 25 19 vvcurveto
          20 -11 11 -22 vhcurveto
          -323 hlineto
          -63 -67 -9 -41 -7 -1 -72 37 11 17 10 2 36 hvcurveto
          -5 -122 -24 -155 -26 -98 rrcurveto
          -1 -4 -1 -3 -3 vvcurveto
          -13 26 -10 42 vhcurveto
          endchar
        </CharString>
        <CharString name="plus">
          -62 216 hmoveto
          14 hlineto
          35 15 9 21 hvcurveto
          152 111 vlineto
          20 8 -3 callsubr
          -8 15 -20 vhcurveto
          -111 154 hlineto
          21 -15 9 -35 vhcurveto
          -14 hlineto
          -35 -15 -9 -21 hvcurveto
          -154 -107 vlineto
          1 callsubr
          107 -152 hlineto
          -21 15 -9 35 vhcurveto
          endchar
        </CharString>
        <CharString name="plusminus">
          -62 216 130 rmoveto
          14 hlineto
          36 14 9 21 hvcurveto
          152 116 vlineto
          17 -15 callsubr
          -17 vhcurveto
          -116 154 hlineto
          21 -14 9 -36 vhcurveto
          -14 hlineto
          -36 -14 -9 -21 hvcurveto
          -154 -112 vlineto
          -26 callsubr
          112 -152 hlineto
          -21 14 -9 36 vhcurveto
          -158 -130 rmoveto
          331 hlineto
          18 7 -3 callsubr
          -7 15 -18 vhcurveto
          -331 hlineto
          -17 -7 -3 callgsubr
          7 -15 17 vhcurveto
          endchar
        </CharString>
        <CharString name="product">
          89 150 -104 rmoveto
          28 -68 callsubr
          642 127 -642 vlineto
          -21 17 -11 40 vhcurveto
          29 hlineto
          40 -41 callgsubr
          642 57 vlineto
          21 8 15 35 hvcurveto
          30 vlineto
          35 -8 15 -21 vhcurveto
          -526 hlineto
          17 callsubr
          54 -642 hlineto
          -64 callsubr
          endchar
        </CharString>
        <CharString name="q">
          -30 346 -206 -61 callsubr
          667 -12 callgsubr
          -12 hlineto
          -30 -19 -4 -22 -5 hvcurveto
          -9 -38 rlineto
          40 -20 -43 30 -47 hhcurveto
          -91 -63 -96 -172 -176 61 -95 108 38 27 15 15 17 hvcurveto
          -196 -58 callgsubr
          -102 315 rmoveto
          -40 -19 33 120 110 17 38 36 21 15 -15 -19 12 hvcurveto
          -252 vlineto
          -8 -10 -14 -7 -18 hhcurveto
          endchar
        </CharString>
        <CharString name="question">
          -120 147 222 rmoveto
          23 hlineto
          33 15 6 21 5 hvcurveto
          9 57 34 34 35 33 rrcurveto
          42 41 43 40 85 vvcurveto
          109 -80 60 -121 -72 -98 -29 -52 -21 35 -61 28 vhcurveto
          11 31 31 45 hhcurveto
          45 20 -21 -35 -33 -38 -37 -37 -46 hvcurveto
          -36 -47 -21 -48 -58 vvcurveto
          -21 14 -8 35 vhcurveto
          -2 -224 rmoveto
          32 -65 callgsubr
          92 -12 callgsubr
          -32 hlineto
          -42 -18 -11 -21 hvcurveto
          -92 -58 callgsubr
          endchar
        </CharString>
        <CharString name="questiondown">
          -120 246 525 rmoveto
          -32 hlineto
          -42 -18 -11 -21 hvcurveto
          -92 -58 callgsubr
          32 -65 callgsubr
          92 -12 callgsubr
          -2 -224 rmoveto
          -23 hlineto
          -33 -15 -6 -21 -5 hvcurveto
          -9 -57 -34 -34 -35 -33 rrcurveto
          -42 -41 -43 -40 -85 vvcurveto
          -109 80 -60 121 72 98 29 52 21 -35 61 -28 vhcurveto
          -11 -31 -31 -45 hhcurveto
          -45 -20 21 35 33 38 37 37 46 hvcurveto
          36 47 21 48 58 vvcurveto
          21 -14 8 -35 vhcurveto
          endchar
        </CharString>
        <CharString name="quotedbl">
          -202 70 464 rmoveto
          -34 callsubr
          151 hmoveto
          -34 callsubr
          endchar
        </CharString>
        <CharString name="quotedblbase">
          -163 34 -125 -33 callgsubr
        </CharString>
        <CharString name="quotedblleft">
          -163 62 478 rmoveto
          -27 callgsubr
          166 hmoveto
          -27 callgsubr
          endchar
        </CharString>
        <CharString name="quotedblright">
          -163 54 478 -33 callgsubr
        </CharString>
        <CharString name="quoteleft">
          -301 76 478 rmoveto
          -27 callgsubr
          endchar
        </CharString>
        <CharString name="quoteright">
          -301 64 478 -8 callsubr
          endchar
        </CharString>
        <CharString name="quotesinglbase">
          -301 61 -125 -8 callsubr
          endchar
        </CharString>
        <CharString name="quotesingle">
          -347 75 464 rmoveto
          -34 callsubr
          endchar
        </CharString>
        <CharString name="quotesingle.loclGUA">
          -340 76 381 rmoveto
          26 2 54 110 163 vvcurveto
          25 -15 19 -35 vhcurveto
          4 callgsubr
          hvcurveto
          4 -253 rlineto
          -16 27 -6 18 vhcurveto
          endchar
        </CharString>
        <CharString name="r">
          -174 115 -2 -25 callgsubr
        </CharString>
        <CharString name="racute">
          -174 162 575 rmoveto
          -105 callgsubr
          -47 -577 -25 callgsubr
        </CharString>
        <CharString name="radical">
          -16 259 -156 rmoveto
          23 hlineto
          34 18 10 21 5 hvcurveto
          169 908 rlineto
          11 vlineto
          12 -12 8 -30 vhcurveto
          -31 hlineto
          -32 -18 -10 -21 -4 hvcurveto
          -107 -630 rlineto
          -32 -6 -7 -83 2 hhcurveto
          -5 hlineto
          2 -14 65 50 -11 hvcurveto
          -48 218 rlineto
          15 -3 -11 8 -12 hhcurveto
          -17 -60 -30 -23 -44 hvcurveto
          -18 -9 -7 -7 -13 vvcurveto
          -9 3 -9 13 -31 vhcurveto
          -16 7 8 -8 13 hhcurveto
          7 17 5 9 16 hvcurveto
          101 -379 rlineto
          -22 6 22 -8 31 hhcurveto
          endchar
        </CharString>
        <CharString name="rcaron">
          -174 179 572 -104 callsubr
          -64 -574 -25 callgsubr
        </CharString>
        <CharString name="rcommaaccent">
          -174 115 -2 -74 callsubr
          -8 -240 -82 callsubr
          endchar
        </CharString>
        <CharString name="registered">
          80 -28 callsubr
          -76 100 rmoveto
          22 hlineto
          23 9 6 12 hvcurveto
          136 2 vlineto
          24 0 -11 -22 5 hvcurveto
          36 -109 rlineto
          -9 3 11 -3 16 hhcurveto
          27 hlineto
          20 10 4 7 3 -1 3 -1 5 hvcurveto
          -39 124 -8 23 -15 19 -6 6 rlinecurve
          4 vlineto
          29 15 23 31 43 vvcurveto
          67 -30 38 -80 vhcurveto
          -92 hlineto
          -13 -7 -7 -15 hvcurveto
          -352 vlineto
          -12 10 -6 22 vhcurveto
          54 228 rmoveto
          91 27 vlineto
          14 8 -17 -26 -26 -10 -22 -9 hvcurveto
          endchar
        </CharString>
        <CharString name="ring">
          -255 128 -35 callgsubr
          endchar
        </CharString>
        <CharString name="s">
          -34 callgsubr
          endchar
        </CharString>
        <CharString name="sacute">
          -158 156 575 rmoveto
          -105 callgsubr
          7 -583 -88 callgsubr
          endchar
        </CharString>
        <CharString name="sacute.loclPLK">
          -158 158 575 -81 callgsubr
          5 -583 -88 callgsubr
          endchar
        </CharString>
        <CharString name="scaron">
          -158 173 572 -104 callsubr
          -10 -580 -88 callgsubr
          endchar
        </CharString>
        <CharString name="scedilla">
          -158 337 161 rmoveto
          81 -44 36 -40 26 vhcurveto
          -37 24 -38 13 35 vvcurveto
          24 16 10 25 vhcurveto
          32 23 -18 9 hhcurveto
          17 24 57 24 43 -81 15 -49 -97 -68 -59 -102 -90 52 -34 42 -25 hvcurveto
          35 -20 30 -15 -35 vvcurveto
          -24 -15 -14 -26 vhcurveto
          -36 -23 27 -12 hhcurveto
          -20 -34 -55 -28 -38 65 -23 59 -3 hvcurveto
          -17 -46 -6 -18 -8 -73 callgsubr
          13 45 rlineto
          80 19 45 63 82 vvcurveto
          endchar
        </CharString>
        <CharString name="scircumflex">
          -158 73 572 -107 callgsubr
          90 -580 -88 callgsubr
          endchar
        </CharString>
        <CharString name="scommaaccent">
          -34 callgsubr
          -14 -232 -82 callsubr
          endchar
        </CharString>
        <CharString name="section">
          -156 160 -8 rmoveto
          105 64 64 89 44 -16 30 -21 22 hvcurveto
          31 27 17 41 47 vvcurveto
          88 -53 39 -47 24 vhcurveto
          -34 17 -31 11 25 vvcurveto
          18 16 9 26 vhcurveto
          31 24 -19 8 hhcurveto
          18 23 59 20 49 -91 11 -38 -98 -68 -55 -93 -45 16 -30 21 -22 hvcurveto
          -30 -26 -18 -37 -50 vvcurveto
          -88 50 -39 46 -25 vhcurveto
          36 -19 33 -11 -26 vvcurveto
          -19 -14 -9 -26 vhcurveto
          -32 -22 24 -10 hhcurveto
          -19 -30 -59 -23 -47 88 -16 45 hvcurveto
          42 312 rmoveto
          -34 12 -29 13 35 vvcurveto
          11 3 13 12 10 vhcurveto
          34 -12 29 -13 -35 vvcurveto
          -12 -5 -12 -10 -10 vhcurveto
          endchar
        </CharString>
        <CharString name="semicolon">
          -323 77 369 rmoveto
          -55 callgsubr
          -37 -494 -9 callsubr
        </CharString>
        <CharString name="seven">
          -52 115 -2 rmoveto
          37 hlineto
          29 22 4 16 6 hvcurveto
          224 579 rlineto
          1 3 1 5 5 vvcurveto
          31 -19 59 -11 vhcurveto
          -345 hlineto
          -21 -49 callgsubr
          -17 -50 callsubr
          21 vhcurveto
          214 hlineto
          -210 -545 rlineto
          -3 -8 -3 -8 -5 vvcurveto
          -12 18 -7 39 vhcurveto
          endchar
        </CharString>
        <CharString name="six">
          -52 232 -8 rmoveto
          100 107 62 162 162 -103 50 -62 -23 -26 -4 -19 -32 hvcurveto
          26 98 63 67 94 30 rrcurveto
          11 4 2 3 14 vvcurveto
          20 -16 63 -34 -12 -302 -67 -384 -193 108 -68 99 vhcurveto
          2 117 rmoveto
          -32 -26 32 100 19 0 18 1 18 hvcurveto
          9 15 16 6 18 hhcurveto
          45 28 -39 -60 -61 -29 -42 -36 hvcurveto
          endchar
        </CharString>
        <CharString name="slash">
          -191 22 -20 callgsubr
        </CharString>
        <CharString name="space">
          -374 endchar
        </CharString>
        <CharString name="sterling">
          -100 47 hmoveto
          317 -1 callgsubr
          -177 hlineto
          28 28 13 43 63 vvcurveto
          60 68 vlineto
          -59 callsubr
          -68 79 hlineto
          63 21 26 41 vhcurveto
          19 32 -8 2 hhcurveto
          17 23 39 36 38 -64 7 -35 -133 -68 -68 -138 hvcurveto
          -74 -33 vlineto
          -21 -49 callgsubr
          -17 -50 callsubr
          21 vhcurveto
          33 -136 hlineto
          -68 -76 -7 -41 vvcurveto
          -19 vlineto
          -28 12 -12 28 vhcurveto
          endchar
        </CharString>
        <CharString name="summation">
          -37 52 -102 rmoveto
          393 11 callgsubr
          -235 hlineto
          -2 2 127 251 rlineto
          5 9 2 8 8 vvcurveto
          8 -3 8 -4 8 vhcurveto
          -126 237 2 3 rlineto
          222 11 callgsubr
          -379 hlineto
          -27 -25 callsubr
          -39 vlineto
          -14 4 -11 6 -11 vhcurveto
          152 -282 -154 -290 rlineto
          -6 -11 -3 -11 -14 vvcurveto
          -39 vlineto
          -28 10 -12 27 vhcurveto
          endchar
        </CharString>
        <CharString name="t">
          -213 183 -8 rmoveto
          -4 callgsubr
          hvcurveto
          -76 callsubr
          15 callsubr
          vhcurveto
          endchar
        </CharString>
        <CharString name="tbar">
          -227 257 113 rmoveto
          -19 callsubr
          101 46 vlineto
          24 9 12 -11 callgsubr
          vlineto
          28 -9 12 -24 vhcurveto
          -46 66 37 -1 callgsubr
          -37 95 hlineto
          21 -15 11 -35 vhcurveto
          -31 hlineto
          -33 -18 -11 -21 -3 hvcurveto
          -13 -95 rlineto
          -11 hlineto
          -21 -49 callgsubr
          -17 -50 callsubr
          21 vhcurveto
          11 -66 -25 hlineto
          -22 -25 callsubr
          -15 vlineto
          -9 callgsubr
          22 vhcurveto
          25 -97 hlineto
          15 callsubr
          -4 callgsubr
          vhcurveto
          endchar
        </CharString>
        <CharString name="tcaron">
          -213 263 563 -48 callgsubr
          -80 -571 rmoveto
          -4 callgsubr
          hvcurveto
          -76 callsubr
          15 callsubr
          vhcurveto
          endchar
        </CharString>
        <CharString name="thorn">
          -28 110 -5 callsubr
          -43 -36 -23 -33 -20 hvcurveto
          247 -98 callsubr
          -896 -11 callsubr
        </CharString>
        <CharString name="three">
          -52 216 -8 rmoveto
          123 86 79 133 82 -37 67 -79 30 hvcurveto
          4 vlineto
          57 24 36 53 69 vvcurveto
          107 -73 68 -115 -91 -87 -23 -50 -27 30 -49 20 vhcurveto
          14 19 31 59 hhcurveto
          49 25 -32 -49 -50 -36 -33 -60 hvcurveto
          -26 hlineto
          -21 -49 callgsubr
          -18 -50 callsubr
          21 vhcurveto
          35 hlineto
          79 31 -36 -66 -62 -37 -35 -55 hvcurveto
          -66 -38 41 -15 hhcurveto
          -23 -26 -57 -19 -62 132 -20 69 hvcurveto
          endchar
        </CharString>
        <CharString name="threequarters">
          116 133 287 -77 callsubr
          34 -287 rmoveto
          16 hlineto
          19 15 7 20 8 hvcurveto
          266 647 rlineto
          3 7 2 4 4 vvcurveto
          7 -6 4 -14 vhcurveto
          -16 hlineto
          -18 -16 -7 -19 -8 hvcurveto
          -266 -648 rlineto
          -2 -6 -3 -5 -4 vvcurveto
          -8 7 -3 13 vhcurveto
          340 -2 rmoveto
          16 hlineto
          25 10 6 13 hvcurveto
          65 16 vlineto
          12 5 9 20 hvcurveto
          10 vlineto
          21 -5 9 -12 vhcurveto
          -16 240 hlineto
          12 -10 7 -25 vhcurveto
          -30 hlineto
          -17 -13 -1 -13 -7 hvcurveto
          -125 -253 rlineto
          -1 -1 -1 -3 -3 vvcurveto
          -15 12 -39 10 vhcurveto
          120 -65 hlineto
          -13 11 -6 25 vhcurveto
          -97 153 rmoveto
          64 137 3 -1 rlineto
          -4 -31 -2 -24 -25 vvcurveto
          -56 vlineto
          endchar
        </CharString>
        <CharString name="tilde">
          -219 20 580 rmoveto
          -106 callsubr
          endchar
        </CharString>
        <CharString name="tildecomb">
          -511 -137 580 rmoveto
          -106 callsubr
          endchar
        </CharString>
        <CharString name="trademark">
          106 307 305 rmoveto
          19 hlineto
          23 10 6 12 hvcurveto
          203 4 vlineto
          48 -115 rlineto
          -8 3 9 -3 10 hhcurveto
          11 hlineto
          10 8 3 8 3 hvcurveto
          50 115 rlineto
          4 -203 hlineto
          -12 9 -6 24 vhcurveto
          18 hlineto
          24 10 6 12 hvcurveto
          360 vlineto
          12 -10 6 -24 vhcurveto
          -28 hlineto
          -13 -15 -3 -12 -5 hvcurveto
          -61 -144 -12 -32 -11 32 -57 144 rlineto
          12 -5 -13 3 -14 hhcurveto
          -29 hlineto
          -24 -9 -6 -12 hvcurveto
          -360 vlineto
          -12 9 -6 24 vhcurveto
          -181 hmoveto
          24 hlineto
          22 11 6 12 hvcurveto
          303 62 vlineto
          12 5 9 19 hvcurveto
          18 vlineto
          20 -5 8 -12 vhcurveto
          -213 hlineto
          -12 -5 -8 -20 hvcurveto
          -18 vlineto
          -19 5 -9 12 vhcurveto
          62 -303 hlineto
          -12 10 -6 22 vhcurveto
          endchar
        </CharString>
        <CharString name="two">
          -52 43 hmoveto
          357 -1 callgsubr
          -201 hlineto
          173 255 rlineto
          33 47 20 50 56 vvcurveto
          106 -70 77 -136 -90 -106 -33 -59 -26 26 -43 31 vhcurveto
          17 40 43 59 hhcurveto
          46 33 -22 -48 -30 -12 -29 -27 -41 hvcurveto
          -218 -317 rlineto
          -2 -3 -1 -5 -7 vvcurveto
          -29 13 -59 15 vhcurveto
          endchar
        </CharString>
        <CharString name="u">
          163 -9 -101 callsubr
          endchar
        </CharString>
        <CharString name="uacute">
          219 575 rmoveto
          -105 callgsubr
          -56 -584 -101 callsubr
          endchar
        </CharString>
        <CharString name="ubreve">
          239 -79 callsubr
          -76 -584 -101 callsubr
          endchar
        </CharString>
        <CharString name="ucircumflex">
          136 572 -107 callgsubr
          27 -581 -101 callsubr
          endchar
        </CharString>
        <CharString name="udieresis">
          161 578 -102 callsubr
          -160 -587 -101 callsubr
          endchar
        </CharString>
        <CharString name="ugrave">
          255 575 -99 callgsubr
          -92 -584 -101 callsubr
          endchar
        </CharString>
        <CharString name="uhorn">
          -43 495 575 rmoveto
          -91 callgsubr
          endchar
        </CharString>
        <CharString name="uhungarumlaut">
          131 575 -83 callsubr
          -133 -584 -101 callsubr
          endchar
        </CharString>
        <CharString name="umacron">
          144 597 -84 callgsubr
          19 -606 -101 callsubr
          endchar
        </CharString>
        <CharString name="underscore">
          -84 13 -143 rmoveto
          402 -17 callsubr
          -402 -36 callsubr
          endchar
        </CharString>
        <CharString name="uni00A0">
          -374 endchar
        </CharString>
        <CharString name="uni00AD">
          -255 44 212 rmoveto
          167 -17 callsubr
          -167 -36 callsubr
          endchar
        </CharString>
        <CharString name="uni00B2">
          -231 29 293 rmoveto
          -59 callgsubr
          endchar
        </CharString>
        <CharString name="uni00B3">
          -231 133 287 -77 callsubr
          endchar
        </CharString>
        <CharString name="uni00B5">
          -58 -40 callgsubr
        </CharString>
        <CharString name="uni00B9">
          -231 139 293 rmoveto
          19 hlineto
          26 8 7 12 hvcurveto
          378 vlineto
          7 -15 7 -6 vhcurveto
          -137 -25 rlineto
          -10 -2 -4 -6 -9 vvcurveto
          -16 3 -34 16 vhcurveto
          65 12 rlineto
          -312 vlineto
          -12 10 -7 25 vhcurveto
          endchar
        </CharString>
        <CharString name="uni0162">
          -57 417 700 rmoveto
          -380 hlineto
          16 callgsubr
          111 -539 hlineto
          -20 15 -10 35 -2 vhcurveto
          -18 -50 -7 -19 -8 -73 callgsubr
          14 47 rlineto
          29 2 13 11 18 vvcurveto
          539 112 vlineto
          21 9 15 35 hvcurveto
          31 -29 callgsubr
          endchar
        </CharString>
        <CharString name="uni0163">
          -213 287 42 rmoveto
          10 -11 61 -19 vhcurveto
          -76 callsubr
          -91 34 -48 56 -13 vhcurveto
          -17 -48 -7 -19 -8 -73 callgsubr
          12 42 rlineto
          35 5 40 14 29 vvcurveto
          endchar
        </CharString>
        <CharString name="uni018F">
          49 263 -1 rmoveto
          153 92 95 237 246 -79 131 -182 -77 -128 -31 -54 -25 31 -52 21 hvcurveto
          18 50 39 78 hhcurveto
          68 43 -34 -175 4 hvcurveto
          -273 hlineto
          -13 -38 -42 -17 -180 51 -138 181 hvcurveto
          -2 120 rmoveto
          -72 -15 62 96 hvcurveto
          182 hlineto
          -119 -11 -26 -39 -58 hhcurveto
          endchar
        </CharString>
        <CharString name="uni01C4">
          573 829 749 -104 callsubr
          -735 -749 rmoveto
          190 hlineto
          176 77 118 232 232 -77 118 -176 hvcurveto
          -190 hlineto
          -26 -25 callsubr
          -620 vlineto
          -9 callgsubr
          26 vhcurveto
          545 -57 callsubr
          -424 131 rmoveto
          438 64 vlineto
          70 29 -58 -161 -161 -29 -58 -70 hvcurveto
          endchar
        </CharString>
        <CharString name="uni01C5">
          471 759 572 -104 callsubr
          -665 -572 rmoveto
          -72 callgsubr
          349 -131 rmoveto
          -95 callsubr
          endchar
        </CharString>
        <CharString name="uni01C6">
          375 -75 callsubr
          496 580 -104 callsubr
          -149 -572 rmoveto
          -95 callsubr
          -297 113 -20 callsubr
        </CharString>
        <CharString name="uni01C7">
          127 415 -181 rmoveto
          126 55 81 135 hvcurveto
          635 vlineto
          21 -18 12 2 callsubr
          -40 -17 -12 -21 hvcurveto
          -616 vlineto
          -71 -12 -31 -37 vhcurveto
          -26 -10 6 -11 hhcurveto
          -23 -1 -19 -57 -35 vvcurveto
          -28 59 -18 55 vhcurveto
          -328 181 rmoveto
          237 hlineto
          21 9 15 35 hvcurveto
          31 -29 callgsubr
          -118 539 hlineto
          21 -17 11 -41 -63 callsubr
          -630 vlineto
          -9 callgsubr
          26 vhcurveto
          endchar
        </CharString>
        <CharString name="uni01C8">
          146 94 hmoveto
          -70 callsubr
          444 -80 callgsubr
          -63 -790 -84 callsubr
        </CharString>
        <CharString name="uni01C9">
          8 179 -8 -76 callgsubr
          221 586 -105 callsubr
          -63 -790 -84 callsubr
        </CharString>
        <CharString name="uni01CA">
          434 712 -8 -69 callsubr
          -602 6 -101 callgsubr
          endchar
        </CharString>
        <CharString name="uni01CB">
          328 -47 callsubr
          610 580 -105 callsubr
          -63 -790 -84 callsubr
        </CharString>
        <CharString name="uni01CC">
          220 612 -80 callgsubr
          -505 -580 -93 callgsubr
          442 -210 -84 callsubr
        </CharString>
        <CharString name="uni01EA">
          88 561 350 rmoveto
          250 -94 108 -167 -166 -96 -107 -251 -251 96 -107 166 vhcurveto
          10 hlineto
          -15 -32 -4 -30 -19 -68 callgsubr
          -31 callsubr
          20 5 25 10 25 hvcurveto
          121 29 67 110 211 vvcurveto
          -364 hmoveto
          178 35 48 69 68 34 -48 -178 -178 -34 -49 -68 -69 -35 49 178 vhcurveto
          endchar
        </CharString>
        <CharString name="uni01EB">
          -34 350 -114 rmoveto
          -31 callsubr
          20 5 27 11 25 hvcurveto
          99 24 51 91 149 vvcurveto
          174 -69 95 -136 -135 -69 -95 -174 -171 67 -95 130 -4 vhcurveto
          -16 -33 -5 -33 -19 -68 callgsubr
          -166 376 rmoveto
          113 15 39 40 39 15 -39 -113 -113 -15 -40 -39 -40 -15 40 113 vhcurveto
          endchar
        </CharString>
        <CharString name="uni01F1">
          573 94 hmoveto
          190 hlineto
          176 77 118 232 232 -77 118 -176 hvcurveto
          -190 hlineto
          -26 -25 callsubr
          -620 vlineto
          -9 callgsubr
          26 vhcurveto
          545 -57 callsubr
          -424 131 rmoveto
          438 64 vlineto
          70 29 -58 -161 -161 -29 -58 -70 hvcurveto
          endchar
        </CharString>
        <CharString name="uni01F2">
          471 -22 callgsubr
          349 -131 rmoveto
          -95 callsubr
          endchar
        </CharString>
        <CharString name="uni01F3">
          375 -75 callsubr
          347 8 rmoveto
          -95 callsubr
          -297 113 -20 callsubr
        </CharString>
        <CharString name="uni021A">
          -57 206 -2 -61 callgsubr
          -7 -238 -82 callsubr
          endchar
        </CharString>
        <CharString name="uni021B">
          -213 183 -8 rmoveto
          -4 callgsubr
          hvcurveto
          -76 callsubr
          15 callsubr
          vhcurveto
          -33 -232 -82 callsubr
          endchar
        </CharString>
        <CharString name="uni0237">
          -262 67 -212 -84 callsubr
        </CharString>
        <CharString name="uni0259">
          -71 186 531 rmoveto
          -48 -107 -21 -49 -20 30 -56 22 hvcurveto
          11 36 29 49 hhcurveto
          45 32 -22 -72 3 hvcurveto
          -190 hlineto
          -13 -38 -42 -17 -168 51 -101 135 122 86 65 208 172 -69 94 -157 hvcurveto
          79 -300 rmoveto
          -104 -5 -21 -28 -34 hhcurveto
          -38 -14 38 94 hvcurveto
          endchar
        </CharString>
        <CharString name="uni02BC">
          -421 26 532 -82 callsubr
          endchar
        </CharString>
        <CharString name="uni02C9">
          -255 31 597 -84 callgsubr
          endchar
        </CharString>
        <CharString name="uni0302">
          -511 -101 572 -107 callgsubr
          endchar
        </CharString>
        <CharString name="uni0304">
          -511 -94 597 -84 callgsubr
          endchar
        </CharString>
        <CharString name="uni0306">
          -511 -1 -79 callsubr
          endchar
        </CharString>
        <CharString name="uni0307">
          -511 3 -80 callgsubr
          endchar
        </CharString>
        <CharString name="uni0308">
          -511 -80 578 -102 callsubr
          endchar
        </CharString>
        <CharString name="uni030A">
          -511 -1 -35 callgsubr
          endchar
        </CharString>
        <CharString name="uni030B">
          -511 -149 575 -83 callsubr
          endchar
        </CharString>
        <CharString name="uni030C">
          -511 5 572 -104 callsubr
          endchar
        </CharString>
        <CharString name="uni0326">
          -511 -160 -240 -82 callsubr
          endchar
        </CharString>
        <CharString name="uni0327">
          -511 24 -48 rmoveto
          17 58 rlineto
          -64 hlineto
          -21 -59 -8 -21 -9 -73 callgsubr
          endchar
        </CharString>
        <CharString name="uni0394">
          70 -32 callsubr
        </CharString>
        <CharString name="uni03A9">
          88 -52 callgsubr
        </CharString>
        <CharString name="uni03BC">
          -44 -40 callgsubr
        </CharString>
        <CharString name="uni1E0C">
          -24 callsubr
          -335 vmoveto
          46 21 -66 callgsubr
          60 vlineto
          21 -21 11 -49 -46 -21 -11 -21 vhcurveto
          -60 vlineto
          -21 21 -11 49 vhcurveto
          endchar
        </CharString>
        <CharString name="uni1E0D">
          -30 -75 callsubr
          50 121 -42 callgsubr
          12 -317 -105 callsubr
          endchar
        </CharString>
        <CharString name="uni1E24">
          89 115 -2 -56 callgsubr
          189 -202 -105 callsubr
          endchar
        </CharString>
        <CharString name="uni1E25">
          -26 109 -2 -60 callgsubr
          138 -202 -105 callsubr
          endchar
        </CharString>
        <CharString name="uni1E44">
          79 297 755 -105 callsubr
          -187 -757 -101 callgsubr
          endchar
        </CharString>
        <CharString name="uni1E45">
          244 -80 callgsubr
          -137 -580 -93 callgsubr
          endchar
        </CharString>
        <CharString name="uni1E5A">
          2 114 -2 -87 callsubr
          2 -606 -105 callsubr
          endchar
        </CharString>
        <CharString name="uni1E5B">
          -174 115 -2 -74 callsubr
          24 -204 -105 callsubr
          endchar
        </CharString>
        <CharString name="uni1E62">
          -47 callgsubr
          16 -196 -105 callsubr
          endchar
        </CharString>
        <CharString name="uni1E63">
          -34 callgsubr
          18 -196 -105 callsubr
          endchar
        </CharString>
        <CharString name="uni1E6C">
          -57 206 -2 -61 callgsubr
          25 -202 -105 callsubr
          endchar
        </CharString>
        <CharString name="uni1E6D">
          -213 183 -8 rmoveto
          -4 callgsubr
          hvcurveto
          -76 callsubr
          15 callsubr
          vhcurveto
          -1 -196 -105 callsubr
          endchar
        </CharString>
        <CharString name="uni1E92">
          -4 62 -57 callsubr
          194 -204 -105 callsubr
          endchar
        </CharString>
        <CharString name="uni1E93">
          -106 51 hmoveto
          -95 callsubr
          154 -204 -105 callsubr
          endchar
        </CharString>
        <CharString name="uni1E9E">
          82 378 -8 rmoveto
          119 73 79 133 130 -60 46 -58 30 hvcurveto
          89 180 rlineto
          1 2 0 2 4 vvcurveto
          26 -21 64 -16 2 vhcurveto
          10 -55 -81 8 -72 hhcurveto
          -164 -86 -94 -182 hvcurveto
          -402 -58 callgsubr
          35 -65 callgsubr
          401 vlineto
          93 29 52 63 30 25 -2 -3 22 vhcurveto
          -82 -164 rlineto
          -1 -2 -1 -4 -4 vvcurveto
          -27 22 -62 17 vhcurveto
          16 hlineto
          51 27 -36 -66 -62 -20 -35 -41 hvcurveto
          -37 -30 27 -11 hhcurveto
          -23 -26 -57 -19 -51 106 -17 40 hvcurveto
          endchar
        </CharString>
        <CharString name="uni1EA0">
          -6 50 -2 -107 callsubr
          -53 -467 -105 callsubr
          endchar
        </CharString>
        <CharString name="uni1EA1">
          -30 175 -8 -106 callgsubr
          19 -303 -105 callsubr
          endchar
        </CharString>
        <CharString name="uni1EA2">
          -6 277 747 -98 callgsubr
          -227 -749 -107 callsubr
          endchar
        </CharString>
        <CharString name="uni1EA3">
          -30 259 570 -98 callgsubr
          -84 -578 -104 callgsubr
        </CharString>
        <CharString name="uni1EA4">
          -20 350 -72 callsubr
          -98 -751 -107 callsubr
          endchar
        </CharString>
        <CharString name="uni1EA5">
          -66 321 709 rmoveto
          -105 callgsubr
          -201 -137 -7 callsubr
          -56 102 rlineto
          18 -9 -20 1 -27 hhcurveto
          -2 hlineto
          -27 -20 -1 -18 -10 hvcurveto
          -55 -102 rlineto
          -4 15 callgsubr
          17 vhcurveto
          55 -580 -104 callgsubr
        </CharString>
        <CharString name="uni1EA6">
          -20 402 -71 callgsubr
          -98 -751 -107 callsubr
          endchar
        </CharString>
        <CharString name="uni1EA7">
          -66 357 709 -99 callgsubr
          -237 -137 -7 callsubr
          -56 102 rlineto
          18 -9 -20 1 -27 hhcurveto
          -2 hlineto
          -27 -20 -1 -18 -10 hvcurveto
          -55 -102 rlineto
          -4 15 callgsubr
          17 vhcurveto
          55 -580 -104 callgsubr
        </CharString>
        <CharString name="uni1EA8">
          -20 374 861 -63 callgsubr
          -226 -112 -97 callgsubr
          -98 -751 -107 callsubr
          endchar
        </CharString>
        <CharString name="uni1EA9">
          -66 366 704 -98 callgsubr
          -246 -132 -7 callsubr
          -56 102 rlineto
          18 -9 -20 1 -27 hhcurveto
          -2 hlineto
          -27 -20 -1 -18 -10 hvcurveto
          -55 -102 rlineto
          -4 15 callgsubr
          17 vhcurveto
          55 -580 -104 callgsubr
        </CharString>
        <CharString name="uni1EAA">
          -20 136 890 -39 callgsubr
          22 -144 -69 callgsubr
          -98 -751 -107 callsubr
          endchar
        </CharString>
        <CharString name="uni1EAB">
          -66 127 740 rmoveto
          -1 4 4 -1 5 hhcurveto
          10 7 6 11 7 hvcurveto
          15 10 8 1 6 hhcurveto
          -1 24 51 -6 callgsubr
          -7 -7 -10 -6 hvcurveto
          -15 -11 -7 -1 -5 21 callgsubr
          -41 -28 -31 -38 -13 hvcurveto
          -3 -7 -1 -5 0 callgsubr
          3 -171 rmoveto
          27 hlineto
          28 7 5 14 13 hvcurveto
          23 39 20 -40 rlineto
          -13 12 9 -5 29 hhcurveto
          28 hlineto
          13 7 4 6 3 -5 11 -4 7 hvcurveto
          -51 74 rlineto
          15 -11 -15 4 -31 hhcurveto
          -2 hlineto
          -33 -14 -4 -15 -11 hvcurveto
          -51 -74 rlineto
          -5 -7 -4 -11 -3 vvcurveto
          -8 5 -2 16 vhcurveto
          55 -580 -104 callgsubr
        </CharString>
        <CharString name="uni1EAC">
          -6 149 749 -107 callgsubr
          -99 -751 -107 callsubr
          -53 -467 -105 callsubr
          endchar
        </CharString>
        <CharString name="uni1EAD">
          -30 131 572 -107 callgsubr
          44 -580 -106 callgsubr
          19 -303 -105 callsubr
          endchar
        </CharString>
        <CharString name="uni1EAE">
          -20 226 864 rmoveto
          35 12 7 8 8 hvcurveto
          61 74 13 16 10 vvcurveto
          19 -14 5 -26 -35 -29 -6 -21 -11 vhcurveto
          -25 -67 -10 -21 -9 vvcurveto
          -11 5 -4 16 vhcurveto
          19 -112 -54 callsubr
          -754 -107 callsubr
          endchar
        </CharString>
        <CharString name="uni1EAF">
          -30 214 752 rmoveto
          -105 callgsubr
          20 -177 -92 callgsubr
        </CharString>
        <CharString name="uni1EB0">
          -20 263 864 rmoveto
          19 6 4 11 9 -8 22 -26 66 hvcurveto
          21 -10 -32 6 -37 hhcurveto
          -28 -15 -4 -16 -10 9 -10 64 -80 hvcurveto
          -10 9 13 -9 36 hhcurveto
          -18 -112 -54 callsubr
          -754 -107 callsubr
          endchar
        </CharString>
        <CharString name="uni1EB1">
          -30 250 752 -99 callgsubr
          -16 -177 -92 callgsubr
        </CharString>
        <CharString name="uni1EB2">
          -20 250 872 -63 callgsubr
          -5 -120 -54 callsubr
          -754 -107 callsubr
          endchar
        </CharString>
        <CharString name="uni1EB3">
          -30 259 747 -98 callgsubr
          -25 -172 -92 callgsubr
        </CharString>
        <CharString name="uni1EB4">
          -20 138 894 -10 callgsubr
          10 7 20 callsubr
          31 hhcurveto
          40 29 33 37 13 hvcurveto
          1 4 2 5 6 vvcurveto
          11 -6 10 -15 5 vhcurveto
          -9 3 rlineto
          1 -4 -4 1 -5 hhcurveto
          -11 -7 -7 -10 -7 hvcurveto
          -14 -10 -7 -2 -6 21 callgsubr
          -40 -29 -31 -38 -13 hvcurveto
          -2 -6 -1 -6 0 callgsubr
          117 -165 -54 callsubr
          -734 -107 callsubr
          endchar
        </CharString>
        <CharString name="uni1EB5">
          -30 105 757 rmoveto
          -106 callsubr
          140 -185 -92 callgsubr
        </CharString>
        <CharString name="uni1EB6">
          -6 252 752 -100 callgsubr
          -202 -754 -107 callsubr
          -53 -467 -105 callsubr
          endchar
        </CharString>
        <CharString name="uni1EB7">
          -30 234 575 -92 callsubr
          19 -303 -105 callsubr
          endchar
        </CharString>
        <CharString name="uni1EB8">
          -54 94 hmoveto
          -103 callgsubr
          147 -204 -105 callsubr
          endchar
        </CharString>
        <CharString name="uni1EB9">
          -57 260 -8 -103 callsubr
          -58 -496 -105 callsubr
          endchar
        </CharString>
        <CharString name="uni1EBA">
          -54 272 747 -98 callgsubr
          -178 -747 rmoveto
          -103 callgsubr
          endchar
        </CharString>
        <CharString name="uni1EBB">
          -57 255 570 -98 callgsubr
          5 -578 -103 callsubr
          endchar
        </CharString>
        <CharString name="uni1EBC">
          -54 118 757 rmoveto
          -106 callsubr
          -13 -760 rmoveto
          -103 callgsubr
          endchar
        </CharString>
        <CharString name="uni1EBD">
          -57 101 580 rmoveto
          -106 callsubr
          170 -591 -103 callsubr
          endchar
        </CharString>
        <CharString name="uni1EBE">
          -68 345 -72 callsubr
          -49 -749 rmoveto
          -103 callgsubr
          endchar
        </CharString>
        <CharString name="uni1EBF">
          -71 327 709 rmoveto
          -105 callgsubr
          -201 -137 -7 callsubr
          -55 102 rlineto
          18 -10 -20 1 -27 hhcurveto
          -2 hlineto
          -26 -21 -1 -18 -10 hvcurveto
          -55 -102 rlineto
          -3 -6 -2 -4 -5 vvcurveto
          -8 4 -2 17 vhcurveto
          134 -580 -103 callsubr
          endchar
        </CharString>
        <CharString name="uni1EC0">
          -68 397 -71 callgsubr
          -49 -749 rmoveto
          -103 callgsubr
          endchar
        </CharString>
        <CharString name="uni1EC1">
          -71 363 709 -99 callgsubr
          -237 -137 -7 callsubr
          -55 102 rlineto
          18 -10 -20 1 -27 hhcurveto
          -2 hlineto
          -26 -21 -1 -18 -10 hvcurveto
          -55 -102 rlineto
          -3 -6 -2 -4 -5 vvcurveto
          -8 4 -2 17 vhcurveto
          134 -580 -103 callsubr
          endchar
        </CharString>
        <CharString name="uni1EC2">
          -68 369 861 -63 callgsubr
          -226 -112 -97 callgsubr
          -49 -749 rmoveto
          -103 callgsubr
          endchar
        </CharString>
        <CharString name="uni1EC3">
          -71 372 704 -98 callgsubr
          -246 -132 -7 callsubr
          -55 102 rlineto
          18 -10 -20 1 -27 hhcurveto
          -2 hlineto
          -26 -21 -1 -18 -10 hvcurveto
          -55 -102 rlineto
          -3 -6 -2 -4 -5 vvcurveto
          -8 4 -2 17 vhcurveto
          134 -580 -103 callsubr
          endchar
        </CharString>
        <CharString name="uni1EC4">
          -68 128 891 rmoveto
          -1 4 4 -1 4 hhcurveto
          11 7 6 11 7 hvcurveto
          15 10 8 1 5 25 51 -29 19 callgsubr
          13 hvcurveto
          1 4 1 5 6 vvcurveto
          11 -5 10 -15 5 vhcurveto
          -10 3 rlineto
          1 -4 -4 1 -4 hhcurveto
          -12 -7 -6 -11 -6 hvcurveto
          -14 -11 -7 -2 -6 hhcurveto
          1 -24 -50 19 callsubr
          -37 -12 hvcurveto
          -3 -7 -1 -6 0 callgsubr
          25 -145 -69 callgsubr
          -49 -749 rmoveto
          -103 callgsubr
          endchar
        </CharString>
        <CharString name="uni1EC5">
          -71 116 740 -39 callsubr
          20 -171 rmoveto
          27 hlineto
          28 7 5 14 14 hvcurveto
          22 39 20 -40 rlineto
          -13 12 9 -5 29 hhcurveto
          28 hlineto
          13 7 4 6 3 -4 11 -5 7 hvcurveto
          -51 74 rlineto
          15 -11 -14 4 -32 hhcurveto
          -2 hlineto
          -33 -14 -4 -15 -11 hvcurveto
          -51 -74 rlineto
          -5 -7 -4 3 callgsubr
          134 -580 -103 callsubr
          endchar
        </CharString>
        <CharString name="uni1EC6">
          -54 144 749 -107 callgsubr
          -50 -749 rmoveto
          -103 callgsubr
          147 -204 -105 callsubr
          endchar
        </CharString>
        <CharString name="uni1EC7">
          -57 127 572 -107 callgsubr
          133 -580 -103 callsubr
          -58 -496 -105 callsubr
          endchar
        </CharString>
        <CharString name="uni1EC8">
          -249 155 747 -98 callgsubr
          -45 -750 rmoveto
          -82 callgsubr
          endchar
        </CharString>
        <CharString name="uni1EC9">
          -257 152 570 -98 callgsubr
          -39 -572 -75 callgsubr
        </CharString>
        <CharString name="uni1ECA">
          -249 110 -3 rmoveto
          -82 callgsubr
          25 -201 -105 callsubr
          endchar
        </CharString>
        <CharString name="uni1ECB">
          -53 callgsubr
          5 -202 -105 callsubr
          endchar
        </CharString>
        <CharString name="uni1ECC">
          88 300 -8 -102 callgsubr
          3 -327 -105 callsubr
          endchar
        </CharString>
        <CharString name="uni1ECD">
          -34 238 -8 0 callsubr
          174 -69 95 -136 -100 callsubr
          6 -313 -105 callsubr
          endchar
        </CharString>
        <CharString name="uni1ECE">
          88 324 747 -98 callgsubr
          -24 -755 -102 callgsubr
          endchar
        </CharString>
        <CharString name="uni1ECF">
          -34 263 570 -98 callgsubr
          -25 -578 0 callsubr
          174 -69 95 -136 -62 callgsubr
        </CharString>
        <CharString name="uni1ED0">
          74 397 -72 callsubr
          105 -757 -102 callgsubr
          endchar
        </CharString>
        <CharString name="uni1ED1">
          -48 335 709 rmoveto
          -105 callgsubr
          -201 -137 -97 callgsubr
          104 -580 0 callsubr
          174 -69 95 -136 -62 callgsubr
        </CharString>
        <CharString name="uni1ED2">
          74 449 -71 callgsubr
          105 -757 -102 callgsubr
          endchar
        </CharString>
        <CharString name="uni1ED3">
          -48 371 709 -99 callgsubr
          -237 -137 -97 callgsubr
          104 -580 0 callsubr
          174 -69 95 -136 -62 callgsubr
        </CharString>
        <CharString name="uni1ED4">
          74 421 861 -63 callgsubr
          -226 -112 -97 callgsubr
          105 -757 -102 callgsubr
          endchar
        </CharString>
        <CharString name="uni1ED5">
          -48 380 704 -98 callgsubr
          -246 -132 -97 callgsubr
          104 -580 0 callsubr
          174 -69 95 -136 -62 callgsubr
        </CharString>
        <CharString name="uni1ED6">
          74 185 889 rmoveto
          -1 4 4 -1 4 hhcurveto
          11 6 5 12 8 hvcurveto
          14 10 8 2 5 hhcurveto
          -1 25 51 -28 19 callgsubr
          12 hvcurveto
          1 4 2 4 6 vvcurveto
          11 -6 11 -15 5 vhcurveto
          -9 3 rlineto
          1 -4 -4 1 -5 hhcurveto
          -11 -7 -7 -10 -7 hvcurveto
          -15 -10 -7 -1 -6 hhcurveto
          1 -25 -49 19 callsubr
          -38 -12 hvcurveto
          -3 -7 -1 -6 -3 vvcurveto
          -10 5 -11 16 -5 vhcurveto
          20 -143 -69 callgsubr
          105 -757 -102 callgsubr
          endchar
        </CharString>
        <CharString name="uni1ED7">
          -48 121 740 -10 callgsubr
          9 8 1 6 hhcurveto
          -1 25 50 -6 callgsubr
          -6 -7 -10 -7 hvcurveto
          -15 -11 -7 -1 -5 21 callgsubr
          -41 -28 -31 -38 -13 hvcurveto
          -2 -7 -1 -5 0 callgsubr
          23 -171 -69 callgsubr
          104 -580 0 callsubr
          174 -69 95 -136 -62 callgsubr
        </CharString>
        <CharString name="uni1ED8">
          88 196 749 -107 callgsubr
          104 -757 -102 callgsubr
          3 -327 -105 callsubr
          endchar
        </CharString>
        <CharString name="uni1ED9">
          -34 135 572 -107 callgsubr
          103 -580 0 callsubr
          174 -69 95 -136 -100 callsubr
          6 -313 -105 callsubr
          endchar
        </CharString>
        <CharString name="uni1EDA">
          88 279 752 rmoveto
          -105 callgsubr
          21 -760 -87 callgsubr
        </CharString>
        <CharString name="uni1EDB">
          -34 218 575 rmoveto
          -105 callgsubr
          20 -583 -86 callgsubr
        </CharString>
        <CharString name="uni1EDC">
          88 315 752 -99 callgsubr
          -15 -760 -87 callgsubr
        </CharString>
        <CharString name="uni1EDD">
          -34 254 575 -99 callgsubr
          -16 -583 -86 callgsubr
        </CharString>
        <CharString name="uni1EDE">
          88 324 747 -98 callgsubr
          -24 -755 -87 callgsubr
        </CharString>
        <CharString name="uni1EDF">
          -34 263 570 -98 callgsubr
          -25 -578 -86 callgsubr
        </CharString>
        <CharString name="uni1EE0">
          88 170 757 rmoveto
          -106 callsubr
          141 -768 -87 callgsubr
        </CharString>
        <CharString name="uni1EE1">
          -34 109 580 rmoveto
          -106 callsubr
          140 -591 -86 callgsubr
        </CharString>
        <CharString name="uni1EE2">
          88 300 -8 -44 callgsubr
          114 -21 86 -38 58 hvcurveto
          70 5 31 36 53 vvcurveto
          -85 callsubr
          -14 27 -15 -28 vvcurveto
          -20 -10 -11 -25 -13 -12 2 9 -13 vhcurveto
          28 -37 -48 18 -66 hhcurveto
          -166 -96 -107 -251 -251 96 -107 166 hvcurveto
          1 131 rmoveto
          -69 -35 49 178 178 35 48 69 68 34 -48 -178 -178 -34 -49 -68 hvcurveto
          3 -327 -105 callsubr
          endchar
        </CharString>
        <CharString name="uni1EE3">
          -34 238 -8 0 callsubr
          85 -16 65 -33 46 hvcurveto
          69 6 31 35 52 vvcurveto
          -85 callsubr
          -12 27 -17 -27 vvcurveto
          -19 -15 -13 -24 -16 -17 6 6 -15 vhcurveto
          11 -27 -29 8 -34 hhcurveto
          -100 callsubr
          6 -313 -105 callsubr
          endchar
        </CharString>
        <CharString name="uni1EE4">
          72 292 -8 rmoveto
          150 90 78 135 hvcurveto
          465 -67 callgsubr
          -39 -99 callsubr
          vhcurveto
          4 -196 -105 callsubr
          endchar
        </CharString>
        <CharString name="uni1EE5">
          163 -9 -101 callsubr
          69 -195 -105 callsubr
          endchar
        </CharString>
        <CharString name="uni1EE6">
          72 316 747 -98 callgsubr
          -24 -755 rmoveto
          150 90 78 135 hvcurveto
          465 -67 callgsubr
          -39 -99 callsubr
          vhcurveto
          endchar
        </CharString>
        <CharString name="uni1EE7">
          264 570 -98 callgsubr
          -101 -579 -101 callsubr
          endchar
        </CharString>
        <CharString name="uni1EE8">
          59 264 752 rmoveto
          -105 callgsubr
          337 1 -89 callsubr
          endchar
        </CharString>
        <CharString name="uni1EE9">
          -43 212 575 rmoveto
          -105 callgsubr
          283 hmoveto
          -91 callgsubr
          endchar
        </CharString>
        <CharString name="uni1EEA">
          59 300 752 -99 callgsubr
          301 1 -89 callsubr
          endchar
        </CharString>
        <CharString name="uni1EEB">
          -43 248 575 -99 callgsubr
          247 hmoveto
          -91 callgsubr
          endchar
        </CharString>
        <CharString name="uni1EEC">
          59 309 747 -98 callgsubr
          292 6 -89 callsubr
          endchar
        </CharString>
        <CharString name="uni1EED">
          -43 257 570 -98 callgsubr
          238 5 rmoveto
          -91 callgsubr
          endchar
        </CharString>
        <CharString name="uni1EEE">
          59 155 757 rmoveto
          -106 callsubr
          457 -7 -89 callsubr
          endchar
        </CharString>
        <CharString name="uni1EEF">
          -43 110 580 -39 callgsubr
          395 -8 rmoveto
          -91 callgsubr
          endchar
        </CharString>
        <CharString name="uni1EF0">
          59 601 753 -89 callsubr
          -312 -957 -105 callsubr
          endchar
        </CharString>
        <CharString name="uni1EF1">
          -43 495 575 rmoveto
          -91 callgsubr
          -270 -779 -105 callsubr
          endchar
        </CharString>
        <CharString name="uni1EF4">
          -27 223 -2 -89 callgsubr
          25 -202 -105 callsubr
          endchar
        </CharString>
        <CharString name="uni1EF4.loclGUA">
          -13 392 701 -96 callgsubr
          -155 -781 -18 callgsubr
        </CharString>
        <CharString name="uni1EF5">
          -103 404 503 rmoveto
          14 -17 8 -41 vhcurveto
          -96 callsubr
          -61 -605 -18 callgsubr
        </CharString>
        <CharString name="uni1EF5.loclGUA">
          432 93 -97 callsubr
          56 -174 -18 callgsubr
        </CharString>
        <CharString name="uni1EF6">
          -27 266 747 -98 callgsubr
          -43 -749 -90 callsubr
        </CharString>
        <CharString name="uni1EF6.loclGUA">
          -13 207 855 -31 callgsubr
          185 -154 -96 callgsubr
          endchar
        </CharString>
        <CharString name="uni1EF7">
          -103 167 678 -31 callgsubr
          179 -153 rmoveto
          -96 callsubr
          14 -17 8 -41 vhcurveto
          endchar
        </CharString>
        <CharString name="uni1EF7.loclGUA">
          203 678 -31 callgsubr
          229 -585 -97 callsubr
          endchar
        </CharString>
        <CharString name="uni1EF8">
          -27 112 757 rmoveto
          -106 callsubr
          122 -762 -90 callsubr
        </CharString>
        <CharString name="uni1EF8.loclGUA">
          -13 103 760 rmoveto
          11 -3 rlineto
          -106 callsubr
          289 -59 -96 callgsubr
          endchar
        </CharString>
        <CharString name="uni1EF9">
          -103 63 583 rmoveto
          11 -3 rlineto
          -106 callsubr
          283 -58 rmoveto
          -96 callsubr
          14 -17 8 -41 vhcurveto
          endchar
        </CharString>
        <CharString name="uni1EF9.loclGUA">
          99 583 rmoveto
          11 -3 rlineto
          -106 callsubr
          333 -490 -97 callsubr
          endchar
        </CharString>
        <CharString name="uni2002">
          -25 endchar
        </CharString>
        <CharString name="uni2003">
          375 endchar
        </CharString>
        <CharString name="uni2004">
          -220 endchar
        </CharString>
        <CharString name="uni2005">
          -290 endchar
        </CharString>
        <CharString name="uni20B2">
          27 458 410 rmoveto
          -170 -19 callgsubr
          56 -146 hlineto
          -3 -13 -13 -1 -15 hhcurveto
          -70 -43 52 171 152 38 70 86 hvcurveto
          67 29 -26 13 hhcurveto
          25 38 63 27 32 -76 34 -85 4 hvcurveto
          31 vlineto
          21 -9 9 -21 -18 -9 -9 -21 vhcurveto
          -32 vlineto
          -163 -15 -75 -117 -222 vvcurveto
          -231 76 -114 162 -14 vhcurveto
          -44 vlineto
          -21 9 -9 21 18 9 9 21 vhcurveto
          44 vlineto
          76 5 94 29 45 vvcurveto
          298 vlineto
          28 -12 12 -25 vhcurveto
          endchar
        </CharString>
        <CharString name="uni2113">
          -168 173 -8 rmoveto
          38 82 13 46 12 -11 60 -20 hvcurveto
          -12 -20 -14 -19 hhcurveto
          -22 -8 13 30 hvcurveto
          138 vlineto
          88 85 62 131 113 vvcurveto
          74 -33 62 -81 -74 -113 -27 -272 vhcurveto
          -180 vlineto
          -51 -36 rlineto
          -11 -7 -5 -12 -11 vvcurveto
          -7 2 -7 3 -5 vhcurveto
          -11 6 8 -7 11 hhcurveto
          5 5 1 4 6 hvcurveto
          21 15 rlineto
          -39 vlineto
          -111 51 -51 92 vhcurveto
          8 400 rmoveto
          252 22 19 31 20 8 -16 -29 -86 -38 -79 -43 -61 vhcurveto
          endchar
        </CharString>
        <CharString name="uni2126">
          74 -52 callgsubr
        </CharString>
        <CharString name="uni2153">
          123 -70 callgsubr
          345 -7 -77 callsubr
          endchar
        </CharString>
        <CharString name="uni2154">
          181 29 293 rmoveto
          -59 callgsubr
          167 -293 rmoveto
          16 hlineto
          19 15 7 20 8 hvcurveto
          266 647 rlineto
          3 7 2 4 4 vvcurveto
          7 -6 4 -14 vhcurveto
          -16 hlineto
          -18 -17 -7 -19 -7 hvcurveto
          -266 -648 rlineto
          -2 -6 -3 -5 -4 vvcurveto
          -8 7 -3 13 vhcurveto
          349 -7 -77 callsubr
          endchar
        </CharString>
        <CharString name="uni2206">
          55 -32 callsubr
        </CharString>
        <CharString name="uni2215">
          -290 -10 -20 callgsubr
        </CharString>
        <CharString name="uni2219">
          -286 113 289 rmoveto
          37 28 31 39 39 -28 31 -37 -36 -29 -31 -39 -39 29 -31 36 hvcurveto
          endchar
        </CharString>
        <CharString name="uni25CC">
          -31 240 521 rmoveto
          -18 callsubr
          -68 -15 rmoveto
          -67 callsubr
          137 -1 rmoveto
          -67 callsubr
          -195 -44 rmoveto
          -67 callsubr
          252 hmoveto
          -67 callsubr
          -288 -68 rmoveto
          -18 callsubr
          326 hmoveto
          -67 callsubr
          -339 -84 rmoveto
          -67 callsubr
          351 hmoveto
          -18 callsubr
          -338 -84 rmoveto
          -67 callsubr
          326 hmoveto
          -67 callsubr
          -37 -68 rmoveto
          -67 callsubr
          -252 -1 rmoveto
          -67 callsubr
          194 -45 rmoveto
          -67 callsubr
          -137 -1 rmoveto
          -67 callsubr
          68 -14 rmoveto
          -18 callsubr
          endchar
        </CharString>
        <CharString name="uogonek">
          498 -79 rmoveto
          -31 callsubr
          18 4 22 8 23 hvcurveto
          3 3 2 3 4 vvcurveto
          0 0 1 0 vhcurveto
          15 -10 27 97 vvcurveto
          319 -54 callgsubr
          -40 vhcurveto
          -35 -77 callgsubr
          7 17 1 2 18 hvcurveto
          -8 -24 -3 -22 -2 callsubr
          endchar
        </CharString>
        <CharString name="uring">
          238 -35 callgsubr
          -76 -621 -101 callsubr
          endchar
        </CharString>
        <CharString name="utilde">
          110 580 rmoveto
          -106 callsubr
          64 -592 -101 callsubr
          endchar
        </CharString>
        <CharString name="v">
          -99 178 -2 rmoveto
          56 hlineto
          28 20 5 16 4 hvcurveto
          119 466 rlineto
          2 7 0 6 5 vvcurveto
          14 -16 8 -36 vhcurveto
          -40 hlineto
          -28 -22 -5 -16 -3 hvcurveto
          -35 -222 -6 -41 -5 -53 -6 -50 rlinecurve
          -4 hlineto
          -6 50 -4 52 -7 42 -35 222 rcurveline
          16 -3 -22 5 -28 hhcurveto
          -44 hlineto
          -36 -16 -8 -14 -5 0 -6 2 -7 hvcurveto
          119 -466 rlineto
          -16 4 21 -5 27 hhcurveto
          endchar
        </CharString>
        <CharString name="w">
          105 162 -2 -94 callsubr
        </CharString>
        <CharString name="wacute">
          105 287 575 rmoveto
          -105 callgsubr
          -125 -577 -94 callsubr
        </CharString>
        <CharString name="wcircumflex">
          105 204 572 -107 callgsubr
          -42 -574 -94 callsubr
        </CharString>
        <CharString name="wdieresis">
          105 229 578 -102 callsubr
          -229 -580 -94 callsubr
        </CharString>
        <CharString name="wgrave">
          105 323 575 -99 callgsubr
          -161 -577 -94 callsubr
        </CharString>
        <CharString name="x">
          -107 27 hmoveto
          71 hlineto
          28 20 -2 19 6 hvcurveto
          41 140 3 11 2 10 3 11 rlinecurve
          9 -32 39 -140 rlineto
          -19 5 22 2 28 hhcurveto
          62 hlineto
          25 12 5 11 6 -4 8 -6 11 hvcurveto
          -117 224 115 216 rlineto
          6 12 3 7 7 vvcurveto
          11 -20 7 -39 vhcurveto
          -36 hlineto
          -27 -23 0 -19 -6 hvcurveto
          -37 -128 -4 -13 -2 -11 -3 -12 rlinecurve
          -9 35 -36 129 rlineto
          19 -5 -24 0 -27 hhcurveto
          -37 hlineto
          -39 -20 -7 -11 -7 3 -7 6 -12 hvcurveto
          113 -216 -119 -224 rlineto
          -5 -11 -4 -8 -6 vvcurveto
          -10 9 -6 18 vhcurveto
          endchar
        </CharString>
        <CharString name="y">
          -103 346 525 rmoveto
          -96 callsubr
          14 -17 8 -41 vhcurveto
          endchar
        </CharString>
        <CharString name="y.loclGUA">
          432 93 -97 callsubr
          endchar
        </CharString>
        <CharString name="yacute">
          -103 183 575 rmoveto
          -105 callgsubr
          163 -50 rmoveto
          -96 callsubr
          14 -17 8 -41 vhcurveto
          endchar
        </CharString>
        <CharString name="yacute.loclGUA">
          219 575 rmoveto
          -105 callgsubr
          213 -482 -97 callsubr
          endchar
        </CharString>
        <CharString name="ycircumflex">
          -103 100 572 -107 callgsubr
          246 -47 rmoveto
          -96 callsubr
          14 -17 8 -41 vhcurveto
          endchar
        </CharString>
        <CharString name="ycircumflex.loclGUA">
          136 572 -107 callgsubr
          296 -479 -97 callsubr
          endchar
        </CharString>
        <CharString name="ydieresis">
          -103 125 578 -102 callsubr
          59 -53 rmoveto
          -96 callsubr
          14 -17 8 -41 vhcurveto
          endchar
        </CharString>
        <CharString name="ydieresis.loclGUA">
          161 578 -102 callsubr
          109 -485 -97 callsubr
          endchar
        </CharString>
        <CharString name="yen">
          -41 482 682 rmoveto
          12 -19 8 -44 vhcurveto
          -42 hlineto
          -28 -22 -3 -16 -5 hvcurveto
          -77 -246 -78 246 rlineto
          15 -5 -23 4 -27 hhcurveto
          -51 hlineto
          -40 -20 -8 -12 -6 4 -9 5 -10 hvcurveto
          115 -265 rlineto
          -65 hlineto
          17 callgsubr
          98 hlineto
          6 -15 rlineto
          -49 -104 vlineto
          17 callgsubr
          104 -148 hlineto
          5 callsubr
          39 -65 callsubr
          1 hvcurveto
          148 92 vlineto
          20 9 9 21 hvcurveto
          15 vlineto
          21 -9 9 -20 vhcurveto
          -92 46 hlineto
          7 17 rlineto
          85 hlineto
          20 9 10 21 hvcurveto
          15 vlineto
          21 -9 9 -20 vhcurveto
          -52 hlineto
          114 265 rlineto
          4 11 3 8 6 vvcurveto
          endchar
        </CharString>
        <CharString name="ygrave">
          -103 219 575 -99 callgsubr
          127 -50 rmoveto
          -96 callsubr
          14 -17 8 -41 vhcurveto
          endchar
        </CharString>
        <CharString name="ygrave.loclGUA">
          255 575 -99 callgsubr
          177 -482 -97 callsubr
          endchar
        </CharString>
        <CharString name="z">
          -106 51 hmoveto
          -95 callsubr
          endchar
        </CharString>
        <CharString name="zacute">
          -106 183 575 rmoveto
          -105 callgsubr
          -132 -575 rmoveto
          -95 callsubr
          endchar
        </CharString>
        <CharString name="zacute.loclPLK">
          -106 185 575 -81 callgsubr
          -134 -575 rmoveto
          -95 callsubr
          endchar
        </CharString>
        <CharString name="zcaron">
          -106 200 572 -104 callsubr
          -149 -572 rmoveto
          -95 callsubr
          endchar
        </CharString>
        <CharString name="zdotaccent">
          -106 206 -80 callgsubr
          -155 -578 rmoveto
          -95 callsubr
          endchar
        </CharString>
        <CharString name="zero">
          -52 229 -8 rmoveto
          140 65 133 225 225 -65 133 -140 -140 -64 -133 -225 -225 64 -133 140 hvcurveto
          117 vmoveto
          -36 -16 40 201 201 16 40 36 36 16 -40 -201 -201 -16 -40 -36 hvcurveto
          endchar
        </CharString>
      <CharString index="0">
        rmoveto
        27 hlineto
        25 16 5 14 9 hvcurveto
        26 45 26 -46 rlineto
        -13 7 18 -5 26 hhcurveto
        28 hlineto
        13 -10 callsubr
        -3 7 -4 7 hvcurveto
        -60 100 rlineto
        17 -11 -19 2 -27 hhcurveto
        -2 hlineto
        -26 -20 -2 -17 -11 hvcurveto
        -59 -100 rlineto
        -4 -7 -3 -7 -3 vvcurveto
        -7 7 -3 14 vhcurveto
        return
      </CharString>
      <CharString index="1">
        rmoveto
        58 36 35 23 14 hvcurveto
        -29 7 5 -22 24 -17 callgsubr
        182 vlineto
        101 -52 72 -146 -79 -82 -31 -35 -21 31 -59 21 vhcurveto
        14 32 29 52 hhcurveto
        43 18 -21 -42 hvcurveto
        -16 vlineto
        -206 1 -27 -111 -76 vvcurveto
        -95 47 -62 90 vhcurveto
        45 107 rmoveto
        -32 -17 25 36 52 26 37 74 hvcurveto
        -117 vlineto
        -20 -10 -20 -13 -21 hhcurveto
        return
      </CharString>
      <CharString index="2">
        50 13 13 12 9 hvcurveto
        83 107 5 1 12 vvcurveto
        11 -18 3 -36 -36 -33 -7 -20 -10 vhcurveto
        -40 -80 -16 -26 -11 vvcurveto
        -11 6 -4 23 vhcurveto
        return
      </CharString>
      <CharString index="3">
        -106 callgsubr
        endchar
      </CharString>
      <CharString index="4">
        296 hlineto
        20 2 callgsubr
        -20 vhcurveto
        -177 162 156 hlineto
        20 9 15 35 hvcurveto
        31 -30 callsubr
        -156 145 176 hlineto
        20 9 15 35 hvcurveto
        31 -30 callsubr
        -295 hlineto
        -26 -25 callsubr
        -620 vlineto
        -9 callgsubr
        26 vhcurveto
        return
      </CharString>
      <CharString index="5">
        -44 callgsubr
        250 -94 108 -167 -166 -96 -107 -251 -251 96 -107 166 hvcurveto
        1 131 rmoveto
        -69 -35 49 178 178 35 48 69 68 34 -48 -178 -178 -34 -49 -68 hvcurveto
        return
      </CharString>
      <CharString index="6">
        rmoveto
        24 -68 callsubr
        329 vlineto
        23 -4 22 20 callgsubr
        3 8 -21 8 -23 11 -20 rlinecurve
        191 -340 rlineto
        -24 11 19 -4 24 hhcurveto
        19 hlineto
        40 -41 callgsubr
        640 -14 callgsubr
        vhcurveto
        -24 -88 callsubr
        -319 vlineto
        -26 4 -27 4 -26 vhcurveto
        -4 -2 -10 26 -10 26 -14 26 rlinecurve
        -180 326 rlineto
        25 -11 -19 3 -22 hhcurveto
        -26 -64 callgsubr
        return
      </CharString>
      <CharString index="7">
        rmoveto
        93 38 58 48 26 -19 8 -21 -14 -10 -7 -9 -4 hvcurveto
        -10 -6 -3 -23 -53 hhcurveto
        -50 -4 20 11 -7 hvcurveto
        11 -5 -9 7 -16 hhcurveto
        -22 -18 -8 -26 -49 39 -57 91 hvcurveto
        return
      </CharString>
      <CharString index="8">
        rmoveto
        24 5 4 11 11 -13 25 -42 81 hvcurveto
        20 -11 -33 7 -36 hhcurveto
        -36 -18 -3 -11 -12 5 -2 84 -106 hvcurveto
        -11 8 13 -14 50 hhcurveto
        return
      </CharString>
      <CharString index="9">
        rmoveto
        18 82 49 53 49 -39 30 -72 -35 -45 -18 -13 -15 22 -27 8 hvcurveto
        9 11 12 22 hhcurveto
        16 16 -8 -14 hvcurveto
        -30 -67 -28 -17 vvcurveto
        -8 30 -15 24 vhcurveto
        return
      </CharString>
      <CharString index="10">
        rmoveto
        27 hlineto
        20 21 2 17 9 hvcurveto
        20 45 20 -46 rlineto
        -12 7 18 -6 26 hhcurveto
        28 hlineto
        12 8 3 7 4 -2 5 -3 6 hvcurveto
        -56 102 rlineto
        18 -10 -20 1 -27 hhcurveto
        -2 hlineto
        -26 -21 -1 -18 -10 hvcurveto
        -55 -102 rlineto
        -3 15 callgsubr
        16 vhcurveto
        return
      </CharString>
      <CharString index="11">
        rmoveto
        -28 hlineto
        -42 -18 -11 -21 hvcurveto
        -281 vlineto
        -27 -10 -16 -31 -34 hhcurveto
        -37 -17 20 36 hvcurveto
        283 -98 callsubr
        -305 vlineto
        -104 46 -52 98 53 40 23 35 25 vhcurveto
        -47 vlineto
        -74 -33 -37 -68 vhcurveto
        -77 -50 40 -12 hhcurveto
        -9 -10 -11 -27 -11 1 -20 2 -17 hvcurveto
        -43 7 89 -28 97 hhcurveto
        149 62 92 190 hvcurveto
        396 -12 callgsubr
        return
      </CharString>
      <CharString index="12">
        rmoveto
        151 67 101 108 105 -43 51 -87 51 hvcurveto
        -53 31 -51 17 64 vvcurveto
        22 10 34 60 14 17 -2 -13 34 vhcurveto
        -5 13 10 -3 6 hhcurveto
        24 16 54 30 15 -6 11 -12 9 hvcurveto
        21 -28 -58 15 -45 hhcurveto
        -124 -86 -70 -122 -114 50 -53 94 -53 hvcurveto
        49 -27 43 -22 -58 vvcurveto
        -54 -44 -12 -33 -19 -23 6 14 -27 vhcurveto
        13 -24 -16 11 -11 hhcurveto
        -27 -22 -54 -34 1 hvcurveto
        -12 5 -11 8 -10 vhcurveto
        -35 31 74 -19 62 hhcurveto
        return
      </CharString>
      <CharString index="13">
        rmoveto
        130 80 62 105 91 -60 30 -64 15 hvcurveto
        -60 14 -55 0 39 vvcurveto
        23 18 11 30 1 vhcurveto
        95 3 68 56 111 vvcurveto
        29 -7 26 -10 15 vhcurveto
        2 4 rlineto
        -2 8 17 -2 9 hhcurveto
        16 7 13 30 hvcurveto
        16 vlineto
        31 -8 14 -19 vhcurveto
        -130 hlineto
        5 -21 -22 3 -22 hhcurveto
        -105 -77 -54 -125 -73 27 -49 45 -27 hvcurveto
        -30 -21 -18 -28 -36 vvcurveto
        -32 13 -28 28 -16 vhcurveto
        -3 vlineto
        -49 -24 -27 -39 -55 vvcurveto
        -89 68 -44 123 vhcurveto
        488 vmoveto
        -30 -26 15 63 63 26 16 30 31 26 -16 -63 -63 -26 -15 -31 hvcurveto
        13 -382 rmoveto
        -47 -30 16 34 24 14 22 23 13 hvcurveto
        71 -11 43 -5 -41 vvcurveto
        -32 -24 -20 -50 vhcurveto
        endchar
      </CharString>
      <CharString index="14">
        rmoveto
        -51 callgsubr
        23 hhcurveto
        29 8 -27 callsubr
        -38 48 -74 -61 -44 -38 -38 -26 vhcurveto
        36 -7 3 31 -34 hhcurveto
        -21 -94 -7 -28 hvcurveto
        -14 10 -26 -98 vvcurveto
        -319 vlineto
        -21 17 -11 40 vhcurveto
        return
      </CharString>
      <CharString index="15">
        -92 callsubr
        endchar
      </CharString>
      <CharString index="16">
        -85 callsubr
        -13 27 -18 -24 vvcurveto
        -18 -11 -14 -30 vhcurveto
        -42 -77 callgsubr
        21 94 6 -11 callgsubr
        -10 26 99 vvcurveto
        314 vlineto
        48 12 22 32 43 vvcurveto
        return
      </CharString>
      <CharString index="17">
        rmoveto
        -12 hlineto
        -49 -4 -12 -34 -8 hvcurveto
        21 -19 -35 31 -48 hhcurveto
        -95 -65 -87 -174 -125 32 -141 124 41 31 22 31 20 hvcurveto
        -30 vlineto
        -80 1 -30 -42 -59 -60 -38 34 -13 hhcurveto
        -10 -6 -13 -25 -15 2 -19 5 -17 hvcurveto
        -36 8 73 -26 84 hhcurveto
        136 55 95 199 hvcurveto
        418 vlineto
        16 -1 -20 9 -40 hhcurveto
        -132 -400 rmoveto
        -46 -8 63 79 114 22 33 38 17 14 -9 -11 11 hvcurveto
        -1 -13 -2 -26 -30 vvcurveto
        -159 vlineto
        -23 -11 -13 -18 -21 hhcurveto
        endchar
      </CharString>
      <CharString index="18">
        rmoveto
        39 -65 callsubr
        1 hvcurveto
        269 vlineto
        154 358 rlineto
        4 11 3 8 6 vvcurveto
        12 -19 8 -44 vhcurveto
        -42 hlineto
        -28 -22 -3 -16 -5 hvcurveto
        -77 -246 -78 246 rlineto
        15 -5 -23 4 -27 hhcurveto
        -51 hlineto
        -40 -20 -8 -12 -6 4 -9 5 -10 hvcurveto
        154 -355 rlineto
        -272 vlineto
        5 callsubr
        return
      </CharString>
      <CharString index="19">
        rmoveto
        111 63 72 97 81 -44 36 -40 26 hvcurveto
        -37 24 -38 13 35 vvcurveto
        24 16 10 25 vhcurveto
        32 23 -18 9 hhcurveto
        17 24 57 24 43 -81 15 -49 -97 -68 -59 -102 -90 52 -34 42 -25 hvcurveto
        35 -20 30 -15 -35 vvcurveto
        -24 -15 -14 -26 vhcurveto
        -36 -23 27 -12 hhcurveto
        -20 -34 -55 -28 -42 78 -23 63 hvcurveto
        return
      </CharString>
      <CharString index="20">
        -44 callgsubr
        114 -21 86 -38 58 hvcurveto
        70 5 31 36 53 vvcurveto
        -85 callsubr
        -14 27 -15 -28 vvcurveto
        -20 -10 -11 -25 -13 -12 2 9 -13 vhcurveto
        28 -37 -48 18 -66 hhcurveto
        -62 callsubr
      </CharString>
      <CharString index="21">
        0 callsubr
        85 -16 65 -33 46 hvcurveto
        69 6 31 35 52 vvcurveto
        -85 callsubr
        -12 27 -17 -27 vvcurveto
        -19 -15 -13 -24 -16 -17 6 6 -15 vhcurveto
        11 -27 -29 8 -34 hhcurveto
        -62 callgsubr
      </CharString>
      <CharString index="22">
        rmoveto
        43 40 8 7 20 hvcurveto
        25 9 4 16 17 vvcurveto
        58 -16 42 -33 -10 vhcurveto
        -6 -21 -16 -5 -29 hhcurveto
        -88 -36 76 147 148 38 74 81 27 21 -5 -5 16 hvcurveto
        27 -10 19 51 1 46 1 21 -6 19 -26 7 rrcurveto
        5 -18 -33 6 -36 hhcurveto
        -187 -85 7 callsubr
        79 -113 188 hvcurveto
        endchar
      </CharString>
      <CharString index="23">
        rmoveto
        191 hlineto
        21 8 12 -11 callgsubr
        vlineto
        28 -8 12 -21 vhcurveto
        -191 hlineto
        -20 -9 -23 callsubr
        -15 vlineto
        -28 9 -12 20 vhcurveto
        return
      </CharString>
      <CharString index="24">
        -583 -106 callgsubr
        return
      </CharString>
      <CharString index="25">
        42 hlineto
        40 17 12 21 hvcurveto
        -12 callsubr
        12 2 callsubr
        -41 -17 -12 -23 callgsubr
        -12 41 vhcurveto
        return
      </CharString>
      <CharString index="26">
        rmoveto
        50 14 11 14 8 hvcurveto
        50 88 14 20 12 vvcurveto
        11 -18 3 -36 -36 -37 -5 -22 -6 vhcurveto
        -24 -78 -8 -28 -11 vvcurveto
        -11 6 -4 23 vhcurveto
        return
      </CharString>
      <CharString index="27">
        578 -105 callsubr
        return
      </CharString>
      <CharString index="28">
        rmoveto
        -165 -19 callgsubr
        51 -146 hlineto
        -3 -13 -13 -1 -15 hhcurveto
        -70 -43 52 171 152 38 70 86 hvcurveto
        67 29 -26 13 hhcurveto
        25 38 63 27 34 -88 37 -93 -189 -86 7 callsubr
        87 -113 186 79 113 31 49 hvcurveto
        298 vlineto
        28 -12 12 -25 vhcurveto
        return
      </CharString>
      <CharString index="29">
        463 -98 callsubr
        -463 -58 callgsubr
        return
      </CharString>
      <CharString index="30">
        hlineto
        -39 -18 -10 -22 hvcurveto
        -348 vlineto
        -15 -11 -16 -17 -23 hhcurveto
        -29 -8 18 32 hvcurveto
        330 -67 callgsubr
        -34 -88 callsubr
        -363 vlineto
        -91 40 -48 77 59 42 38 38 25 vhcurveto
        -33 callsubr
        return
      </CharString>
      <CharString index="31">
        rmoveto
        38 56 11 36 21 -10 53 -19 hvcurveto
        -5 -10 -4 -7 hhcurveto
        -17 -7 10 23 hvcurveto
        580 -98 callsubr
        -578 vlineto
        -104 46 -48 83 vhcurveto
        return
      </CharString>
      <CharString index="32">
        -86 callsubr
        endchar
      </CharString>
      <CharString index="33">
        30 9 13 22 vhcurveto
        8 13 -5 7 hhcurveto
        20 11 64 8 40 -67 10 -30 -91 -50 -51 -111 hvcurveto
        -75 -12 vlineto
        -21 -49 callgsubr
        -17 -50 callsubr
        21 vhcurveto
        12 -376 hlineto
        -14 callsubr
        42 vhcurveto
        return
      </CharString>
      <CharString index="34">
        -24 47 4 -24 vvcurveto
        -12 -9 -4 -11 vhcurveto
        -29 -18 21 -18 hhcurveto
        -10 -22 -16 -26 -27 48 -25 58 62 42 30 60 44 -27 24 -37 6 hvcurveto
        return
      </CharString>
      <CharString index="35">
        190 hlineto
        176 77 118 232 232 -77 118 -176 hvcurveto
        -190 hlineto
        -26 -25 callsubr
        -620 vlineto
        -9 callgsubr
        26 vhcurveto
        121 131 rmoveto
        438 64 vlineto
        70 29 -58 -161 -161 -29 -58 -70 hvcurveto
        return
      </CharString>
      <CharString index="36">
        853 rmoveto
        19 6 4 11 9 -9 22 -25 66 hvcurveto
        21 -10 -32 6 -37 hhcurveto
        -28 -15 -4 -16 -10 9 -10 64 -80 hvcurveto
        -10 9 13 -9 36 hhcurveto
        -254 -104 -97 callgsubr
        return
      </CharString>
      <CharString index="37">
        139 293 rmoveto
        19 hlineto
        26 8 7 12 hvcurveto
        378 vlineto
        7 -15 7 -6 vhcurveto
        -137 -25 rlineto
        -10 -2 -4 -6 -9 vvcurveto
        -16 3 -34 16 vhcurveto
        65 12 rlineto
        -312 vlineto
        -12 10 -7 25 vhcurveto
        1 -293 rmoveto
        16 hlineto
        19 15 7 20 8 hvcurveto
        267 647 rlineto
        2 7 2 4 4 vvcurveto
        7 -6 4 -14 vhcurveto
        -16 hlineto
        -18 -17 -7 -19 -7 hvcurveto
        -265 -648 rlineto
        -3 -6 -3 -5 -4 vvcurveto
        -8 7 -3 13 vhcurveto
        return
      </CharString>
      <CharString index="38">
        rmoveto
        27 hlineto
        28 8 5 14 13 hvcurveto
        22 39 21 -40 rlineto
        -13 11 9 -5 29 hhcurveto
        28 hlineto
        13 7 4 6 3 -4 11 -5 7 hvcurveto
        -51 74 rlineto
        15 -11 -14 4 -32 hhcurveto
        -2 hlineto
        -32 -15 -4 -15 -11 hvcurveto
        -51 -74 rlineto
        -4 -7 -5 3 callgsubr
        return
      </CharString>
      <CharString index="39">
        vvcurveto
        -27 9 -67 88 19 20 4 8 17 vhcurveto
        12 7 5 10 14 vvcurveto
        24 -10 6 -20 vhcurveto
        return
      </CharString>
      <CharString index="40">
        -56 callsubr
        vhcurveto
        return
      </CharString>
      <CharString index="41">
        11 21 hvcurveto
        return
      </CharString>
      <CharString index="42">
        hlineto
        42 -41 callgsubr
        return
      </CharString>
      <CharString index="43">
        hlineto
        -41 -17 -11 -23 callgsubr
        -11 41 vhcurveto
        return
      </CharString>
      <CharString index="44">
        rmoveto
        17 22 14 8 10 hvcurveto
        20 16 6 15 16 vvcurveto
        40 -35 26 -58 -35 -45 -15 18 callsubr
        9 11 17 33 hhcurveto
        10 11 -6 -11 -14 -12 -5 -19 -9 hvcurveto
        -10 -5 -9 -7 -4 vvcurveto
        -11 17 -10 27 vhcurveto
        return
      </CharString>
      <CharString index="45">
        -100 callsubr
        endchar
      </CharString>
      <CharString index="46">
        rmoveto
        1 callgsubr
        539 112 vlineto
        21 9 15 35 hvcurveto
        31 -29 callgsubr
        -380 hlineto
        16 callgsubr
        111 -539 hlineto
        -64 callsubr
        return
      </CharString>
      <CharString index="47">
        rmoveto
        34 hlineto
        39 19 10 22 hvcurveto
        347 vlineto
        15 10 17 17 22 hhcurveto
        29 10 -27 callsubr
        -40 48 -73 -57 -42 -32 -36 -26 vhcurveto
        259 vlineto
        21 -18 11 -40 vhcurveto
        -34 -15 callgsubr
        return
      </CharString>
      <CharString index="48">
        209 hlineto
        12 5 9 20 hvcurveto
        10 vlineto
        21 -5 8 -12 vhcurveto
        -118 hlineto
        101 149 rlineto
        20 28 11 29 33 vvcurveto
        62 -41 44 -79 -53 -62 -19 -34 -15 16 -26 18 vhcurveto
        10 23 26 34 hhcurveto
        27 20 -13 -28 -18 -7 -17 -16 -24 hvcurveto
        -127 -185 rlineto
        -2 -2 0 -3 -4 vvcurveto
        -17 7 -34 9 vhcurveto
        return
      </CharString>
      <CharString index="49">
        vlineto
        -14 callsubr
        42 vhcurveto
        return
      </CharString>
      <CharString index="50">
        rmoveto
        43 65 rlineto
        6 8 1 5 6 vvcurveto
        18 -34 23 -17 -10 -6 -6 -10 -7 vhcurveto
        -32 -48 rlineto
        28 -40 -50 14 -59 hhcurveto
        -166 -96 -107 -251 -103 16 -79 31 -57 hvcurveto
        -49 -75 rlineto
        -4 -6 -3 -7 -5 vvcurveto
        -18 33 -23 18 8 9 5 11 7 vhcurveto
        34 51 rlineto
        -35 42 54 -17 66 hhcurveto
        -51 callsubr
        113 -19 84 -37 58 hvcurveto
        -308 -255 rmoveto
        178 35 48 69 29 23 -9 -23 16 vhcurveto
        -170 -260 rlineto
        -1 20 -1 22 24 vvcurveto
        104 -227 rmoveto
        -35 -27 13 37 -17 hvcurveto
        177 270 rlineto
        3 -26 1 -31 -36 vvcurveto
        -178 -34 -49 -68 vhcurveto
        endchar
      </CharString>
      <CharString index="51">
        rmoveto
        42 4 callsubr
        261 171 -261 -71 callsubr
        1 callgsubr
        640 -67 callgsubr
        -41 -88 callsubr
        -247 -171 247 -54 callgsubr
        -40 vhcurveto
        -42 -64 callgsubr
        return
      </CharString>
      <CharString index="52">
        33 -29 callsubr
        -33 -7 callgsubr
        return
      </CharString>
      <CharString index="53">
        -36 callgsubr
        11 return
      </CharString>
      <CharString index="54">
        -37 callgsubr
        -17 -43 callsubr
        return
      </CharString>
      <CharString index="55">
        551 131 rmoveto
        -21 -23 -8 -5 -10 hvcurveto
        45 63 21 84 95 vvcurveto
        225 -96 123 -167 -168 -95 -123 -225 -95 21 -84 45 -63 vhcurveto
        5 -10 -23 8 -21 hhcurveto
        16 callgsubr
        203 -4 callsubr
        26 vlineto
        21 -3 9 -11 6 vhcurveto
        -43 19 -28 78 141 vvcurveto
        147 35 79 69 69 34 -79 -147 -141 -29 -76 -41 -21 vhcurveto
        -9 -7 -5 -8 -21 vvcurveto
        -26 -50 callsubr
        21 vhcurveto
        202 hlineto
        21 2 callgsubr
        -21 vhcurveto
        endchar
      </CharString>
      <CharString index="56">
        35 hlineto
        39 18 10 22 hvcurveto
        347 vlineto
        15 11 16 17 return
      </CharString>
      <CharString index="57">
        rmoveto
        5 8 3 6 7 vvcurveto
        17 -36 24 -17 -6 -9 -4 -9 -6 vhcurveto
        -23 -33 rlineto
        18 -29 -36 9 -43 hhcurveto
        -135 -69 -95 -174 -67 10 -56 21 -42 hvcurveto
        -35 -51 rlineto
        -6 -10 -3 -4 -7 vvcurveto
        -19 36 -24 16 6 8 4 9 6 vhcurveto
        24 35 rlineto
        -25 32 40 -13 49 hhcurveto
        -46 callgsubr
        76 -13 61 -26 44 hvcurveto
        -165 -29 rmoveto
        14 11 -5 -12 8 hvcurveto
        -88 -128 rlineto
        108 1 15 37 39 hhcurveto
        54 -152 rmoveto
        -113 -15 -40 -39 -20 -14 10 25 -9 vhcurveto
        97 139 rlineto
        endchar
      </CharString>
      <CharString index="58">
        -9 -15 -35 hvcurveto
        return
      </CharString>
      <CharString index="59">
        rmoveto
        26 2 52 76 67 vvcurveto
        25 -15 19 -35 vhcurveto
        -19 hlineto
        -35 -15 -17 -27 hvcurveto
        -35 -4 -37 -51 vvcurveto
        -16 27 -6 18 vhcurveto
        return
      </CharString>
</ttFont>
